SplineFontDB: 3.2
FontName: AtkinsonHyperPro-Bold
FullName: Atkinson Hyperlegible Pro Bold
FamilyName: Atkinson Hyperlegible Pro
Weight: Bold
Copyright: Copyright 2020 Braille Institute of America, Inc.
UComments: "Update by Jacob Perez+AAoA-https://jacobxperez.github.io/atkinson-hyperlegible-pro/"
Version: 1.5.1
ItalicAngle: 0
UnderlinePosition: -106
UnderlineWidth: 57
Ascent: 800
Descent: 200
InvalidEm: 0
sfntRevision: 0x00010000
LayerCount: 2
Layer: 0 0 "Back" 1
Layer: 1 0 "Fore" 0
XUID: [1021 466 782043844 10191]
StyleMap: 0x0020
FSType: 0
OS2Version: 4
OS2_WeightWidthSlopeOnly: 0
OS2_UseTypoMetrics: 1
CreationTime: 1615339189
ModificationTime: 1701757871
PfmFamily: 33
TTFWeight: 700
TTFWidth: 5
LineGap: 0
VLineGap: 0
Panose: 0 0 0 0 0 0 0 0 0 0
OS2TypoAscent: 950
OS2TypoAOffset: 0
OS2TypoDescent: -290
OS2TypoDOffset: 0
OS2TypoLinegap: 0
OS2WinAscent: 950
OS2WinAOffset: 0
OS2WinDescent: 290
OS2WinDOffset: 0
HheadAscent: 950
HheadAOffset: 0
HheadDescent: -290
HheadDOffset: 0
OS2SubXSize: 650
OS2SubYSize: 699
OS2SubXOff: 0
OS2SubYOff: 140
OS2SupXSize: 650
OS2SupYSize: 699
OS2SupXOff: 0
OS2SupYOff: 479
OS2StrikeYSize: 49
OS2StrikeYPos: 258
OS2CapHeight: 668
OS2XHeight: 496
OS2FamilyClass: 2048
OS2Vendor: 'NONE'
OS2CodePages: 20000003.00000000
OS2UnicodeRanges: 800000ef.0000204b.00000000.00000000
Lookup: 4 0 1 "'liga' Standard Ligatures lookup 0" { "'liga' Standard Ligatures lookup 0-1"  } ['liga' ('DFLT' <'dflt' > 'grek' <'dflt' > 'latn' <'MOL ' 'dflt' > ) ]
Lookup: 1 0 0 "'zero' Slashed Zero lookup 0" { "'zero' Slashed Zero lookup 0-1"  } ['zero' ('DFLT' <'dflt' > 'grek' <'dflt' > 'latn' <'MOL ' 'dflt' > ) ]
Lookup: 1 0 0 "'aalt' Access All Alternates lookup 0" { "'aalt' Access All Alternates lookup 0 subtable"  } ['aalt' ('DFLT' <'dflt' > 'grek' <'dflt' > 'latn' <'dflt' > ) ]
Lookup: 3 0 0 "'aalt' Access All Alternates lookup 1" { "'aalt' Access All Alternates lookup 1 subtable"  } ['aalt' ('DFLT' <'dflt' > 'grek' <'dflt' > 'latn' <'dflt' > ) ]

StartChar: zero
Encoding: 48 48 5
Width: 652
GlyphClass: 1
Flags: W
HStem: -12 113<266.594 395.355> 567 113<266.252 396.078>
VStem: 45 156<189.019 425.999> 461 157<247.51 482.783>
LayerCount: 2
Fore
SplineSet
209 431 m 1
 204 401 201 370 201 335 c 0
 201 184 247 101 331 101 c 0
 364 101 391 114 412 139 c 1
 209 431 l 1
455 246 m 1
 459 272 461 301 461 334 c 0
 461 486 416 567 331 567 c 0
 301 567 275 556 254 534 c 1
 455 246 l 1
618 335 m 0
 618 115 513 -12 331 -12 c 0
 150 -12 45 115 45 335 c 0
 45 556 148 680 331 680 c 0
 515 680 618 556 618 335 c 0
EndSplineSet
Substitution2: "'zero' Slashed Zero lookup 0-1" zero.alt1
Substitution2: "'aalt' Access All Alternates lookup 0 subtable" zero.alt1
Substitution2: "'tnum' Tabular Numbers lookup 14 subtable" zero.tf
EndChar

StartChar: one
Encoding: 49 49 6
Width: 448
GlyphClass: 1
Flags: W
HStem: 0 21G<199 350> 448 123<47 179.824> 648 20G<219 350>
VStem: 199 151<0 448>
LayerCount: 2
Fore
SplineSet
47 571 m 1
 169 571 203 589 235 668 c 1
 350 668 l 1
 350 0 l 1
 199 0 l 1
 199 448 l 1
 47 448 l 1
 47 571 l 1
EndSplineSet
Substitution2: "'tnum' Tabular Numbers lookup 14 subtable" one.tf
Substitution2: "'sups' Superscript lookup 9 subtable" uni00B9
AlternateSubs2: "'aalt' Access All Alternates lookup 1 subtable" uni00B9 one.tf
EndChar

StartChar: two
Encoding: 50 50 7
Width: 586
GlyphClass: 1
Flags: W
HStem: 0 125<228 547> 567 113<234.411 364.955>
VStem: 391 153<418.022 541.929>
LayerCount: 2
Fore
SplineSet
59 535 m 1
 94 627 185 680 306 680 c 0
 452 680 544 604 544 485 c 0
 544 363 448 254 228 125 c 1
 547 125 l 1
 547 0 l 1
 34 0 l 1
 34 125 l 1
 305 317 391 404 391 488 c 0
 391 536 354 567 299 567 c 0
 246 567 209 538 197 485 c 1
 59 535 l 1
EndSplineSet
Substitution2: "'tnum' Tabular Numbers lookup 14 subtable" two.tf
Substitution2: "'sups' Superscript lookup 9 subtable" uni00B2
AlternateSubs2: "'aalt' Access All Alternates lookup 1 subtable" uni00B2 two.tf
EndChar

StartChar: three
Encoding: 51 51 8
Width: 605
GlyphClass: 1
Flags: W
HStem: -12 113<217.309 368.16> 291 106<211 337.762> 567 113<215.588 361.143>
VStem: 390 153<439.49 539.904> 398 156<130.02 246.39>
LayerCount: 2
Fore
SplineSet
554 195 m 0xe8
 554 71 449 -12 291 -12 c 0
 165 -12 71 43 33 140 c 1
 171 190 l 1
 186 133 230 101 295 101 c 0
 359 101 398 134 398 188 c 0xe8
 398 258 338 291 211 291 c 1
 211 397 l 1
 326 397 390 430 390 489 c 0
 390 536 349 567 286 567 c 0
 227 567 189 538 177 485 c 1
 40 535 l 1
 76 627 169 680 295 680 c 0
 443 680 543 610 543 507 c 0xf0
 543 445 507 385 450 352 c 1
 510 330 554 264 554 195 c 0xe8
EndSplineSet
Substitution2: "'tnum' Tabular Numbers lookup 14 subtable" three.tf
Substitution2: "'sups' Superscript lookup 9 subtable" uni00B3
AlternateSubs2: "'aalt' Access All Alternates lookup 1 subtable" uni00B3 three.tf
EndChar

StartChar: four
Encoding: 52 52 9
Width: 626
GlyphClass: 1
Flags: W
HStem: 0 21G<348 500> 141 134<188 348 500 592> 648 20G<332.375 500>
VStem: 348 152<0 141 275 469>
LayerCount: 2
Fore
SplineSet
188 275 m 1
 348 275 l 1
 348 469 l 1
 188 275 l 1
348 0 m 1
 348 141 l 1
 23 141 l 1
 23 252 l 1
 348 668 l 1
 500 668 l 1
 500 275 l 1
 592 275 l 1
 592 141 l 1
 500 141 l 1
 500 0 l 1
 348 0 l 1
EndSplineSet
Substitution2: "'tnum' Tabular Numbers lookup 14 subtable" four.tf
Substitution2: "'sups' Superscript lookup 9 subtable" uni2074
AlternateSubs2: "'aalt' Access All Alternates lookup 1 subtable" four.tf uni2074
EndChar

StartChar: five
Encoding: 53 53 10
Width: 612
GlyphClass: 1
Flags: W
HStem: -12 113<214.699 361.293> 341 113<221.069 363.357> 544 124<213 534>
VStem: 408 157<146.882 294.932>
LayerCount: 2
Fore
SplineSet
565 221 m 0
 565 82 456 -12 295 -12 c 0
 175 -12 83 43 41 139 c 1
 173 187 l 1
 189 130 228 101 287 101 c 0
 362 101 408 147 408 221 c 0
 408 295 363 341 290 341 c 0
 241 341 204 319 180 276 c 1
 45 326 l 1
 87 668 l 1
 534 668 l 1
 534 544 l 1
 213 544 l 1
 198 419 l 1
 226 440 280 454 331 454 c 0
 470 454 565 359 565 221 c 0
EndSplineSet
Substitution2: "'tnum' Tabular Numbers lookup 14 subtable" five.tf
Substitution2: "'aalt' Access All Alternates lookup 0 subtable" five.tf
EndChar

StartChar: six
Encoding: 54 54 11
Width: 632
GlyphClass: 1
Flags: W
HStem: -12 113<255.616 383.479> 338 114<252.681 383.898> 570 110<265.696 395.578>
VStem: 51 161<154.764 379.027 403 462.312> 425 153<142.639 295.607>
LayerCount: 2
Fore
SplineSet
212 220 m 0
 212 148 254 101 320 101 c 0
 384 101 425 147 425 219 c 0
 425 292 384 338 319 338 c 0
 254 338 212 292 212 220 c 0
578 227 m 0
 578 88 471 -12 321 -12 c 0
 144 -12 51 98 51 306 c 0
 51 538 160 680 340 680 c 0
 435 680 507 646 544 583 c 1
 408 534 l 1
 395 556 365 570 330 570 c 0
 253 570 210 510 210 403 c 1
 246 436 292 452 353 452 c 0
 482 452 578 356 578 227 c 0
EndSplineSet
Substitution2: "'tnum' Tabular Numbers lookup 14 subtable" six.tf
Substitution2: "'aalt' Access All Alternates lookup 0 subtable" six.tf
EndChar

StartChar: seven
Encoding: 55 55 12
Width: 543
GlyphClass: 1
Flags: W
HStem: 0 21G<83 267.466> 543 125<15 354>
LayerCount: 2
Fore
SplineSet
83 0 m 1
 354 543 l 1
 15 543 l 1
 15 668 l 1
 515 668 l 1
 515 543 l 1
 258 0 l 1
 83 0 l 1
EndSplineSet
Substitution2: "'tnum' Tabular Numbers lookup 14 subtable" seven.tf
Substitution2: "'aalt' Access All Alternates lookup 0 subtable" seven.tf
EndChar

StartChar: eight
Encoding: 56 56 13
Width: 625
GlyphClass: 1
Flags: W
HStem: -12 126<236.354 388.825> 294 123<263.766 361.498> 555 125<263.194 362.792>
VStem: 38 157<152.197 260.134> 120 124<436.568 533.934> 380 125<434.979 537.221> 430 157<152.098 261.299>
LayerCount: 2
Fore
SplineSet
195 206 m 0xf2
 195 151 243 114 313 114 c 0
 381 114 430 152 430 206 c 0
 430 260 385 294 313 294 c 0
 240 294 195 260 195 206 c 0xf2
244 486 m 0xec
 244 448 275 417 313 417 c 0
 350 417 380 448 380 486 c 0
 380 526 351 555 313 555 c 0
 275 555 244 524 244 486 c 0xec
587 206 m 0xe2
 587 73 480 -12 313 -12 c 0
 145 -12 38 73 38 207 c 0xf2
 38 283 71 332 152 377 c 1
 131 411 120 448 120 487 c 0
 120 598 202 680 313 680 c 0
 424 680 505 598 505 487 c 0xec
 505 447 494 411 472 378 c 1
 553 333 587 282 587 206 c 0xe2
EndSplineSet
Substitution2: "'tnum' Tabular Numbers lookup 14 subtable" eight.tf
Substitution2: "'aalt' Access All Alternates lookup 0 subtable" eight.tf
EndChar

StartChar: nine
Encoding: 57 57 14
Width: 561
GlyphClass: 1
Flags: W
HStem: 0 21G<170 353> 202 133<214.496 278> 544 135<213.149 341.192>
VStem: 38 135<375.874 505.822> 382 134<379.439 504.832>
LayerCount: 2
Fore
SplineSet
382 445 m 0
 382 501 335 544 275 544 c 0
 216 544 173 500 173 440 c 0
 173 380 218 335 278 335 c 0
 335 335 382 385 382 445 c 0
275 679 m 0
 408 679 516 572 516 439 c 0
 516 400 506 366 481 313 c 0
 428 201 376 95 330 0 c 1
 170 0 l 1
 204 58 237 121 278 202 c 1
 267 202 l 1
 138 208 38 313 38 441 c 0
 38 573 143 679 275 679 c 0
EndSplineSet
Substitution2: "'tnum' Tabular Numbers lookup 14 subtable" nine.tf
Substitution2: "'aalt' Access All Alternates lookup 0 subtable" nine.tf
EndChar

StartChar: A
Encoding: 65 65 15
AltUni2: 000391.ffffffff.0
Width: 690
GlyphClass: 2
Flags: W
HStem: 0 21G<5 183.723 506.277 685> 119 128<260 430> 648 20G<250.425 439.575>
AnchorPoint: "Anchor-2" 685 0 basechar 0
AnchorPoint: "Anchor-1" 345 0 basechar 0
AnchorPoint: "Anchor-0" 345 668 basechar 0
LayerCount: 2
Fore
SplineSet
260 247 m 1
 430 247 l 1
 344 501 l 1
 260 247 l 1
5 0 m 1
 258 668 l 1
 432 668 l 1
 685 0 l 1
 513 0 l 1
 473 119 l 1
 217 119 l 1
 177 0 l 1
 5 0 l 1
EndSplineSet
Substitution2: "Single Substitution lookup 12 subtable" ordfeminine
Substitution2: "'aalt' Access All Alternates lookup 0 subtable" ordfeminine
EndChar

StartChar: B
Encoding: 66 66 16
AltUni2: 000392.ffffffff.0
Width: 639
GlyphClass: 1
Flags: W
HStem: 0 131<202 424.783> 282 122<202 407.254> 539 129<202 404.18>
VStem: 44 158<131 282 404 539> 426 164<424.106 520.539> 450 167<156.111 257.941>
AnchorPoint: "Anchor-1" 284 0 basechar 0
AnchorPoint: "Anchor-0" 286 668 basechar 0
LayerCount: 2
Fore
SplineSet
450 207 m 0xf4
 450 255 414 282 348 282 c 2
 202 282 l 1
 202 131 l 1
 348 131 l 2
 414 131 450 158 450 207 c 0xf4
426 472 m 0xf8
 426 514 395 539 341 539 c 2
 202 539 l 1
 202 404 l 1
 341 404 l 2
 394 404 426 430 426 472 c 0xf8
617 206 m 0xf4
 617 69 527 0 347 0 c 2
 44 0 l 1
 44 668 l 1
 336 668 l 2
 511 668 590 614 590 494 c 0xf8
 590 434 563 386 511 355 c 1
 581 331 617 280 617 206 c 0xf4
EndSplineSet
EndChar

StartChar: C
Encoding: 67 67 17
Width: 673
GlyphClass: 2
Flags: W
HStem: -12 130<292.195 458.866> 550 130<289.769 454.136>
VStem: 35 167<221.535 445.241>
AnchorPoint: "Anchor-1" 357 0 basechar 0
AnchorPoint: "Anchor-0" 357 668 basechar 0
LayerCount: 2
Fore
SplineSet
651 142 m 1
 596 44 493 -12 369 -12 c 0
 161 -12 35 119 35 334 c 0
 35 546 166 680 373 680 c 0
 495 680 594 624 647 525 c 1
 507 474 l 1
 481 523 431 550 368 550 c 0
 269 550 202 463 202 334 c 0
 202 202 268 118 370 118 c 0
 435 118 486 145 512 193 c 1
 651 142 l 1
EndSplineSet
EndChar

StartChar: D
Encoding: 68 68 18
Width: 686
GlyphClass: 2
Flags: W
HStem: 0 133<202 395.891> 537 131<202 392.088>
VStem: 44 158<133 537> 488 163<220.052 448.2>
AnchorPoint: "Anchor-1" 343 0 basechar 0
AnchorPoint: "Anchor-0" 326 668 basechar 0
LayerCount: 2
Fore
SplineSet
488 334 m 0
 488 477 423 537 267 537 c 2
 202 537 l 1
 202 133 l 1
 267 133 l 2
 424 133 488 191 488 334 c 0
651 334 m 0
 651 111 523 0 264 0 c 2
 44 0 l 1
 44 668 l 1
 264 668 l 2
 522 668 651 557 651 334 c 0
EndSplineSet
EndChar

StartChar: E
Encoding: 69 69 19
AltUni2: 000395.ffffffff.0
Width: 580
GlyphClass: 2
Flags: W
HStem: 0 139<202 558> 274 139<202 419> 529 139<202 558>
VStem: 44 158<139 274 413 529>
AnchorPoint: "Anchor-2" 522 0 basechar 0
AnchorPoint: "Anchor-1" 290 0 basechar 0
AnchorPoint: "Anchor-0" 303 668 basechar 0
LayerCount: 2
Fore
SplineSet
44 0 m 1
 44 668 l 1
 558 668 l 1
 558 529 l 1
 202 529 l 1
 202 413 l 1
 419 413 l 1
 419 274 l 1
 202 274 l 1
 202 139 l 1
 558 139 l 1
 558 0 l 1
 44 0 l 1
EndSplineSet
EndChar

StartChar: F
Encoding: 70 70 20
Width: 544
GlyphClass: 1
Flags: W
HStem: 0 21G<44 202> 274 139<202 522> 529 139<202 522>
VStem: 44 158<0 274 413 529>
AnchorPoint: "Anchor-0" 273 668 basechar 0
LayerCount: 2
Fore
SplineSet
44 0 m 1
 44 668 l 1
 522 668 l 1
 522 529 l 1
 202 529 l 1
 202 413 l 1
 522 413 l 1
 522 274 l 1
 202 274 l 1
 202 0 l 1
 44 0 l 1
EndSplineSet
EndChar

StartChar: G
Encoding: 71 71 21
Width: 719
GlyphClass: 2
Flags: W
HStem: -12 130<291.123 473.097> 0 21G<573.054 683> 250 128<375 525> 550 130<291.74 461.588>
VStem: 35 167<222.487 446.599> 525 158<166.293 250>
AnchorPoint: "Anchor-1" 350 0 basechar 0
AnchorPoint: "Anchor-0" 370 668 basechar 0
LayerCount: 2
Fore
SplineSet
376 118 m 0xbc
 470 118 525 160 525 231 c 2
 525 250 l 1
 375 250 l 1
 375 378 l 1
 683 378 l 1
 683 0 l 1
 579 0 l 1x7c
 557 74 l 1
 514 17 445 -12 352 -12 c 0
 157 -12 35 122 35 336 c 0
 35 544 169 680 375 680 c 0
 496 680 592 631 644 542 c 1
 508 486 l 1
 483 527 434 550 373 550 c 0
 269 550 202 467 202 336 c 0
 202 200 268 118 376 118 c 0xbc
EndSplineSet
EndChar

StartChar: H
Encoding: 72 72 22
AltUni2: 000397.ffffffff.0
Width: 679
GlyphClass: 2
Flags: W
HStem: 0 21G<44 202 477 635> 274 139<202 477> 648 20G<44 202 477 635>
VStem: 44 158<0 274 413 668> 477 158<0 274 413 668>
AnchorPoint: "Anchor-1" 340 0 basechar 0
AnchorPoint: "Anchor-0" 340 668 basechar 0
LayerCount: 2
Fore
SplineSet
44 0 m 1
 44 668 l 1
 202 668 l 1
 202 413 l 1
 477 413 l 1
 477 668 l 1
 635 668 l 1
 635 0 l 1
 477 0 l 1
 477 274 l 1
 202 274 l 1
 202 0 l 1
 44 0 l 1
EndSplineSet
EndChar

StartChar: I
Encoding: 73 73 23
AltUni2: 000399.ffffffff.0
Width: 460
GlyphClass: 2
Flags: W
HStem: 0 124<57 151 309 403> 544 124<57 151 309 403>
VStem: 57 346<0 124 544 668>
AnchorPoint: "Anchor-2" 331 0 basechar 0
AnchorPoint: "Anchor-1" 229 0 basechar 0
AnchorPoint: "Anchor-0" 231 668 basechar 0
LayerCount: 2
Fore
SplineSet
57 0 m 1
 57 124 l 1
 151 124 l 1
 151 544 l 1
 57 544 l 1
 57 668 l 1
 403 668 l 1
 403 544 l 1
 309 544 l 1
 309 124 l 1
 403 124 l 1
 403 0 l 1
 57 0 l 1
EndSplineSet
EndChar

StartChar: J
Encoding: 74 74 24
Width: 560
GlyphClass: 1
Flags: W
HStem: -12 125<199.804 321.133> 648 20G<358 516>
VStem: 358 158<154.645 668>
AnchorPoint: "Anchor-0" 441 668 basechar 0
LayerCount: 2
Fore
SplineSet
516 256 m 2
 516 85 422 -12 255 -12 c 0
 123 -12 35 54 5 175 c 1
 150 228 l 1
 166 154 203 113 255 113 c 0
 327 113 358 157 358 256 c 2
 358 668 l 1
 516 668 l 1
 516 256 l 2
EndSplineSet
EndChar

StartChar: K
Encoding: 75 75 25
AltUni2: 00039a.ffffffff.0
Width: 659
GlyphClass: 2
Flags: W
HStem: 0 21G<44 202 451.588 649> 648 20G<44 202 424.811 636>
VStem: 44 158<0 197 403 668>
AnchorPoint: "Anchor-1" 319 0 basechar 0
AnchorPoint: "Anchor-0" 330 668 basechar 0
LayerCount: 2
Fore
SplineSet
44 0 m 1
 44 668 l 1
 202 668 l 1
 202 403 l 1
 443 668 l 1
 636 668 l 1
 372 382 l 1
 649 0 l 1
 466 0 l 1
 270 272 l 1
 202 197 l 1
 202 0 l 1
 44 0 l 1
EndSplineSet
EndChar

StartChar: L
Encoding: 76 76 26
Width: 537
GlyphClass: 2
Flags: W
HStem: 0 139<202 522> 648 20G<44 202>
VStem: 44 158<139 668>
AnchorPoint: "Anchor-1" 269 0 basechar 0
AnchorPoint: "Anchor-0" 127 668 basechar 0
LayerCount: 2
Fore
SplineSet
44 0 m 1
 44 668 l 1
 202 668 l 1
 202 139 l 1
 522 139 l 1
 522 0 l 1
 44 0 l 1
EndSplineSet
EndChar

StartChar: M
Encoding: 77 77 27
AltUni2: 00039c.ffffffff.0
Width: 842
GlyphClass: 1
Flags: W
HStem: 0 21G<44 197 348.981 491.057 644 798> 648 20G<44 286.804 555.113 798>
VStem: 44 153<0 525> 644 154<0 525>
AnchorPoint: "Anchor-0" 420 668 basechar 0
LayerCount: 2
Fore
SplineSet
44 0 m 1
 44 668 l 1
 281 668 l 1
 420 189 l 1
 561 668 l 1
 798 668 l 1
 798 0 l 1
 644 0 l 1
 644 525 l 1
 485 0 l 1
 355 0 l 1
 197 525 l 1
 197 0 l 1
 44 0 l 1
EndSplineSet
EndChar

StartChar: N
Encoding: 78 78 28
AltUni2: 00039d.ffffffff.0
Width: 700
GlyphClass: 2
Flags: W
HStem: 0 21G<44 196 443.16 656> 648 20G<44 255.84 503 656>
VStem: 44 152<0 476> 503 153<192 668>
AnchorPoint: "Anchor-1" 322 0 basechar 0
AnchorPoint: "Anchor-0" 365 668 basechar 0
LayerCount: 2
Fore
SplineSet
44 0 m 1
 44 668 l 1
 245 668 l 1
 503 192 l 1
 503 668 l 1
 656 668 l 1
 656 0 l 1
 454 0 l 1
 196 476 l 1
 196 0 l 1
 44 0 l 1
EndSplineSet
EndChar

StartChar: O
Encoding: 79 79 29
AltUni2: 00039f.ffffffff.0
Width: 764
GlyphClass: 2
Flags: W
HStem: -12 130<296.694 465.841> 550 130<296.694 465.841>
VStem: 35 167<223.465 444.535> 561 168<223.465 444.535>
AnchorPoint: "Anchor-2" 481 0 basechar 0
AnchorPoint: "Anchor-1" 382 0 basechar 0
AnchorPoint: "Anchor-0" 382 668 basechar 0
LayerCount: 2
Fore
SplineSet
202 334 m 0
 202 204 273 118 381 118 c 0
 490 118 561 204 561 334 c 0
 561 464 490 550 381 550 c 0
 273 550 202 464 202 334 c 0
729 334 m 0
 729 127 589 -12 381 -12 c 0
 174 -12 35 127 35 334 c 0
 35 541 174 680 381 680 c 0
 589 680 729 541 729 334 c 0
EndSplineSet
Substitution2: "Single Substitution lookup 12 subtable" ordmasculine
Substitution2: "'aalt' Access All Alternates lookup 0 subtable" ordmasculine
EndChar

StartChar: P
Encoding: 80 80 30
AltUni2: 0003a1.ffffffff.0
Width: 626
GlyphClass: 1
Flags: W
HStem: 0 21G<44 202> 232 131<202 405.625> 535 133<202 406.943>
VStem: 44 158<0 232 363 535> 437 167<395.045 505.361>
AnchorPoint: "Anchor-0" 292 668 basechar 0
LayerCount: 2
Fore
SplineSet
437 450 m 0
 437 510 398 535 306 535 c 2
 202 535 l 1
 202 363 l 1
 306 363 l 2
 397 363 437 390 437 450 c 0
604 450 m 0
 604 299 511 232 301 232 c 2
 202 232 l 1
 202 0 l 1
 44 0 l 1
 44 668 l 1
 301 668 l 2
 511 668 604 601 604 450 c 0
EndSplineSet
EndChar

StartChar: Q
Encoding: 81 81 31
Width: 781
GlyphClass: 1
Flags: W
HStem: -12 130<296.694 465.541> 550 130<296.694 465.841>
VStem: 35 167<223.465 444.535> 561 168<252.812 444.535>
LayerCount: 2
Fore
SplineSet
202 334 m 0
 202 204 273 118 381 118 c 0
 419 118 452 128 481 149 c 1
 338 285 l 1
 421 372 l 1
 550 251 l 1
 558 274 561 299 561 334 c 0
 561 464 490 550 381 550 c 0
 273 550 202 464 202 334 c 0
729 334 m 0
 729 260 710 192 674 135 c 1
 781 34 l 1
 698 -55 l 1
 589 48 l 1
 532 8 462 -12 381 -12 c 0
 174 -12 35 127 35 334 c 0
 35 541 174 680 381 680 c 0
 589 680 729 541 729 334 c 0
EndSplineSet
EndChar

StartChar: R
Encoding: 82 82 32
Width: 654
GlyphClass: 2
Flags: W
HStem: 0 21G<44 202 439.635 637> 252 132<202 273> 535 133<202 406.943>
VStem: 44 158<0 252 384 535> 437 167<409.621 507.976>
AnchorPoint: "Anchor-1" 327 0 basechar 0
AnchorPoint: "Anchor-0" 307 668 basechar 0
LayerCount: 2
Fore
SplineSet
202 384 m 1
 306 384 l 2
 397 384 437 407 437 459 c 0
 437 512 398 535 306 535 c 2
 202 535 l 1
 202 384 l 1
604 461 m 0
 604 364 548 297 443 269 c 1
 637 0 l 1
 454 0 l 1
 273 252 l 1
 202 252 l 1
 202 0 l 1
 44 0 l 1
 44 668 l 1
 301 668 l 2
 511 668 604 605 604 461 c 0
EndSplineSet
EndChar

StartChar: S
Encoding: 83 83 33
Width: 619
GlyphClass: 2
Flags: W
HStem: -12 127<225.087 406.039> 553 127<214.341 383.39>
VStem: 28 162<446.124 528.51> 434 162<141.32 229.246>
AnchorPoint: "Anchor-1" 329 0 basechar 0
AnchorPoint: "Anchor-0" 304 668 basechar 0
LayerCount: 2
Fore
SplineSet
596 209 m 0
 596 83 474 -12 314 -12 c 0
 170 -12 67 48 25 157 c 1
 169 209 l 1
 187 148 238 115 315 115 c 0
 389 115 434 141 434 185 c 0
 434 227 395 254 312 269 c 1
 231 285 l 2
 97 312 28 376 28 473 c 0
 28 594 145 680 311 680 c 0
 435 680 530 626 567 535 c 1
 424 483 l 1
 407 528 361 553 297 553 c 0
 231 553 190 528 190 489 c 0
 190 457 219 431 266 421 c 2
 356 403 l 1
 527 370 596 314 596 209 c 0
EndSplineSet
EndChar

StartChar: T
Encoding: 84 84 34
AltUni2: 0003a4.ffffffff.0
Width: 617
GlyphClass: 2
Flags: W
HStem: 0 21G<230 387> 529 139<15 230 387 602>
VStem: 230 157<0 529>
AnchorPoint: "Anchor-1" 309 0 basechar 0
AnchorPoint: "Anchor-0" 309 668 basechar 0
LayerCount: 2
Fore
SplineSet
230 0 m 1
 230 529 l 1
 15 529 l 1
 15 668 l 1
 602 668 l 1
 602 529 l 1
 387 529 l 1
 387 0 l 1
 230 0 l 1
EndSplineSet
EndChar

StartChar: U
Encoding: 85 85 35
Width: 663
GlyphClass: 2
Flags: W
HStem: -12 129<250.269 413.161> 648 20G<44 202 461 619>
VStem: 44 158<169.408 668> 461 158<169.808 668>
AnchorPoint: "Anchor-2" 440 0 basechar 0
AnchorPoint: "Anchor-1" 332 0 basechar 0
AnchorPoint: "Anchor-0" 332 668 basechar 0
LayerCount: 2
Fore
SplineSet
619 292 m 2
 619 80 532 -12 332 -12 c 0
 131 -12 44 79 44 292 c 2
 44 668 l 1
 202 668 l 1
 202 279 l 2
 202 160 237 117 332 117 c 0
 426 117 461 160 461 279 c 2
 461 668 l 1
 619 668 l 1
 619 292 l 2
EndSplineSet
EndChar

StartChar: V
Encoding: 86 86 36
Width: 656
GlyphClass: 1
Flags: W
HStem: 0 21G<229.234 425.796> 648 20G<10 180.232 474.727 646>
VStem: 10 164<504 668> 481 165<503 668>
LayerCount: 2
Fore
SplineSet
236 0 m 1
 10 668 l 1
 174 668 l 1
 327 177 l 1
 481 668 l 1
 646 668 l 1
 419 0 l 1
 236 0 l 1
EndSplineSet
EndChar

StartChar: W
Encoding: 87 87 37
Width: 883
GlyphClass: 1
Flags: W
HStem: 0 21G<166.18 344.298 538.66 716.82> 648 20G<10 172.017 354.767 527.276 710.983 873>
VStem: 10 158<510 668> 715 158<510 668>
AnchorPoint: "Anchor-0" 441 668 basechar 0
LayerCount: 2
Fore
SplineSet
171 0 m 1
 10 668 l 1
 168 668 l 1
 261 205 l 1
 359 668 l 1
 523 668 l 1
 622 205 l 1
 715 668 l 1
 873 668 l 1
 712 0 l 1
 543 0 l 1
 441 470 l 1
 340 0 l 1
 171 0 l 1
EndSplineSet
EndChar

StartChar: X
Encoding: 88 88 38
AltUni2: 0003a7.ffffffff.0
Width: 699
GlyphClass: 1
Flags: W
HStem: 0 21G<10 214.123 484.782 689> 648 20G<24 227.167 471.729 675>
AnchorPoint: "Anchor-1" 349 0 basechar 0
AnchorPoint: "Anchor-0" 349 668 basechar 0
LayerCount: 2
Fore
SplineSet
10 0 m 1
 255 343 l 1
 24 668 l 1
 213 668 l 1
 349 476 l 1
 486 668 l 1
 675 668 l 1
 444 343 l 1
 689 0 l 1
 499 0 l 1
 349 211 l 1
 200 0 l 1
 10 0 l 1
EndSplineSet
EndChar

StartChar: Y
Encoding: 89 89 39
AltUni2: 0003a5.ffffffff.0
Width: 687
GlyphClass: 2
Flags: W
HStem: 0 21G<265 422> 648 20G<10 205.595 480.405 677>
VStem: 265 157<0 260>
AnchorPoint: "Anchor-1" 344 0 basechar 0
AnchorPoint: "Anchor-0" 344 668 basechar 0
LayerCount: 2
Fore
SplineSet
265 0 m 1
 265 260 l 1
 10 668 l 1
 194 668 l 1
 343 411 l 1
 492 668 l 1
 677 668 l 1
 422 260 l 1
 422 0 l 1
 265 0 l 1
EndSplineSet
EndChar

StartChar: Z
Encoding: 90 90 40
AltUni2: 000396.ffffffff.0
Width: 621
GlyphClass: 2
Flags: W
HStem: 0 139<240 589> 529 139<47 369>
AnchorPoint: "Anchor-1" 311 0 basechar 0
AnchorPoint: "Anchor-0" 311 668 basechar 0
LayerCount: 2
Fore
SplineSet
32 0 m 1
 32 121 l 1
 369 529 l 1
 47 529 l 1
 47 668 l 1
 574 668 l 1
 574 547 l 1
 240 139 l 1
 589 139 l 1
 589 0 l 1
 32 0 l 1
EndSplineSet
EndChar

StartChar: a
Encoding: 97 97 41
Width: 553
GlyphClass: 2
Flags: W
HStem: -12 104<144.131 300.621> 0 21G<373 520> 220 90<230.834 353> 407 103<206.995 332.186>
VStem: 24 157<106.513 184.474> 356 147<127.252 220 309.177 385.259>
AnchorPoint: "Anchor-2" 520 0 basechar 0
AnchorPoint: "Anchor-1" 277 0 basechar 0
AnchorPoint: "Anchor-0" 285 496 basechar 0
LayerCount: 2
Fore
SplineSet
181 145 m 0xbc
 181 114 210 92 251 92 c 0
 323 92 356 129 356 208 c 2
 356 220 l 1
 226 208 181 189 181 145 c 0xbc
361 60 m 1
 326 12 271 -12 195 -12 c 0xbc
 95 -12 24 49 24 134 c 0
 24 240 123 293 353 310 c 1
 353 383 332 407 270 407 c 0
 225 407 194 386 184 348 c 1
 56 394 l 1
 92 467 177 510 283 510 c 0
 434 510 503 445 503 303 c 2
 503 194 l 2
 503 124 510 46 520 0 c 1
 379 0 l 1x7c
 361 60 l 1
EndSplineSet
Substitution2: "Single Substitution lookup 12 subtable" ordfeminine
Substitution2: "'aalt' Access All Alternates lookup 0 subtable" ordfeminine
EndChar

StartChar: b
Encoding: 98 98 42
Width: 596
GlyphClass: 1
Flags: W
HStem: -12 118<263.737 365.337> 0 21G<50 188.672> 392 118<268.232 365.602> 648 20G<50 202>
VStem: 50 152<428 668> 50 145<155.628 342.372> 414 158<162.281 340.812>
AnchorPoint: "Anchor-1" 353 0 basechar 0
AnchorPoint: "Anchor-0" 355 496 basechar 0
LayerCount: 2
Fore
SplineSet
305 392 m 0xb6
 235 392 195 340 195 249 c 0
 195 158 235 106 305 106 c 0
 369 106 414 166 414 252 c 0
 414 336 370 392 305 392 c 0xb6
572 252 m 0
 572 93 485 -12 353 -12 c 0
 289 -12 230 19 202 67 c 1xba
 183 0 l 1
 50 0 l 1x76
 50 668 l 1
 202 668 l 1
 202 428 l 1x7a
 231 477 291 510 353 510 c 0
 486 510 572 409 572 252 c 0
EndSplineSet
EndChar

StartChar: c
Encoding: 99 99 43
Width: 520
GlyphClass: 2
Flags: W
HStem: -12 118<225.686 353.701> 392 118<223.052 349.445>
VStem: 24 155<156.709 342.108>
AnchorPoint: "Anchor-1" 275 0 basechar 0
AnchorPoint: "Anchor-0" 280 496 basechar 0
LayerCount: 2
Fore
SplineSet
500 108 m 1
 457 31 378 -12 278 -12 c 0
 120 -12 24 88 24 251 c 0
 24 407 125 510 278 510 c 0
 383 510 463 464 502 380 c 1
 375 334 l 1
 361 372 331 392 287 392 c 0
 219 392 179 340 179 250 c 0
 179 159 219 106 287 106 c 0
 328 106 358 122 376 153 c 1
 500 108 l 1
EndSplineSet
EndChar

StartChar: d
Encoding: 100 100 44
Width: 596
GlyphClass: 2
Flags: W
HStem: -12 118<230.795 332.852> 0 21G<412.03 563> 392 118<230.529 329.571> 648 20G<394 546>
VStem: 24 158<162.066 340.812> 394 152<428 668> 401 145<155.628 341.949>
AnchorPoint: "Anchor-1" 243 0 basechar 0
AnchorPoint: "Anchor-0" 240 496 basechar 0
LayerCount: 2
Fore
SplineSet
182 252 m 0xba
 182 165 227 106 292 106 c 0
 361 106 401 158 401 249 c 0
 401 339 361 392 292 392 c 0
 226 392 182 336 182 252 c 0xba
398 67 m 1
 361 16 306 -12 243 -12 c 0
 111 -12 24 93 24 252 c 0
 24 409 110 510 243 510 c 0
 306 510 365 478 394 428 c 1
 394 668 l 1
 546 668 l 1xbc
 546 194 l 2
 546 129 552 61 563 0 c 1
 418 0 l 1x7a
 398 67 l 1
EndSplineSet
EndChar

StartChar: e
Encoding: 101 101 45
Width: 566
GlyphClass: 2
Flags: W
HStem: -12 118<221.51 373.575> 210 90<177 403> 397 113<220.36 365.53>
VStem: 24 153<154.664 210 300 354.328> 403 142<300 353.416>
AnchorPoint: "Anchor-2" 404 10 basechar 0
AnchorPoint: "Anchor-1" 283 0 basechar 0
AnchorPoint: "Anchor-0" 284 496 basechar 0
LayerCount: 2
Fore
SplineSet
403 300 m 1
 402 359 359 397 294 397 c 0
 228 397 185 361 177 300 c 1
 403 300 l 1
513 99 m 1
 465 29 385 -12 296 -12 c 0
 130 -12 24 91 24 251 c 0
 24 400 136 510 290 510 c 0
 443 510 545 400 545 234 c 0
 545 226 544 218 544 210 c 1
 177 210 l 1
 182 147 228 106 292 106 c 0
 335 106 371 119 392 143 c 1
 513 99 l 1
EndSplineSet
EndChar

StartChar: f
Encoding: 102 102 46
Width: 367
GlyphClass: 1
Flags: W
HStem: 0 21G<87 239> 380 116<5 87 239 347> 608 120<246.6 347>
VStem: 87 152<0 380 496 601.93>
AnchorPoint: "Anchor-0" 80 668 basechar 0
LayerCount: 2
Fore
SplineSet
305 608 m 2
 251 608 239 600 239 563 c 2
 239 496 l 1
 347 496 l 1
 347 380 l 1
 239 380 l 1
 239 0 l 1
 87 0 l 1
 87 380 l 1
 5 380 l 1
 5 496 l 1
 87 496 l 1
 87 577 l 2
 87 689 137 728 278 728 c 2
 347 728 l 1
 347 608 l 1
 305 608 l 2
EndSplineSet
EndChar

StartChar: g
Encoding: 103 103 47
Width: 597
GlyphClass: 2
Flags: W
HStem: -203 116<219.114 364.876> 18 118<227.246 326.438> 392 119<225.975 322.741> 476 20G<409.118 546>
VStem: 24 158<184.386 345.989> 395 151<-55.7145 96 168 359>
AnchorPoint: "Anchor-1" 299 -251 basechar 0
AnchorPoint: "Anchor-0" 297 496 basechar 0
LayerCount: 2
Fore
SplineSet
292 392 m 0xec
 223 392 182 345 182 267 c 0
 182 187 225 136 292 136 c 0
 364 136 401 179 401 263 c 0
 401 347 363 392 292 392 c 0xec
546 37 m 2
 546 -121 460 -203 293 -203 c 0
 189 -203 112 -162 73 -85 c 1
 197 -40 l 1
 213 -70 246 -87 289 -87 c 0
 358 -87 395 -54 395 7 c 2
 395 96 l 1
 355 46 299 18 238 18 c 0
 117 18 24 122 24 259 c 0
 24 409 109 511 233 511 c 0xec
 299 511 359 480 395 428 c 1
 415 496 l 1
 546 496 l 1xdc
 546 37 l 2
EndSplineSet
EndChar

StartChar: h
Encoding: 104 104 48
Width: 572
GlyphClass: 2
Flags: W
HStem: 0 21G<50 202 370 522> 392 118<266.512 414> 648 20G<50 202>
VStem: 50 152<0 356.22 430 668> 370 152<0 370.302>
AnchorPoint: "Anchor-1" 286 0 basechar 0
AnchorPoint: "Anchor-0" 126 668 basechar 0
LayerCount: 2
Fore
SplineSet
294 392 m 0
 232 392 202 348 202 255 c 2
 202 0 l 1
 50 0 l 1
 50 668 l 1
 202 668 l 1
 202 430 l 1
 232 479 291 510 355 510 c 0
 473 510 522 449 522 302 c 2
 522 0 l 1
 370 0 l 1
 370 264 l 2
 370 362 352 392 294 392 c 0
EndSplineSet
EndChar

StartChar: i
Encoding: 105 105 49
Width: 315
GlyphClass: 1
Flags: W
HStem: 0 21G<118 271> 380 116<24 118> 578 180<135.982 252.786>
VStem: 105 180<608.982 725.786> 118 153<0 380>
AnchorPoint: "Anchor-2" 271 0 basechar 0
LayerCount: 2
Fore
SplineSet
118 0 m 1xe8
 118 380 l 1
 24 380 l 1
 24 496 l 1
 271 496 l 1
 271 0 l 1
 118 0 l 1xe8
EndSplineSet
Refer: 544 803 S 1 0 0 1 105 826 2
Substitution2: "Single Substitution lookup 4 subtable" dotlessi
Substitution2: "Single Substitution lookup 3 subtable" dotlessi
EndChar

StartChar: j
Encoding: 106 106 50
Width: 259
GlyphClass: 1
Flags: W
HStem: -161 120<-70 52.649> 476 20G<55 207> 578 180<72.982 191.018>
VStem: 42 180<608.982 727.018> 55 152<-37.0977 496>
LayerCount: 2
Fore
SplineSet
222 668 m 0xf0
 222 618 182 578 132 578 c 0
 82 578 42 618 42 668 c 0
 42 718 82 758 132 758 c 0
 182 758 222 718 222 668 c 0xf0
EndSplineSet
Refer: 410 567 S 1 0 0 1 0 0 2
EndChar

StartChar: k
Encoding: 107 107 51
Width: 567
GlyphClass: 2
Flags: W
HStem: 0 21G<50 202 368.667 563> 476 20G<350.34 548> 648 20G<50 202>
VStem: 50 152<0 125 308 668>
AnchorPoint: "Anchor-1" 284 0 basechar 0
AnchorPoint: "Anchor-0" 284 796 basechar 0
LayerCount: 2
Fore
SplineSet
50 0 m 1
 50 668 l 1
 202 668 l 1
 202 308 l 1
 368 496 l 1
 548 496 l 1
 354 289 l 1
 563 0 l 1
 383 0 l 1
 254 180 l 1
 202 125 l 1
 202 0 l 1
 50 0 l 1
EndSplineSet
EndChar

StartChar: l
Encoding: 108 108 52
Width: 314
GlyphClass: 2
Flags: W
HStem: -18 124<204.433 307> 648 20G<50 202>
VStem: 50 148<113.555 668>
AnchorPoint: "Anchor-1" 167 0 basechar 0
AnchorPoint: "Anchor-0" 129 680 basechar 0
LayerCount: 2
Fore
SplineSet
198 162 m 2
 198 118 212 106 264 106 c 2
 307 106 l 1
 307 -18 l 1
 210 -18 l 2
 90 -18 50 21 50 140 c 2
 50 668 l 1
 202 668 l 1
 198 162 l 2
EndSplineSet
EndChar

StartChar: m
Encoding: 109 109 53
Width: 886
GlyphClass: 2
Flags: W
HStem: 0 21G<50 202 366 519 684 836> 392 118<266.606 390 571.901 727.5> 476 20G<50 188.758>
VStem: 50 152<0 357.155> 366 153<0 359.275> 684 152<0 369.949>
AnchorPoint: "Anchor-1" 443 0 basechar 0
AnchorPoint: "Anchor-0" 451 496 basechar 0
LayerCount: 2
Fore
SplineSet
292 392 m 0xdc
 231 392 202 349 202 259 c 2
 202 0 l 1
 50 0 l 1
 50 496 l 1
 183 496 l 1xbc
 202 430 l 1
 231 478 291 510 352 510 c 0
 428 510 476 483 499 427 c 1
 537 481 598 510 669 510 c 0
 786 510 836 448 836 302 c 2
 836 0 l 1
 684 0 l 1
 684 264 l 2
 684 362 666 392 607 392 c 0
 547 392 519 351 519 262 c 2
 519 0 l 1
 366 0 l 1
 366 264 l 2
 366 363 349 392 292 392 c 0xdc
EndSplineSet
EndChar

StartChar: n
Encoding: 110 110 54
Width: 572
GlyphClass: 2
Flags: W
HStem: 0 21G<50 202 370 522> 392 118<266.512 414> 476 20G<50 188.758>
VStem: 50 152<0 356.22> 370 152<0 370.302>
AnchorPoint: "Anchor-1" 286 0 basechar 0
AnchorPoint: "Anchor-0" 305 496 basechar 0
LayerCount: 2
Fore
SplineSet
294 392 m 0xd8
 232 392 202 348 202 255 c 2
 202 0 l 1
 50 0 l 1
 50 496 l 1
 183 496 l 1xb8
 202 430 l 1
 232 479 291 510 355 510 c 0
 473 510 522 449 522 302 c 2
 522 0 l 1
 370 0 l 1
 370 264 l 2
 370 362 352 392 294 392 c 0xd8
EndSplineSet
EndChar

StartChar: o
Encoding: 111 111 55
AltUni2: 0003bf.ffffffff.0
Width: 573
GlyphClass: 2
Flags: W
HStem: -12 118<222.538 351.121> 392 118<222.162 351.277>
VStem: 24 155<153.498 345.973> 394 155<153.29 345.765>
AnchorPoint: "Anchor-2" 375 0 basechar 0
AnchorPoint: "Anchor-1" 287 0 basechar 0
AnchorPoint: "Anchor-0" 287 496 basechar 0
LayerCount: 2
Fore
SplineSet
287 106 m 0
 357 106 394 156 394 250 c 0
 394 342 357 392 287 392 c 0
 216 392 179 343 179 250 c 0
 179 157 217 106 287 106 c 0
549 250 m 0
 549 91 446 -12 287 -12 c 0
 127 -12 24 91 24 250 c 0
 24 409 126 510 287 510 c 0
 447 510 549 409 549 250 c 0
EndSplineSet
Substitution2: "Single Substitution lookup 12 subtable" ordmasculine
Substitution2: "'aalt' Access All Alternates lookup 0 subtable" ordmasculine
EndChar

StartChar: p
Encoding: 112 112 56
AltUni2: 0003c1.ffffffff.0
Width: 596
GlyphClass: 1
Flags: W
HStem: -161 21G<50 202> -12 118<268.611 365.823> 392 118<268.047 365.337> 476 20G<50 187.882>
VStem: 50 152<-161 71> 50 145<157.283 346.141> 414 158<158.081 336.843>
AnchorPoint: "Anchor-0" 348 496 basechar 0
LayerCount: 2
Fore
SplineSet
414 248 m 0xe6
 414 333 369 392 305 392 c 0
 234 392 195 342 195 251 c 0
 195 161 236 106 305 106 c 0
 371 106 414 162 414 248 c 0xe6
353 -12 m 0
 292 -12 231 22 202 71 c 1
 202 -161 l 1
 50 -161 l 1xea
 50 496 l 1xd6
 182 496 l 1
 202 428 l 1xda
 231 477 291 510 353 510 c 0
 485 510 572 406 572 248 c 0
 572 90 486 -12 353 -12 c 0
EndSplineSet
EndChar

StartChar: q
Encoding: 113 113 57
Width: 601
GlyphClass: 1
Flags: W
HStem: -172 138<556.102 672.638> -12 118<230.308 327.657> 392 118<230.795 329.764> 476 20G<408.118 546>
VStem: 24 158<158.081 336.843> 394 152<-24.7038 70> 401 145<156.86 345.726>
LayerCount: 2
Fore
SplineSet
292 392 m 0xea
 227 392 182 333 182 248 c 0
 182 162 225 106 292 106 c 0
 360 106 401 160 401 251 c 0
 401 341 362 392 292 392 c 0xea
674 -155 m 1
 641 -166 600 -172 563 -172 c 0
 452 -172 394 -117 394 -10 c 2
 394 70 l 1
 365 21 304 -12 243 -12 c 0
 110 -12 24 90 24 248 c 0
 24 406 111 510 243 510 c 0
 306 510 365 478 394 428 c 1xec
 414 496 l 1
 546 496 l 1xda
 546 38 l 2xdc
 546 -17 559 -34 604 -34 c 0
 625 -34 649 -31 674 -24 c 1
 674 -155 l 1
EndSplineSet
EndChar

StartChar: r
Encoding: 114 114 58
Width: 372
GlyphClass: 2
Flags: W
HStem: 0 21G<50 202> 361 149<260.966 357> 476 20G<50 175.934>
VStem: 50 152<0 326.294>
AnchorPoint: "Anchor-1" 128 0 basechar 0
AnchorPoint: "Anchor-0" 221 496 basechar 0
LayerCount: 2
Fore
SplineSet
316 361 m 0xd0
 239 361 202 325 202 250 c 2
 202 0 l 1
 50 0 l 1
 50 496 l 1
 170 496 l 1xb0
 197 405 l 1
 225 477 272 510 344 510 c 2
 357 510 l 1
 357 358 l 1
 340 360 332 361 316 361 c 0xd0
EndSplineSet
EndChar

StartChar: s
Encoding: 115 115 59
Width: 534
GlyphClass: 2
Flags: W
HStem: -12 111<181.583 348.656> 399 111<186.224 337.56>
VStem: 33 145<331.088 388.379> 361 146<114.359 173.732>
AnchorPoint: "Anchor-1" 267 0 basechar 0
AnchorPoint: "Anchor-0" 268 496 basechar 0
LayerCount: 2
Fore
SplineSet
507 162 m 0
 507 55 413 -12 264 -12 c 0
 145 -12 59 33 21 114 c 1
 150 161 l 1
 164 121 206 99 267 99 c 0
 324 99 361 117 361 145 c 0
 361 168 339 181 284 190 c 2
 195 205 l 2
 91 222 33 275 33 353 c 0
 33 448 123 510 261 510 c 0
 369 510 447 471 481 400 c 1
 353 353 l 1
 345 384 315 399 260 399 c 0
 205 399 178 386 178 359 c 0
 178 339 196 327 239 319 c 2
 331 302 l 1
 457 280 507 240 507 162 c 0
EndSplineSet
EndChar

StartChar: t
Encoding: 116 116 60
Width: 379
GlyphClass: 2
Flags: W
HStem: 0 124<253.022 355> 380 116<13 95 247 355>
VStem: 95 152<130.117 380 496 620>
AnchorPoint: "Anchor-1" 239 0 basechar 0
AnchorPoint: "Anchor-0" 170 620 basechar 0
LayerCount: 2
Fore
SplineSet
247 180 m 2
 247 136 260 124 311 124 c 2
 355 124 l 1
 355 0 l 1
 259 0 l 2
 130 0 95 30 95 140 c 2
 95 380 l 1
 13 380 l 1
 13 496 l 1
 95 496 l 1
 95 620 l 1
 247 620 l 1
 247 496 l 1
 355 496 l 1
 355 380 l 1
 247 380 l 1
 247 180 l 2
EndSplineSet
EndChar

StartChar: u
Encoding: 117 117 61
Width: 570
GlyphClass: 2
Flags: W
HStem: -12 118<161.5 310.463> 0 21G<381 519> 476 20G<50 202 366 519>
VStem: 50 152<129.187 496> 366 153<134.451 496>
AnchorPoint: "Anchor-2" 519 0 basechar 0
AnchorPoint: "Anchor-1" 285 0 basechar 0
AnchorPoint: "Anchor-0" 285 496 basechar 0
LayerCount: 2
Fore
SplineSet
366 70 m 1x78
 332 12 289 -12 222 -12 c 0
 101 -12 50 50 50 198 c 2
 50 496 l 1
 202 496 l 1
 202 219 l 2
 202 138 224 106 280 106 c 0xb8
 340 106 366 144 366 235 c 2
 366 496 l 1
 519 496 l 1
 519 0 l 1
 387 0 l 1
 366 70 l 1x78
EndSplineSet
EndChar

StartChar: v
Encoding: 118 118 62
Width: 526
GlyphClass: 1
Flags: W
HStem: 0 158<177 348> 476 20G<0 163.272 362.728 526>
VStem: 0 157<339 496> 369 157<339 496>
LayerCount: 2
Fore
SplineSet
177 0 m 1
 0 496 l 1
 157 496 l 1
 263 158 l 1
 369 496 l 1
 526 496 l 1
 348 0 l 1
 177 0 l 1
EndSplineSet
EndChar

StartChar: w
Encoding: 119 119 63
Width: 723
GlyphClass: 1
Flags: W
HStem: 0 21G<119 293.989 428.955 604> 476 20G<0 154.464 285.19 436.81 567.536 723>
VStem: 0 150<346 496> 572 151<345 496>
LayerCount: 2
Fore
SplineSet
124 0 m 1
 0 496 l 1
 150 496 l 1
 225 160 l 1
 289 496 l 1
 433 496 l 1
 497 160 l 1
 572 496 l 1
 723 496 l 1
 599 0 l 1
 433 0 l 1
 361 356 l 1
 290 0 l 1
 124 0 l 1
EndSplineSet
EndChar

StartChar: x
Encoding: 120 120 64
AltUni2: 0003c7.ffffffff.0
Width: 533
GlyphClass: 1
Flags: W
HStem: 0 21G<0 180.126 353.014 533> 476 20G<15 195.215 337.95 518>
AnchorPoint: "Anchor-1" 267 0 basechar 0
AnchorPoint: "Anchor-0" 267 496 basechar 0
LayerCount: 2
Fore
SplineSet
0 0 m 1
 184 259 l 1
 15 496 l 1
 181 496 l 1
 267 375 l 1
 352 496 l 1
 518 496 l 1
 349 259 l 1
 533 0 l 1
 367 0 l 1
 267 143 l 1
 166 0 l 1
 0 0 l 1
EndSplineSet
EndChar

StartChar: y
Encoding: 121 121 65
Width: 518
GlyphClass: 2
Flags: W
HStem: -161 110<65 175.51> 476 20G<0 169.258 348.871 518>
AnchorPoint: "Anchor-1" 429 0 basechar 0
AnchorPoint: "Anchor-0" 260 496 basechar 0
LayerCount: 2
Fore
SplineSet
65 -161 m 1
 65 -51 l 1
 95 -51 l 2
 164 -51 175 -45 190 3 c 1
 0 496 l 1
 163 496 l 1
 260 186 l 1
 355 496 l 1
 518 496 l 1
 328 0 l 2
 278 -131 238 -161 114 -161 c 2
 65 -161 l 1
EndSplineSet
EndChar

StartChar: z
Encoding: 122 122 66
Width: 516
GlyphClass: 2
Flags: W
HStem: 0 121<226 496> 375 121<44 287>
AnchorPoint: "Anchor-1" 258 0 basechar 0
AnchorPoint: "Anchor-0" 268 496 basechar 0
LayerCount: 2
Fore
SplineSet
30 0 m 1
 30 121 l 1
 287 375 l 1
 44 375 l 1
 44 496 l 1
 482 496 l 1
 482 375 l 1
 226 121 l 1
 496 121 l 1
 496 0 l 1
 30 0 l 1
EndSplineSet
EndChar

StartChar: circumflex
Encoding: 258 710 67
Width: 467
GlyphClass: 1
Flags: W
HStem: 635 91<188.5 279.5>
LayerCount: 2
Fore
SplineSet
37 574 m 1
 184 706 l 2
 200 720 216 726 234 726 c 0
 252 726 270 719 284 706 c 2
 430 574 l 1
 302 574 l 1
 234 635 l 1
 166 574 l 1
 37 574 l 1
EndSplineSet
EndChar

StartChar: caron
Encoding: 259 711 68
Width: 467
GlyphClass: 1
Flags: W
HStem: 568 91<188.5 279.5>
LayerCount: 2
Fore
SplineSet
234 568 m 0
 214 568 198 574 184 587 c 2
 37 720 l 1
 166 720 l 1
 234 659 l 1
 302 720 l 1
 430 720 l 1
 284 587 l 2
 269 574 253 568 234 568 c 0
EndSplineSet
EndChar

StartChar: breve
Encoding: 260 728 69
Width: 373
GlyphClass: 1
Flags: W
HStem: 569 77<154.608 248.24>
VStem: 57 85<658.5 689> 259 85<658.125 689>
LayerCount: 2
Fore
SplineSet
344 689 m 1
 332 619 272 569 200 569 c 0
 130 569 69 620 57 689 c 1
 142 689 l 1
 148 665 173 646 200 646 c 0
 228 646 253 664 259 689 c 1
 344 689 l 1
EndSplineSet
EndChar

StartChar: dotaccent
Encoding: 261 729 70
Width: 201
GlyphClass: 1
Flags: W
HStem: 578 141<50.875 150.625>
VStem: 30 141<598.375 698.125>
LayerCount: 2
Fore
SplineSet
171 648 m 0
 171 609 140 578 101 578 c 0
 62 578 30 609 30 648 c 0
 30 687 62 719 101 719 c 0
 140 719 171 687 171 648 c 0
EndSplineSet
EndChar

StartChar: ring
Encoding: 262 730 71
Width: 295
GlyphClass: 1
Flags: W
HStem: 535 86<107.738 186.494> 715 85<107.552 186.804>
VStem: 15 85<628.506 707.448> 194 86<628.506 707.572>
LayerCount: 2
Fore
SplineSet
100 668 m 0
 100 642 121 621 147 621 c 0
 173 621 194 642 194 668 c 0
 194 695 174 715 147 715 c 0
 121 715 100 694 100 668 c 0
280 668 m 0
 280 595 220 535 147 535 c 0
 75 535 15 595 15 668 c 0
 15 741 74 800 147 800 c 0
 221 800 280 741 280 668 c 0
EndSplineSet
EndChar

StartChar: ogonek
Encoding: 263 731 72
Width: 295
GlyphClass: 1
Flags: W
HStem: -174 76<165.635 257.313>
VStem: 37 126<-93.5099 -39.5503>
LayerCount: 2
Fore
SplineSet
258 -164 m 1
 244 -169 205 -174 179 -174 c 0
 93 -174 37 -139 37 -85 c 0
 37 -46 65 -16 117 0 c 1
 258 0 l 1
 174 -43 163 -50 163 -68 c 0
 163 -87 179 -98 209 -98 c 0
 232 -98 243 -91 258 -89 c 1
 258 -164 l 1
EndSplineSet
EndChar

StartChar: quoteleft
Encoding: 161 8216 73
Width: 277
GlyphClass: 1
Flags: W
HStem: 339 329<124 158.672>
VStem: 41 195<376.548 496.5>
LayerCount: 2
Fore
SplineSet
236 437 m 0
 236 383 193 339 139 339 c 0
 85 339 41 383 41 437 c 0
 41 449 43 461 48 472 c 2
 124 668 l 1
 214 668 l 1
 161 531 l 1
 205 521 236 483 236 437 c 0
EndSplineSet
EndChar

StartChar: quoteright
Encoding: 162 8217 74
Width: 277
GlyphClass: 1
Flags: W
HStem: 351 329<116.595 153>
VStem: 41 195<522.5 642.875>
LayerCount: 2
Fore
SplineSet
139 680 m 0
 193 680 236 637 236 582 c 0
 236 570 234 558 230 547 c 2
 153 351 l 1
 63 351 l 1
 116 487 l 1
 72 498 41 537 41 582 c 0
 41 637 84 680 139 680 c 0
EndSplineSet
EndChar

StartChar: quotesinglbase
Encoding: 264 8218 75
Width: 277
GlyphClass: 1
Flags: W
HStem: -146 330<116.595 153>
VStem: 41 195<26.375 146.875>
LayerCount: 2
Fore
SplineSet
139 184 m 0
 193 184 236 141 236 86 c 0
 236 74 234 62 230 51 c 2
 153 -146 l 1
 63 -146 l 1
 116 -9 l 1
 72 2 41 41 41 86 c 0
 41 141 84 184 139 184 c 0
EndSplineSet
EndChar

StartChar: quotedblleft
Encoding: 265 8220 76
Width: 498
GlyphClass: 1
Flags: W
HStem: 339 329<124 158.672 345 379.672>
VStem: 41 195<376.548 497.5> 263 194<376.548 496.5>
LayerCount: 2
Fore
SplineSet
457 437 m 0
 457 382 414 339 360 339 c 0
 306 339 263 383 263 437 c 0
 263 449 265 461 270 472 c 2
 345 668 l 1
 436 668 l 1
 382 531 l 1
 426 521 457 483 457 437 c 0
236 437 m 0
 236 383 193 339 139 339 c 0
 85 339 41 383 41 437 c 0
 41 446 43 455 51 480 c 1
 124 668 l 1
 214 668 l 1
 161 531 l 1
 205 521 236 483 236 437 c 0
EndSplineSet
EndChar

StartChar: quotedblbase
Encoding: 267 8222 78
Width: 498
GlyphClass: 1
Flags: W
HStem: -146 330<116.595 153 340.328 374>
VStem: 41 195<26.375 146.875> 263 194<26.375 146.875>
LayerCount: 2
Fore
SplineSet
360 184 m 0
 415 184 457 141 457 86 c 0
 457 74 455 62 451 51 c 2
 374 -146 l 1
 285 -146 l 1
 338 -9 l 1
 294 2 263 41 263 86 c 0
 263 141 306 184 360 184 c 0
EndSplineSet
Refer: 75 8218 S 1 0 0 1 0 0 2
EndChar

StartChar: dagger
Encoding: 268 8224 79
Width: 594
GlyphClass: 1
Flags: W
HStem: 0 21G<225 369> 380 116<41 225 369 553> 648 20G<225 369>
VStem: 225 144<0 380 496 668>
LayerCount: 2
Fore
SplineSet
225 0 m 1
 225 380 l 1
 41 380 l 1
 41 496 l 1
 225 496 l 1
 225 668 l 1
 369 668 l 1
 369 496 l 1
 553 496 l 1
 553 380 l 1
 369 380 l 1
 369 0 l 1
 225 0 l 1
EndSplineSet
EndChar

StartChar: daggerdbl
Encoding: 269 8225 80
Width: 594
GlyphClass: 1
Flags: W
HStem: 0 21G<225 369> 173 115<41 225 369 553> 380 116<41 225 369 553> 648 20G<225 369>
VStem: 225 144<0 173 288 380 496 668>
LayerCount: 2
Fore
SplineSet
225 0 m 1
 225 173 l 1
 41 173 l 1
 41 288 l 1
 225 288 l 1
 225 380 l 1
 41 380 l 1
 41 496 l 1
 225 496 l 1
 225 668 l 1
 369 668 l 1
 369 496 l 1
 553 496 l 1
 553 380 l 1
 369 380 l 1
 369 288 l 1
 553 288 l 1
 553 173 l 1
 369 173 l 1
 369 0 l 1
 225 0 l 1
EndSplineSet
EndChar

StartChar: bullet
Encoding: 270 8226 81
Width: 438
GlyphClass: 1
Flags: W
HStem: 88 332<136.23 301.77>
VStem: 53 332<171.23 336.77>
LayerCount: 2
Fore
SplineSet
385 254 m 0
 385 162 311 88 219 88 c 0
 127 88 53 162 53 254 c 0
 53 346 127 420 219 420 c 0
 311 420 385 346 385 254 c 0
EndSplineSet
EndChar

StartChar: ellipsis
Encoding: 271 8230 82
Width: 803
GlyphClass: 1
Flags: W
HStem: -12 196<78.5485 199.068 341.739 461.875 604.548 725.068>
VStem: 41 195<25.5485 146.875> 305 194<25.1255 146.875> 567 195<25.5485 146.875>
LayerCount: 2
Fore
SplineSet
499 86 m 0
 499 31 456 -12 401 -12 c 0
 348 -12 305 32 305 86 c 0
 305 141 347 184 401 184 c 0
 456 184 499 141 499 86 c 0
236 86 m 0
 236 32 193 -12 139 -12 c 0
 85 -12 41 32 41 86 c 0
 41 141 84 184 139 184 c 0
 193 184 236 141 236 86 c 0
762 86 m 0
 762 31 719 -12 665 -12 c 0
 611 -12 567 32 567 86 c 0
 567 141 610 184 665 184 c 0
 720 184 762 141 762 86 c 0
EndSplineSet
EndChar

StartChar: perthousand
Encoding: 272 8240 83
Width: 1406
GlyphClass: 1
Flags: W
HStem: -12 119<701.675 810.325 1130.68 1238.89> 0 21G<192 332.012> 264 118<701.868 810.309 1130.68 1236.71> 286 118<167.107 275.325> 561 119<169.291 275.502> 648 20G<645.018 786>
VStem: 24 119<428.675 534.709> 300 118<428.675 534.709> 559 118<131.636 236.824> 835 118<131.636 236.824> 988 118<131.636 239.854> 1263 119<131.636 239.854>
LayerCount: 2
Fore
SplineSet
1106 186 m 0xa3f0
 1106 142 1141 107 1185 107 c 0
 1228 107 1263 142 1263 186 c 0
 1263 229 1228 264 1185 264 c 0
 1141 264 1106 229 1106 186 c 0xa3f0
677 186 m 0
 677 142 712 107 756 107 c 0
 800 107 835 142 835 186 c 0
 835 229 799 264 756 264 c 0
 713 264 677 229 677 186 c 0
1382 186 m 0
 1382 77 1294 -12 1185 -12 c 0
 1076 -12 988 77 988 186 c 0
 988 295 1076 382 1185 382 c 0
 1295 382 1382 295 1382 186 c 0
953 186 m 0
 953 77 865 -12 756 -12 c 0
 647 -12 559 77 559 186 c 0
 559 295 647 382 756 382 c 0
 866 382 953 295 953 186 c 0
143 483 m 0
 143 439 178 404 221 404 c 0
 265 404 300 439 300 483 c 0
 300 526 265 561 221 561 c 0x1bf0
 178 561 143 526 143 483 c 0
192 0 m 1x47f0
 659 668 l 1
 786 668 l 1
 318 0 l 1
 192 0 l 1x47f0
418 483 m 0
 418 374 330 286 221 286 c 0
 112 286 24 374 24 483 c 0
 24 593 111 680 221 680 c 0x1bf0
 331 680 418 593 418 483 c 0
EndSplineSet
EndChar

StartChar: guilsinglleft
Encoding: 273 8249 84
Width: 404
GlyphClass: 1
Flags: W
VStem: 41 321
LayerCount: 2
Fore
SplineSet
189 40 m 1
 41 250 l 1
 189 461 l 1
 362 461 l 1
 214 250 l 1
 363 40 l 1
 189 40 l 1
EndSplineSet
EndChar

StartChar: guilsinglright
Encoding: 274 8250 85
Width: 404
GlyphClass: 1
Flags: W
VStem: 41 322
LayerCount: 2
Fore
SplineSet
41 40 m 1
 191 249 l 1
 42 460 l 1
 216 460 l 1
 363 249 l 1
 216 40 l 1
 41 40 l 1
EndSplineSet
EndChar

StartChar: fraction
Encoding: 275 8260 86
Width: 624
GlyphClass: 1
Flags: W
HStem: 0 21G<15 155.982> 648 20G<468.988 609>
LayerCount: 2
Fore
SplineSet
15 0 m 1
 483 668 l 1
 609 668 l 1
 142 0 l 1
 15 0 l 1
EndSplineSet
EndChar

StartChar: ordfeminine
Encoding: 276 170 87
Width: 395
GlyphClass: 1
Flags: W
HStem: 395 72<126.799 233.814> 523 61<158.794 238> 623 68<134.3 234.957>
VStem: 53 104<469.415 518.412> 240 97<474.525 526 588 619.002>
LayerCount: 2
Fore
SplineSet
157 495 m 0
 157 478 170 467 190 467 c 0
 220 467 240 484 240 509 c 2
 240 526 l 1
 203 523 l 2
 171 521 157 512 157 495 c 0
249 435 m 1
 234 409 203 395 160 395 c 0
 96 395 53 434 53 491 c 0
 53 549 87 570 203 584 c 2
 238 588 l 1
 238 614 228 623 198 623 c 0
 175 623 162 615 159 599 c 1
 72 630 l 1
 91 670 139 691 210 691 c 0
 297 691 337 656 337 581 c 0
 337 580 337 579 337 578 c 1
 337 518 l 2
 337 457 338 434 342 403 c 1
 258 403 l 1
 249 435 l 1
EndSplineSet
EndChar

StartChar: guillemotleft
Encoding: 171 171 88
Width: 669
GlyphClass: 1
Flags: W
LayerCount: 2
Fore
SplineSet
201 40 m 1
 53 251 l 1
 201 461 l 1
 374 461 l 1
 226 251 l 1
 375 40 l 1
 201 40 l 1
440 40 m 1
 294 251 l 1
 440 461 l 1
 615 461 l 1
 466 251 l 1
 616 40 l 1
 440 40 l 1
EndSplineSet
EndChar

StartChar: logicalnot
Encoding: 172 172 89
Width: 618
GlyphClass: 1
Flags: W
HStem: 295 127<53 437>
VStem: 437 128<56 295>
LayerCount: 2
Fore
SplineSet
437 56 m 1
 437 295 l 1
 53 295 l 1
 53 422 l 1
 565 422 l 1
 565 56 l 1
 437 56 l 1
EndSplineSet
EndChar

StartChar: registered
Encoding: 277 174 90
Width: 798
GlyphClass: 1
Flags: W
HStem: -12 69<293.257 503.574> 300 75<338 370> 453 76<338 454.125> 610 69<293.468 503.574>
VStem: 53 70<228.658 438.821> 241 97<161 300 375 453> 458 101<381.961 446.055> 675 70<228.658 439.032>
LayerCount: 2
Fore
SplineSet
458 414 m 0
 458 441 438 453 390 453 c 2
 338 453 l 1
 338 375 l 1
 390 375 l 2
 438 375 458 387 458 414 c 0
559 415 m 0
 559 361 530 326 472 310 c 1
 579 161 l 1
 471 161 l 1
 370 300 l 1
 338 300 l 1
 338 161 l 1
 241 161 l 1
 241 529 l 1
 392 529 l 2
 507 529 559 494 559 415 c 0
123 334 m 0
 123 181 246 57 398 57 c 0
 551 57 675 181 675 334 c 0
 675 487 551 610 398 610 c 0
 247 610 123 486 123 334 c 0
745 334 m 0
 745 143 590 -12 398 -12 c 0
 208 -12 53 143 53 334 c 0
 53 524 208 679 398 679 c 0
 590 679 745 524 745 334 c 0
EndSplineSet
EndChar

StartChar: macron
Encoding: 278 175 91
Width: 405
GlyphClass: 1
Flags: W
HStem: 570 98<53 352>
VStem: 53 299<570 668>
LayerCount: 2
Fore
SplineSet
53 570 m 1
 53 668 l 1
 352 668 l 1
 352 570 l 1
 53 570 l 1
EndSplineSet
EndChar

StartChar: degree
Encoding: 176 176 92
Width: 404
GlyphClass: 1
Flags: W
HStem: 354 90<150.362 254.213> 590 89<150.362 254.019>
VStem: 40 89<467.019 568.638> 275 89<464.734 569.019>
LayerCount: 2
Fore
SplineSet
129 517 m 0
 129 477 162 444 202 444 c 0
 243 444 275 476 275 517 c 0
 275 558 243 590 202 590 c 0
 162 590 129 557 129 517 c 0
364 517 m 0
 364 426 293 354 202 354 c 0
 113 354 40 427 40 517 c 0
 40 606 113 679 202 679 c 0
 292 679 364 607 364 517 c 0
EndSplineSet
EndChar

StartChar: plusminus
Encoding: 177 177 93
Width: 618
GlyphClass: 1
Flags: W
HStem: 0 128<53 565> 283 108<53 245 373 565> 475 20G<245 373>
VStem: 245 128<180 283 391 495>
LayerCount: 2
Fore
SplineSet
245 180 m 1
 245 283 l 1
 53 283 l 1
 53 391 l 1
 245 391 l 1
 245 495 l 1
 373 495 l 1
 373 391 l 1
 565 391 l 1
 565 283 l 1
 373 283 l 1
 373 180 l 1
 245 180 l 1
EndSplineSet
Refer: 159 8722 S 1 0 0 1 12 -184 2
EndChar

StartChar: uni00B2
Encoding: 178 178 94
Width: 407
GlyphClass: 1
Flags: W
HStem: 403 87<195 353> 709 76<165.16 248.369>
VStem: 251 103<622.681 704.724>
LayerCount: 2
Fore
SplineSet
354 677 m 0
 354 615 318 572 195 490 c 1
 353 490 l 1
 353 403 l 1
 53 403 l 1
 53 484 l 1
 208 590 251 631 251 673 c 0
 251 695 235 709 208 709 c 0
 180 709 161 693 155 666 c 1
 64 699 l 1
 85 755 137 785 213 785 c 0
 302 785 354 745 354 677 c 0
EndSplineSet
EndChar

StartChar: uni00B3
Encoding: 179 179 95
Width: 413
GlyphClass: 1
Flags: W
HStem: 395 77<154.534 249.335> 491 20G<88.8485 148.5> 552 84<167 242.728> 675 21G<93.0606 150.5> 709 76<131.785 244.357>
VStem: 247 103<643.142 703.867> 255 105<478.671 543.972>
LayerCount: 2
Fore
SplineSet
360 510 m 0xfa
 360 442 295 395 203 395 c 0
 130 395 77 424 53 478 c 1
 144 511 l 1
 153 487 176 472 205 472 c 0
 237 472 255 487 255 512 c 0xfa
 255 540 233 552 182 552 c 2
 167 552 l 1
 167 636 l 1
 182 636 l 2
 225 636 247 649 247 674 c 0
 247 696 229 709 201 709 c 0
 175 709 154 696 147 675 c 1
 58 708 l 1
 80 758 132 785 205 785 c 0
 294 785 350 746 350 683 c 0xfc
 350 647 331 615 301 600 c 1
 338 586 360 553 360 510 c 0xfa
EndSplineSet
EndChar

StartChar: acute
Encoding: 279 180 96
Width: 314
GlyphClass: 1
Flags: W
HStem: 574 153<161.049 194.972>
VStem: 53 208
LayerCount: 2
Fore
SplineSet
205 727 m 0
 237 727 261 703 261 671 c 0
 261 654 255 640 242 629 c 0
 237 626 237 626 167 574 c 1
 53 574 l 1
 54 575 163 708 164 709 c 0
 174 721 188 727 205 727 c 0
EndSplineSet
EndChar

StartChar: uni03BC
Encoding: 236 956 97
Width: 570
GlyphClass: 1
Flags: W
HStem: -162 21G<50 202> -12 118<221.334 340.197> 0 21G<374.953 519> 475 20G<50 202 366 519>
VStem: 50 152<-162 18 123.954 495> 366 153<132.068 495>
LayerCount: 2
Fore
SplineSet
368 43 m 1xbc
 349 8 317 -12 279 -12 c 0
 250 -12 224 -2 202 18 c 1
 202 -162 l 1
 50 -162 l 1
 50 495 l 1
 202 495 l 1
 202 230 l 2
 202 134 219 106 277 106 c 0xdc
 342 106 366 139 366 230 c 2
 366 495 l 1
 519 495 l 1
 519 0 l 1
 381 0 l 1
 368 43 l 1xbc
EndSplineSet
EndChar

StartChar: paragraph
Encoding: 280 182 98
Width: 515
GlyphClass: 1
Flags: W
HStem: -162 21G<166 261 353 448> 600 67<261 353 448 495>
VStem: 24 237<391.741 564.315> 166 95<-162 301.306> 353 95<-162 600>
LayerCount: 2
Fore
SplineSet
24 478 m 0xe8
 24 583 108 667 213 667 c 2
 495 667 l 1
 495 600 l 1
 448 600 l 1
 448 -162 l 1
 353 -162 l 1
 353 600 l 1
 261 600 l 1
 261 -162 l 1
 166 -162 l 1
 166 295 l 1xd8
 81 318 24 392 24 478 c 0xe8
EndSplineSet
EndChar

StartChar: periodcentered
Encoding: 183 183 99
Width: 301
GlyphClass: 1
Flags: W
HStem: 151 194<90.5485 211.068>
VStem: 53 195<187.932 308.068>
LayerCount: 2
Fore
SplineSet
248 248 m 0
 248 194 205 151 151 151 c 0
 97 151 53 194 53 248 c 0
 53 302 96 345 151 345 c 0
 206 345 248 303 248 248 c 0
EndSplineSet
EndChar

StartChar: cedilla
Encoding: 281 184 100
Width: 321
GlyphClass: 1
Flags: W
HStem: -187 50<84.0206 192.797>
VStem: 194 94<-134.571 -85.93>
LayerCount: 2
Fore
SplineSet
123 -90 m 0
 112 -90 103 -80 103 -68 c 0
 103 -63 103 -61 105 -59 c 2
 157 25 l 1
 198 0 l 1
 168 -48 l 1
 177 -46 189 -45 202 -45 c 0
 254 -45 288 -70 288 -107 c 0
 288 -156 239 -187 161 -187 c 0
 132 -187 101 -182 73 -174 c 1
 89 -124 l 1
 105 -131 131 -137 150 -137 c 0
 179 -137 194 -128 194 -110 c 0
 194 -94 180 -84 157 -84 c 0
 144 -84 136 -90 123 -90 c 0
EndSplineSet
EndChar

StartChar: uni00B9
Encoding: 282 185 101
Width: 291
GlyphClass: 1
Flags: W
HStem: 647 87<53 136.584>
VStem: 137 101<403 647> 159 79<748.97 779>
LayerCount: 2
Fore
SplineSet
53 734 m 1xc0
 123 734 148 745 159 779 c 1
 238 779 l 1xa0
 238 403 l 1
 137 403 l 1
 137 647 l 1
 53 647 l 1
 53 734 l 1xc0
EndSplineSet
EndChar

StartChar: ordmasculine
Encoding: 283 186 102
Width: 409
GlyphClass: 1
Flags: W
HStem: 395 77<171.621 246.372> 612 77<171.465 246.528>
VStem: 57 103<483.002 601.204> 258 102<482.473 601.733>
LayerCount: 2
Fore
SplineSet
160 542 m 0
 160 499 179 472 209 472 c 0
 240 472 258 498 258 542 c 0
 258 586 240 612 209 612 c 0
 179 612 160 585 160 542 c 0
360 542 m 0
 360 451 302 395 209 395 c 0
 115 395 57 451 57 542 c 0
 57 634 114 689 209 689 c 0
 303 689 360 634 360 542 c 0
EndSplineSet
EndChar

StartChar: guillemotright
Encoding: 187 187 103
Width: 669
GlyphClass: 1
Flags: W
LayerCount: 2
Fore
SplineSet
53 40 m 1
 203 251 l 1
 54 461 l 1
 228 461 l 1
 375 251 l 1
 228 40 l 1
 53 40 l 1
294 40 m 1
 442 251 l 1
 294 461 l 1
 468 461 l 1
 616 251 l 1
 468 40 l 1
 294 40 l 1
EndSplineSet
EndChar

StartChar: onequarter
Encoding: 284 188 104
Width: 853
GlyphClass: 1
Flags: W
HStem: 0 21G<110 251.033> 74 87<563 641 742 800> 535 88<53 136.878> 647 20G<153.5 238 563.967 705>
VStem: 137 101<292 535> 159 79<637.308 667> 641 101<0 74 161 256>
LayerCount: 2
Fore
SplineSet
53 623 m 1xfa
 124 623 148 633 159 667 c 1
 238 667 l 1xf6
 238 292 l 1
 137 292 l 1
 137 535 l 1
 53 535 l 1
 53 623 l 1xfa
110 0 m 1
 578 667 l 1
 705 667 l 1
 237 0 l 1
 110 0 l 1
EndSplineSet
Refer: 348 8308 S 1 0 0 1 405 -403 2
LCarets2: 2 0 0
Ligature2: "'frac' Diagonal Fractions lookup 10 subtable" one slash four
EndChar

StartChar: onehalf
Encoding: 189 189 105
Width: 856
GlyphClass: 1
Flags: W
HStem: 0 87<644 802> 306 75<613.686 696.339> 535 88<53 136.878> 647 20G<153.5 238 563.967 705>
VStem: 137 101<292 535> 159 79<637.308 667> 700 103<218.286 301.396>
LayerCount: 2
Fore
SplineSet
803 274 m 0xf2
 803 213 769 173 644 87 c 1
 802 87 l 1
 802 0 l 1
 502 0 l 1
 502 81 l 1
 553 118 577 130 626 169 c 0
 676 209 700 240 700 266 c 0
 700 291 684 306 657 306 c 0
 629 306 610 290 603 263 c 1
 512 296 l 1
 533 351 586 381 661 381 c 0
 750 381 803 341 803 274 c 0xf2
53 623 m 1
 124 623 148 633 159 667 c 1
 238 667 l 1xf6
 238 292 l 1
 137 292 l 1
 137 535 l 1xfa
 53 535 l 1
 53 623 l 1
110 0 m 1
 578 667 l 1
 705 667 l 1
 237 0 l 1
 110 0 l 1
EndSplineSet
LCarets2: 2 0 0
Ligature2: "'frac' Diagonal Fractions lookup 10 subtable" one slash two
EndChar

StartChar: threequarters
Encoding: 285 190 106
Width: 959
GlyphClass: 1
Flags: W
HStem: 0 21G<200 341.033 748 849> 74 87<669 748 849 906> 290 76<154.303 251.67> 446 84<167 242.728> 603 76<130.825 243.564> 647 20G<653.967 795>
VStem: 247 103<537.18 597.446> 255 105<371.301 437.711> 748 101<0 74 161 256>
LayerCount: 2
Fore
SplineSet
669 161 m 1xf080
 748 161 l 1
 748 256 l 1
 669 161 l 1xf080
748 0 m 1
 748 74 l 1
 567 74 l 1
 567 152 l 1
 748 375 l 1
 849 375 l 1
 849 161 l 1
 906 161 l 1
 906 74 l 1
 849 74 l 1
 849 0 l 1
 748 0 l 1
200 0 m 1
 668 667 l 1
 795 667 l 1xf480
 327 0 l 1
 200 0 l 1
360 404 m 0xf980
 360 337 295 290 203 290 c 0
 131 290 77 319 53 372 c 1
 144 404 l 1
 153 380 175 366 205 366 c 0
 237 366 255 380 255 404 c 0xf980
 255 433 233 446 182 446 c 2
 167 446 l 1
 167 530 l 1
 182 530 l 2
 225 530 247 543 247 569 c 0
 247 589 228 603 201 603 c 0
 175 603 154 590 147 569 c 1
 58 602 l 1
 81 653 131 679 208 679 c 0
 295 679 350 639 350 577 c 0xfa80
 350 541 331 509 301 494 c 1
 338 480 360 447 360 404 c 0xf980
EndSplineSet
LCarets2: 2 0 0
Ligature2: "'frac' Diagonal Fractions lookup 10 subtable" three slash four
EndChar

StartChar: less
Encoding: 60 60 107
Width: 573
GlyphClass: 1
Flags: W
HStem: 490 20G<486.27 533>
LayerCount: 2
Fore
SplineSet
533 -12 m 1
 40 200 l 1
 40 299 l 1
 533 510 l 1
 533 368 l 1
 209 250 l 1
 533 130 l 1
 533 -12 l 1
EndSplineSet
EndChar

StartChar: equal
Encoding: 61 61 108
Width: 618
GlyphClass: 1
Flags: W
HStem: 96 129<53 565> 283 127<53 565>
LayerCount: 2
Fore
SplineSet
53 96 m 1
 53 225 l 1
 565 225 l 1
 565 96 l 1
 53 96 l 1
53 283 m 1
 53 410 l 1
 565 410 l 1
 565 283 l 1
 53 283 l 1
EndSplineSet
EndChar

StartChar: greater
Encoding: 62 62 109
Width: 573
GlyphClass: 1
Flags: W
HStem: 490 20G<40 86.7299>
LayerCount: 2
Fore
SplineSet
40 -12 m 1
 40 130 l 1
 365 250 l 1
 40 368 l 1
 40 510 l 1
 533 299 l 1
 533 200 l 1
 40 -12 l 1
EndSplineSet
EndChar

StartChar: question
Encoding: 63 63 110
Width: 614
GlyphClass: 1
Flags: W
HStem: -12 195<203.932 324.068> 558 122<219.156 386.039>
VStem: 167 194<25.5485 148.294> 408 156<464.288 537.138>
LayerCount: 2
Fore
SplineSet
361 86 m 0
 361 31 318 -12 264 -12 c 0
 210 -12 167 32 167 86 c 0
 167 141 209 183 264 183 c 0
 319 183 361 141 361 86 c 0
40 536 m 1
 77 628 174 680 309 680 c 0
 463 680 564 612 564 509 c 0
 564 330 354 365 341 253 c 1
 340 243 l 1
 186 243 l 1
 186 255 l 1
 190 343 218 381 315 427 c 0
 398 466 408 474 408 501 c 0
 408 535 366 558 303 558 c 0
 238 558 193 532 177 486 c 1
 40 536 l 1
EndSplineSet
EndChar

StartChar: at
Encoding: 64 64 111
Width: 754
GlyphClass: 1
Flags: W
HStem: -12 70<275.812 488.068> 153 87<526.514 612.582> 155 95<310.864 396.241> 427 91<323.577 418.695> 610 70<275.504 486.077>
VStem: 35 69<228.314 438.842> 200 97<262.88 399.452> 419 94<272.474 426.605> 642 77<272.227 456.477>
LayerCount: 2
Fore
SplineSet
297 319 m 0xbf80
 297 278 319 250 352 250 c 0
 391 250 419 288 419 339 c 2
 419 423 l 1
 410 426 398 427 382 427 c 0
 325 427 297 392 297 319 c 0xbf80
104 333 m 0
 104 180 228 58 383 58 c 0
 430 58 474 70 516 94 c 1
 516 16 l 1
 474 -3 429 -12 380 -12 c 0
 190 -12 35 143 35 334 c 0
 35 525 190 680 382 680 c 0
 570 680 719 534 719 350 c 1
 714 228 653 153 559 153 c 0xdf80
 511 153 471 178 454 219 c 1
 425 178 382 155 337 155 c 0xbf80
 256 155 200 222 200 317 c 0
 200 447 269 518 394 518 c 0
 431 518 472 511 513 498 c 1
 513 309 l 2
 513 268 535 240 567 240 c 0xdf80
 611 240 638 282 642 356 c 1
 642 500 528 610 380 610 c 0
 227 610 104 486 104 333 c 0
EndSplineSet
EndChar

StartChar: colon
Encoding: 58 58 112
Width: 243
GlyphClass: 1
Flags: W
HStem: -12 195<61.5485 182.068> 316 194<61.1255 182.068>
VStem: 24 195<25.5485 146.068 352.739 472.875>
LayerCount: 2
Fore
SplineSet
219 412 m 0
 219 358 176 316 122 316 c 0
 68 316 24 359 24 412 c 0
 24 467 67 510 122 510 c 0
 176 510 219 467 219 412 c 0
EndSplineSet
Refer: 133 46 S 1 0 0 1 0 0 2
EndChar

StartChar: semicolon
Encoding: 59 59 113
Width: 243
GlyphClass: 1
Flags: W
HStem: 316 194<61.1255 182.068>
VStem: 24 195<25.75 146.068 352.739 472.875>
LayerCount: 2
Fore
SplineSet
122 183 m 0
 177 183 219 141 219 86 c 0
 219 73 217 61 213 50 c 2
 136 -146 l 1
 46 -146 l 1
 99 -9 l 1
 55 2 24 41 24 86 c 0
 24 140 67 183 122 183 c 0
219 412 m 0
 219 358 176 316 122 316 c 0
 68 316 24 359 24 412 c 0
 24 467 67 510 122 510 c 0
 176 510 219 467 219 412 c 0
EndSplineSet
EndChar

StartChar: bracketleft
Encoding: 91 91 114
Width: 333
GlyphClass: 1
Flags: W
HStem: -161 115<172 300> 552 116<172 300>
VStem: 44 256<-161 -46 552 668> 44 128<-46 552>
LayerCount: 2
Fore
SplineSet
44 -161 m 1xe0
 44 668 l 1
 300 668 l 1
 300 552 l 1xe0
 172 552 l 1
 172 -46 l 1xd0
 300 -46 l 1
 300 -161 l 1
 44 -161 l 1xe0
EndSplineSet
EndChar

StartChar: backslash
Encoding: 92 92 115
Width: 442
GlyphClass: 1
Flags: W
HStem: 0 21G<268.186 427> 648 20G<15 175.754>
LayerCount: 2
Fore
SplineSet
276 0 m 1
 15 668 l 1
 168 668 l 1
 427 0 l 1
 276 0 l 1
EndSplineSet
EndChar

StartChar: bracketright
Encoding: 93 93 116
Width: 333
GlyphClass: 1
Flags: W
HStem: -161 115<33 161> 552 116<33 161>
VStem: 33 256<-161 -46 552 668> 161 128<-46 552>
LayerCount: 2
Fore
SplineSet
33 -161 m 1xe0
 33 -46 l 1xe0
 161 -46 l 1
 161 552 l 1xd0
 33 552 l 1
 33 668 l 1
 289 668 l 1
 289 -161 l 1
 33 -161 l 1xe0
EndSplineSet
EndChar

StartChar: asciicircum
Encoding: 94 94 117
Width: 589
GlyphClass: 1
Flags: W
HStem: 648 20G<227.607 361.393>
LayerCount: 2
Fore
SplineSet
53 312 m 1
 238 668 l 1
 351 668 l 1
 536 312 l 1
 393 312 l 1
 295 506 l 1
 196 312 l 1
 53 312 l 1
EndSplineSet
EndChar

StartChar: underscore
Encoding: 95 95 118
Width: 430
GlyphClass: 1
Flags: W
HStem: -128 128<10 420>
LayerCount: 2
Fore
SplineSet
10 -128 m 1
 10 0 l 1
 420 0 l 1
 420 -128 l 1
 10 -128 l 1
EndSplineSet
EndChar

StartChar: grave
Encoding: 96 96 119
Width: 314
GlyphClass: 1
Flags: W
HStem: 574 154<119.028 152.719>
VStem: 53 208
LayerCount: 2
Fore
SplineSet
53 671 m 0
 53 702 78 728 109 728 c 0
 126 728 140 722 151 709 c 2
 261 574 l 1
 147 574 l 1
 77 626 77 626 72 629 c 0
 59 642 53 656 53 671 c 0
EndSplineSet
EndChar

StartChar: exclam
Encoding: 33 33 120
Width: 283
GlyphClass: 1
Flags: W
HStem: -12 195<81.5485 202.068> 648 20G<44 238>
VStem: 44 194<453 668> 44 195<25.5485 146.068>
LayerCount: 2
Fore
SplineSet
85 243 m 1xe0
 44 495 l 1
 44 668 l 1
 238 668 l 1
 238 495 l 1
 196 243 l 1
 85 243 l 1xe0
EndSplineSet
Refer: 133 46 S 1 0 0 1 20 0 2
EndChar

StartChar: quotedbl
Encoding: 34 34 121
Width: 410
GlyphClass: 1
Flags: W
HStem: 434 234<54 168 243 356>
VStem: 54 114<434 551> 243 113<434 543.2>
LayerCount: 2
Fore
SplineSet
243 434 m 1
 228 668 l 1
 370 668 l 1
 356 434 l 1
 243 434 l 1
EndSplineSet
Refer: 126 39 S 1 0 0 1 0 0 2
EndChar

StartChar: numbersign
Encoding: 35 35 122
Width: 783
GlyphClass: 1
Flags: W
HStem: 0 21G<134 277.835 411 554.835> 127 140<44 152 313 429 591 699> 401 140<84 192 352 469 630 738> 648 20G<228.008 371 505.008 649>
LayerCount: 2
Fore
SplineSet
313 267 m 1
 450 267 l 1
 469 401 l 1
 332 401 l 1
 313 267 l 1
134 0 m 1
 152 127 l 1
 24 127 l 1
 44 266 l 1
 172 266 l 1
 192 401 l 1
 64 401 l 1
 84 541 l 1
 212 541 l 1
 231 668 l 1
 371 668 l 1
 352 541 l 1
 489 541 l 1
 508 668 l 1
 649 668 l 1
 630 541 l 1
 759 541 l 1
 738 402 l 1
 610 402 l 1
 591 267 l 1
 719 267 l 1
 699 127 l 1
 570 127 l 1
 552 0 l 1
 411 0 l 1
 429 127 l 1
 293 127 l 1
 275 0 l 1
 134 0 l 1
EndSplineSet
EndChar

StartChar: dollar
Encoding: 36 36 123
Width: 619
GlyphClass: 1
Flags: W
HStem: -11 128<222.685 272 345 404.918> 552 126<213.393 272>
VStem: 28 162<446.219 529.325> 272 73<-87 -8.82843 120 261 420 548 675.855 747> 434 162<141.668 229.775>
LayerCount: 2
Fore
SplineSet
345 117 m 1
 403 124 434 149 434 189 c 0
 434 222 406 245 345 261 c 1
 345 117 l 1
272 552 m 1
 221 546 190 522 190 489 c 0
 190 454 220 429 272 420 c 1
 272 552 l 1
596 209 m 0
 596 92 494 3 345 -11 c 1
 345 -87 l 1
 272 -87 l 1
 272 -10 l 1
 149 1 63 60 25 157 c 1
 169 209 l 1
 183 161 217 131 272 120 c 1
 272 277 l 1
 231 286 l 2
 93 317 28 377 28 474 c 0
 28 584 126 666 272 678 c 1
 272 747 l 1
 345 747 l 1
 345 678 l 1
 454 669 533 619 567 535 c 1
 424 483 l 1
 411 516 385 537 345 548 c 1
 345 405 l 1
 356 403 l 1
 521 375 596 314 596 209 c 0
EndSplineSet
EndChar

StartChar: percent
Encoding: 37 37 124
Width: 977
GlyphClass: 1
Flags: W
HStem: -12 119<701.675 810.325> 0 21G<192 332.012> 264 118<701.868 810.309> 286 118<167.107 275.325> 561 119<167.107 275.325> 648 20G<645.018 786>
VStem: 24 119<428.146 536.364> 300 118<428.146 536.364> 559 118<131.636 236.824> 835 118<131.636 236.824>
LayerCount: 2
Fore
SplineSet
677 186 m 0xa3c0
 677 142 712 107 756 107 c 0
 800 107 835 142 835 186 c 0
 835 229 799 264 756 264 c 0
 713 264 677 229 677 186 c 0xa3c0
953 186 m 0
 953 77 865 -12 756 -12 c 0
 647 -12 559 77 559 186 c 0
 559 295 647 382 756 382 c 0
 866 382 953 295 953 186 c 0
143 482 m 0
 143 439 178 404 221 404 c 0
 265 404 300 439 300 482 c 0
 300 526 265 561 221 561 c 0x1bc0
 178 561 143 526 143 482 c 0
192 0 m 1x47c0
 659 668 l 1
 786 668 l 1
 318 0 l 1
 192 0 l 1x47c0
418 482 m 0
 418 373 330 286 221 286 c 0
 112 286 24 373 24 482 c 0
 24 591 112 680 221 680 c 0x1bc0
 330 680 418 591 418 482 c 0
EndSplineSet
EndChar

StartChar: ampersand
Encoding: 38 38 125
Width: 702
GlyphClass: 1
Flags: W
HStem: -13 125<216.572 368.607> 0 21G<504.642 698> 592 114<273.421 376.462>
VStem: 24 159<144.295 250.125> 121 139<480.801 579.832> 394 127<475.967 574.223> 546 127<313.891 389>
LayerCount: 2
Fore
SplineSet
183 197 m 0xb6
 183 149 228 112 286 112 c 0
 318 112 356 124 392 146 c 1
 266 290 l 1
 213 269 183 236 183 197 c 0xb6
323 592 m 0
 286 592 260 570 260 537 c 0x2e
 260 507 282 471 322 437 c 1
 368 461 394 494 394 528 c 0
 394 565 364 592 323 592 c 0
476 53 m 1
 406 9 335 -13 266 -13 c 0
 131 -13 24 77 24 191 c 0xb6
 24 273 82 343 182 385 c 1
 142 438 121 488 121 536 c 0
 121 635 208 706 329 706 c 0
 431 706 521 624 521 531 c 0
 521 465 476 401 395 352 c 1
 489 244 l 1
 516 286 535 334 546 389 c 1
 673 389 l 1
 658 298 621 208 573 145 c 1
 698 0 l 1
 522 0 l 1x6e
 476 53 l 1
EndSplineSet
EndChar

StartChar: quotesingle
Encoding: 39 39 126
Width: 222
GlyphClass: 1
Flags: W
HStem: 434 234<54 168>
VStem: 54 114<434 551>
LayerCount: 2
Fore
SplineSet
54 434 m 1
 40 668 l 1
 182 668 l 1
 168 434 l 1
 54 434 l 1
EndSplineSet
EndChar

StartChar: parenleft
Encoding: 40 40 127
Width: 366
GlyphClass: 1
Flags: W
HStem: -161 21G<132.5 331> 648 20G<109 289>
VStem: 35 141<116.198 454.646>
LayerCount: 2
Fore
SplineSet
176 276 m 0
 176 131 229 -18 331 -161 c 1
 180 -161 l 1
 85 -29 35 124 35 280 c 0
 35 415 73 549 145 668 c 1
 289 668 l 1
 213 554 176 424 176 276 c 0
EndSplineSet
EndChar

StartChar: parenright
Encoding: 41 41 128
Width: 366
GlyphClass: 1
Flags: W
HStem: -161 21G<35 234> 648 20G<77 257>
VStem: 190 141<115.853 455.962>
LayerCount: 2
Fore
SplineSet
331 280 m 0
 331 125 281 -28 187 -161 c 1
 35 -161 l 1
 137 -20 190 129 190 276 c 0
 190 426 153 555 77 668 c 1
 221 668 l 1
 293 551 331 417 331 280 c 0
EndSplineSet
EndChar

StartChar: asterisk
Encoding: 42 42 129
Width: 434
GlyphClass: 1
Flags: W
HStem: 351 317
VStem: 173 88<567 668>
LayerCount: 2
Fore
SplineSet
158 351 m 1
 87 402 l 1
 146 484 l 1
 50 515 l 1
 77 598 l 1
 173 567 l 1
 173 668 l 1
 261 668 l 1
 261 567 l 1
 355 598 l 1
 383 515 l 1
 288 484 l 1
 347 402 l 1
 276 351 l 1
 217 432 l 1
 158 351 l 1
EndSplineSet
EndChar

StartChar: plus
Encoding: 43 43 130
Width: 618
GlyphClass: 1
Flags: W
HStem: 0 21G<245 373> 184 128<53 245 373 565> 476 20G<245 373>
VStem: 245 128<0 184 312 496>
LayerCount: 2
Fore
SplineSet
245 0 m 1
 245 184 l 1
 53 184 l 1
 53 312 l 1
 245 312 l 1
 245 496 l 1
 373 496 l 1
 373 312 l 1
 565 312 l 1
 565 184 l 1
 373 184 l 1
 373 0 l 1
 245 0 l 1
EndSplineSet
EndChar

StartChar: comma
Encoding: 44 44 131
Width: 243
GlyphClass: 1
Flags: W
HStem: -146 329<99.595 136>
VStem: 24 195<25.75 145.875>
LayerCount: 2
Fore
SplineSet
122 183 m 0
 176 183 219 140 219 85 c 0
 219 73 217 61 213 50 c 2
 136 -146 l 1
 46 -146 l 1
 99 -9 l 1
 55 2 24 41 24 86 c 0
 24 140 67 183 122 183 c 0
EndSplineSet
EndChar

StartChar: hyphen
Encoding: 45 45 132
Width: 374
GlyphClass: 1
Flags: W
HStem: 184 129<24 350>
VStem: 24 326<184 313>
LayerCount: 2
Fore
SplineSet
24 184 m 1
 24 313 l 1
 350 313 l 1
 350 184 l 1
 24 184 l 1
EndSplineSet
EndChar

StartChar: period
Encoding: 46 46 133
Width: 243
GlyphClass: 1
Flags: W
HStem: -12 195<61.5485 182.068>
VStem: 24 195<25.5485 146.068>
LayerCount: 2
Fore
SplineSet
219 86 m 0
 219 32 176 -12 122 -12 c 0
 68 -12 24 32 24 86 c 0
 24 140 67 183 122 183 c 0
 177 183 219 141 219 86 c 0
EndSplineSet
EndChar

StartChar: slash
Encoding: 47 47 134
Width: 442
GlyphClass: 1
Flags: W
HStem: 0 21G<15 175.754> 648 20G<268.186 427>
LayerCount: 2
Fore
SplineSet
15 0 m 1
 276 668 l 1
 427 668 l 1
 168 0 l 1
 15 0 l 1
EndSplineSet
EndChar

StartChar: braceleft
Encoding: 123 123 135
Width: 370
GlyphClass: 1
Flags: W
HStem: -161 120<243.248 336> 193 123<24 78.875> 548 120<243.248 336>
VStem: 94 144<-33.615 177.525 329.893 541.321>
LayerCount: 2
Fore
SplineSet
238 3 m 2
 238 -30 255 -41 303 -41 c 2
 336 -41 l 1
 336 -161 l 1
 285 -161 l 2
 149 -161 94 -114 94 2 c 2
 94 97 l 2
 94 170 77 193 24 193 c 1
 24 316 l 1
 77 316 94 339 94 410 c 2
 94 506 l 2
 94 621 149 668 285 668 c 2
 336 668 l 1
 336 548 l 1
 303 548 l 2
 255 548 238 537 238 504 c 2
 238 381 l 2
 238 312 209 274 144 256 c 1
 144 253 l 1
 208 238 238 198 238 128 c 2
 238 3 l 2
EndSplineSet
EndChar

StartChar: bar
Encoding: 124 124 136
Width: 234
GlyphClass: 1
Flags: W
HStem: -161 21G<44 190> 648 20G<44 190>
VStem: 44 146<-161 668>
LayerCount: 2
Fore
SplineSet
44 -161 m 1
 44 668 l 1
 190 668 l 1
 190 -161 l 1
 44 -161 l 1
EndSplineSet
EndChar

StartChar: braceright
Encoding: 125 125 137
Width: 370
GlyphClass: 1
Flags: W
HStem: -161 120<34 127.752> 193 123<292 346> 548 120<34 127.752>
VStem: 133 144<-33.615 177.799 330.064 541.582>
LayerCount: 2
Fore
SplineSet
277 2 m 2
 277 -114 222 -161 86 -161 c 2
 34 -161 l 1
 34 -41 l 1
 68 -41 l 2
 117 -41 133 -30 133 3 c 2
 133 128 l 2
 133 199 161 237 226 253 c 1
 226 256 l 1
 160 275 133 312 133 381 c 2
 133 504 l 2
 133 537 117 548 68 548 c 2
 34 548 l 1
 34 668 l 1
 86 668 l 2
 222 668 277 622 277 506 c 2
 277 410 l 2
 277 339 294 316 346 316 c 1
 346 193 l 1
 294 193 277 169 277 97 c 2
 277 2 l 2
EndSplineSet
EndChar

StartChar: asciitilde
Encoding: 126 126 138
Width: 533
GlyphClass: 1
Flags: W
HStem: 167 123<287.355 379.161> 227 123<152.625 246.628>
LayerCount: 2
Fore
SplineSet
493 333 m 1x80
 486 218 445 167 359 167 c 0x80
 287 167 258 227 186 227 c 0
 157 227 145 206 145 158 c 2
 145 146 l 1
 40 184 l 1
 47 298 90 350 176 350 c 0x40
 246 350 277 290 347 290 c 0
 374 290 387 312 387 355 c 2
 387 370 l 1
 493 333 l 1x80
EndSplineSet
EndChar

StartChar: exclamdown
Encoding: 286 161 139
Width: 283
GlyphClass: 1
Flags: W
HStem: -161 21G<45 238> 325 194<81.1255 202.068>
VStem: 45 193<-161 49.0244 359.943 483.701>
LayerCount: 2
Fore
SplineSet
45 -161 m 1
 45 12 l 1
 86 265 l 1
 197 265 l 1
 238 12 l 1
 238 -161 l 1
 45 -161 l 1
239 421 m 0
 239 367 196 325 142 325 c 0
 88 325 44 368 44 421 c 0
 44 476 87 519 142 519 c 0
 196 519 239 476 239 421 c 0
EndSplineSet
EndChar

StartChar: cent
Encoding: 287 162 140
Width: 520
GlyphClass: 1
Flags: W
VStem: 24 155<154.807 343.992> 244 73<-87 -8.48712 115 383 505.463 571>
LayerCount: 2
Fore
SplineSet
244 383 m 1
 201 363 179 318 179 250 c 0
 179 181 202 134 244 115 c 1
 244 383 l 1
500 107 m 1
 464 42 400 1 317 -10 c 1
 317 -87 l 1
 244 -87 l 1
 244 -11 l 1
 105 3 24 100 24 251 c 0
 24 393 110 494 244 508 c 1
 244 571 l 1
 317 571 l 1
 317 507 l 1
 404 496 468 452 502 379 c 1
 375 334 l 1
 364 363 344 381 318 388 c 1
 318 109 l 1
 344 115 363 129 376 152 c 1
 500 107 l 1
EndSplineSet
EndChar

StartChar: sterling
Encoding: 163 163 141
Width: 617
GlyphClass: 1
Flags: W
HStem: -12 125<328.455 555.072> 24 110<226.876 352.519> 295 73<50 125 324 450> 558 121<265.523 413.047>
VStem: 82 160<418.208 533.984> 173 158<189.836 294.436>
LayerCount: 2
Fore
SplineSet
240 24 m 0x74
 192 24 149 13 105 -12 c 1
 50 104 l 1
 140 148 173 187 173 251 c 0xb4
 173 267 170 282 163 295 c 1
 50 295 l 1
 50 368 l 1
 125 368 l 1
 93 430 82 464 82 503 c 0
 82 610 181 679 334 679 c 0
 453 679 547 625 585 536 c 1
 449 486 l 1
 436 531 394 558 336 558 c 0
 279 558 242 531 242 490 c 0xb8
 242 468 247 447 258 428 c 0
 267 412 275 397 290 368 c 1
 450 368 l 1
 450 295 l 1
 324 295 l 1
 329 284 331 271 331 255 c 0
 331 206 295 158 226 115 c 1
 250 128 275 134 310 134 c 0x74
 370 134 393 113 453 113 c 0
 488 113 521 123 556 144 c 1
 600 23 l 1
 552 -1 502 -12 440 -12 c 0xb4
 363 -12 317 24 240 24 c 0x74
EndSplineSet
EndChar

StartChar: currency
Encoding: 288 164 142
Width: 596
GlyphClass: 1
Flags: W
HStem: 102 119<236.762 359.238> 419 120<235.995 359.83>
VStem: 79 120<259.125 381.839> 397 119<258.752 381.628>
LayerCount: 2
Fore
SplineSet
199 321 m 0
 199 266 243 221 298 221 c 0
 353 221 397 266 397 321 c 0
 397 376 353 419 298 419 c 0
 243 419 199 376 199 321 c 0
516 321 m 0
 516 275 502 231 476 194 c 1
 543 127 l 1
 491 75 l 1
 424 142 l 1
 387 115 346 102 298 102 c 0
 250 102 209 115 172 142 c 1
 105 75 l 1
 53 127 l 1
 120 194 l 1
 93 232 79 276 79 321 c 0
 79 365 93 408 120 446 c 1
 53 513 l 1
 105 565 l 1
 172 498 l 1
 208 525 252 539 298 539 c 0
 344 539 387 525 424 498 c 1
 491 565 l 1
 543 513 l 1
 476 446 l 1
 503 409 516 368 516 321 c 0
EndSplineSet
EndChar

StartChar: yen
Encoding: 289 165 143
Width: 687
GlyphClass: 1
Flags: W
HStem: 0 21G<265 422> 75 74<136 265 422 552> 212 74<136 249 438 552> 647 20G<10 205.641 480.359 677>
VStem: 265 157<0 75 149 212>
LayerCount: 2
Fore
SplineSet
265 0 m 1
 265 75 l 1
 136 75 l 1
 136 149 l 1
 265 149 l 1
 265 212 l 1
 136 212 l 1
 136 286 l 1
 249 286 l 1
 10 667 l 1
 194 667 l 1
 343 411 l 1
 492 667 l 1
 677 667 l 1
 438 286 l 1
 552 286 l 1
 552 212 l 1
 422 212 l 1
 422 149 l 1
 552 149 l 1
 552 75 l 1
 422 75 l 1
 422 0 l 1
 265 0 l 1
EndSplineSet
EndChar

StartChar: brokenbar
Encoding: 166 166 144
Width: 216
GlyphClass: 1
Flags: W
HStem: -161 21G<44 172> 648 20G<44 172>
VStem: 44 128<-161 150 358 668>
LayerCount: 2
Fore
SplineSet
44 -161 m 1
 44 150 l 1
 172 150 l 1
 172 -161 l 1
 44 -161 l 1
44 358 m 1
 44 668 l 1
 172 668 l 1
 172 358 l 1
 44 358 l 1
EndSplineSet
EndChar

StartChar: section
Encoding: 167 167 145
Width: 578
GlyphClass: 1
Flags: W
HStem: -173 117<221.108 338.765> 565 115<222.803 344.097>
VStem: 21 149<271.321 340.538> 68 149<497.668 556.865> 351 151<-43.1759 36.5637> 398 153<195.187 266.551>
LayerCount: 2
Fore
SplineSet
356 184 m 1xe4
 385 197 398 211 398 230 c 0
 398 255 381 270 321 298 c 1
 211 352 l 1
 184 339 170 324 170 307 c 0
 170 285 185 270 231 246 c 1
 356 184 l 1xe4
502 5 m 0xc8
 502 -101 411 -173 277 -173 c 0
 172 -173 96 -124 64 -35 c 1
 194 12 l 1
 206 -32 236 -56 281 -56 c 0
 324 -56 351 -37 351 -7 c 0
 351 22 329 45 277 69 c 1
 162 125 l 2
 66 171 21 225 21 295 c 0xe8
 21 342 52 388 107 421 c 1
 81 454 68 490 68 527 c 0
 68 618 154 680 282 680 c 0
 383 680 455 641 489 568 c 1
 359 521 l 1
 346 551 321 565 281 565 c 0
 241 565 217 552 217 531 c 0
 217 512 234 496 278 474 c 2
 400 414 l 2
 509 361 551 315 551 248 c 0xd4
 551 194 518 147 458 114 c 1
 487 83 502 46 502 5 c 0xc8
EndSplineSet
EndChar

StartChar: dieresis
Encoding: 168 168 146
Width: 452
GlyphClass: 1
Flags: W
HStem: 578 141<79.875 179.625 273.875 374.271>
VStem: 59 141<598.375 698.125> 253 140<598.375 698.125>
LayerCount: 2
Fore
SplineSet
393 648 m 0
 393 609 363 578 324 578 c 0
 285 578 253 609 253 648 c 0
 253 687 285 719 324 719 c 0
 363 719 393 688 393 648 c 0
EndSplineSet
Refer: 70 729 S 1 0 0 1 29 0 2
EndChar

StartChar: copyright
Encoding: 169 169 147
Width: 798
GlyphClass: 1
Flags: W
HStem: -12 69<293.257 503.574> 145 85<355.695 463.998> 437 85<356.474 458.648> 610 69<293.468 503.574>
VStem: 53 70<228.658 438.821> 218 112<257.529 410.883> 675 70<228.658 439.032>
LayerCount: 2
Fore
SplineSet
563 231 m 1
 531 176 473 145 401 145 c 0
 287 145 218 216 218 334 c 0
 218 446 292 522 401 522 c 0
 478 522 535 489 564 428 c 1
 472 394 l 1
 461 422 439 437 407 437 c 0
 359 437 330 398 330 334 c 0
 330 269 359 230 407 230 c 0
 438 230 460 241 473 264 c 1
 563 231 l 1
123 334 m 0
 123 181 246 57 398 57 c 0
 551 57 675 181 675 334 c 0
 675 487 551 610 398 610 c 0
 247 610 123 486 123 334 c 0
745 334 m 0
 745 143 590 -12 398 -12 c 0
 208 -12 53 143 53 334 c 0
 53 524 208 679 398 679 c 0
 590 679 745 524 745 334 c 0
EndSplineSet
EndChar

StartChar: questiondown
Encoding: 290 191 148
Width: 614
GlyphClass: 1
Flags: W
HStem: -172 122<228.138 394.844> 324 195<289.932 410.491>
VStem: 50 156<-29.1378 43.692> 253 194<360.932 481.875>
LayerCount: 2
Fore
SplineSet
574 -28 m 1
 537 -120 440 -172 305 -172 c 0
 152 -172 50 -104 50 -1 c 0
 50 177 260 144 273 255 c 1
 274 265 l 1
 428 265 l 1
 428 253 l 1
 426 167 398 129 299 81 c 0
 214 40 206 34 206 7 c 0
 206 -27 248 -50 311 -50 c 0
 376 -50 421 -24 437 22 c 1
 574 -28 l 1
447 421 m 0
 447 366 405 324 350 324 c 0
 296 324 253 367 253 421 c 0
 253 476 296 519 350 519 c 0
 405 519 447 476 447 421 c 0
EndSplineSet
EndChar

StartChar: germandbls
Encoding: 291 223 149
Width: 621
GlyphClass: 1
Flags: W
HStem: -12 126<319.234 411.326> 0 21G<44 197> 298 117<278 387.859> 556 124<231.54 389.682>
VStem: 44 153<0 519.623> 410 147<436.286 534.818> 443 156<143.797 260.374>
LayerCount: 2
Fore
SplineSet
504 370 m 1x7c
 565 338 599 279 599 204 c 0
 599 67 510 -12 357 -12 c 2
 338 -12 l 2
 329 -12 324 -12 319 -11 c 1
 278 123 l 1
 300 117 322 114 345 114 c 0
 402 114 443 149 443 198 c 0xba
 443 264 398 298 309 298 c 2
 278 298 l 1
 278 415 l 1
 304 415 l 2
 375 415 410 439 410 486 c 0
 410 531 376 556 315 556 c 0
 227 556 197 522 197 424 c 2
 197 0 l 1
 44 0 l 1
 44 435 l 2
 44 602 130 680 319 680 c 0
 466 680 557 608 557 493 c 0
 557 445 537 398 504 370 c 1x7c
EndSplineSet
EndChar

StartChar: AE
Encoding: 292 198 150
Width: 1016
GlyphClass: 1
Flags: W
HStem: 0 139<639 994> 119 128<341 481> 275 138<639 857> 528 139<639 994>
AnchorPoint: "Anchor-0" 698 668 basechar 0
LayerCount: 2
Fore
SplineSet
341 247 m 1x70
 481 247 l 1
 481 453 l 1
 341 247 l 1x70
5 0 m 1xb0
 481 667 l 1
 994 667 l 1
 994 528 l 1
 639 528 l 1
 639 413 l 1
 857 413 l 1
 857 275 l 1
 639 275 l 1
 639 139 l 1
 994 139 l 1
 994 0 l 1
 481 0 l 1xb0
 481 119 l 1
 257 119 l 1x70
 177 0 l 1
 5 0 l 1xb0
EndSplineSet
EndChar

StartChar: florin
Encoding: 293 402 151
Width: 377
GlyphClass: 1
Flags: W
HStem: -174 141<16.1188 143.5> 381 115<15 97 249 357> 608 121<256.799 357>
VStem: 97 152<-25.6034 381 496 602.73>
LayerCount: 2
Fore
SplineSet
249 -16 m 2
 249 -120 195 -174 92 -174 c 0
 71 -174 44 -170 15 -164 c 1
 15 -31 l 1
 34 -33 38 -33 45 -33 c 0
 83 -33 97 -14 97 39 c 2
 97 381 l 1
 15 381 l 1
 15 496 l 1
 97 496 l 1
 97 578 l 2
 97 689 148 729 288 729 c 2
 357 729 l 1
 357 608 l 1
 315 608 l 2
 261 608 249 600 249 564 c 2
 249 496 l 1
 357 496 l 1
 357 381 l 1
 249 381 l 1
 249 -16 l 2
EndSplineSet
EndChar

StartChar: integral
Encoding: 294 8747 152
Width: 486
GlyphClass: 1
Flags: W
HStem: -174 144<81.896 142.003> 536 144<344.613 408.692>
VStem: 41 113<-104.588 -42.2739> 172 135<208.004 559.279> 180 135<-53.2795 297.996> 333 112<548.274 610.105>
LayerCount: 2
Fore
SplineSet
315 118 m 2xec
 315 107 l 2
 315 -81 257 -174 141 -174 c 0
 92 -174 41 -128 41 -84 c 0
 42 -54 67 -30 97 -30 c 0
 129 -30 154 -55 154 -86 c 0
 154 -93 153 -99 151 -105 c 1
 172 -95 180 -65 180 2 c 0xec
 180 85 172 305 172 388 c 2
 172 399 l 2
 172 587 230 680 346 680 c 0
 400 680 445 639 445 590 c 0
 444 560 419 536 389 536 c 0
 357 536 333 560 333 592 c 0
 333 599 334 605 336 611 c 1
 317 602 307 566 307 504 c 0xf4
 307 421 315 201 315 118 c 2xec
EndSplineSet
EndChar

StartChar: approxequal
Encoding: 295 8776 153
Width: 532
GlyphClass: 1
Flags: W
HStem: 59 123<285.805 378.515> 118 125<152.343 244.721> 257 123<287.048 378.415> 317 124<152.216 244.721>
VStem: 41 104<92.4423 113.471 291.442 312.13> 387 104<187.705 208.558 385.705 406.49>
LayerCount: 2
Fore
SplineSet
41 95 m 1x4c
 52 197 94 243 175 243 c 0x4c
 245 243 277 182 347 182 c 0
 373 182 386 202 387 244 c 1
 491 206 l 1
 481 105 440 59 359 59 c 0x8c
 287 59 257 118 185 118 c 0
 158 118 146 100 145 57 c 1
 41 95 l 1x4c
185 317 m 0x1c
 158 317 146 299 145 256 c 1
 41 294 l 1
 51 394 93 441 175 441 c 0x1c
 245 441 277 380 347 380 c 0x2c
 373 380 386 400 387 441 c 1x1c
 491 404 l 1
 481 303 439 257 359 257 c 0x2c
 287 257 257 317 185 317 c 0x1c
EndSplineSet
EndChar

StartChar: notequal
Encoding: 296 8800 154
Width: 594
GlyphClass: 1
Flags: W
HStem: 0 21G<47 214.167> 96 129<41 114 357 553> 283 127<41 245 487 553> 475 20G<380.118 547>
LayerCount: 2
Fore
SplineSet
47 0 m 1
 114 96 l 1
 41 96 l 1
 41 225 l 1
 204 225 l 1
 245 283 l 1
 41 283 l 1
 41 410 l 1
 335 410 l 1
 394 495 l 1
 547 495 l 1
 487 410 l 1
 553 410 l 1
 553 283 l 1
 397 283 l 1
 357 225 l 1
 553 225 l 1
 553 96 l 1
 268 96 l 1
 200 0 l 1
 47 0 l 1
EndSplineSet
EndChar

StartChar: lessequal
Encoding: 297 8804 155
Width: 594
GlyphClass: 1
Flags: W
HStem: 0 128<41 553> 490 20G<470.419 553>
LayerCount: 2
Fore
SplineSet
553 136 m 1
 41 260 l 1
 41 386 l 1
 553 510 l 1
 553 381 l 1
 216 324 l 1
 553 265 l 1
 553 136 l 1
EndSplineSet
Refer: 159 8722 S 1 0 0 1 0 -184 2
EndChar

StartChar: greaterequal
Encoding: 298 8805 156
Width: 594
GlyphClass: 1
Flags: W
HStem: 0 128<41 553> 490 20G<41 123.581>
LayerCount: 2
Fore
SplineSet
41 136 m 1
 41 265 l 1
 378 324 l 1
 41 381 l 1
 41 510 l 1
 553 386 l 1
 553 260 l 1
 41 136 l 1
EndSplineSet
Refer: 159 8722 S 1 0 0 1 0 -184 2
EndChar

StartChar: lozenge
Encoding: 299 9674 157
Width: 607
GlyphClass: 1
Flags: W
LayerCount: 2
Fore
SplineSet
304 124 m 1
 428 313 l 1
 304 502 l 1
 179 313 l 1
 304 124 l 1
304 -91 m 1
 41 313 l 1
 304 716 l 1
 566 313 l 1
 304 -91 l 1
EndSplineSet
EndChar

StartChar: summation
Encoding: 300 8721 158
Width: 617
GlyphClass: 1
Flags: W
HStem: -162 128<211 576> 540 128<211 576>
LayerCount: 2
Fore
SplineSet
41 -162 m 1
 41 -34 l 1
 278 254 l 1
 41 540 l 1
 41 668 l 1
 576 668 l 1
 576 540 l 1
 211 540 l 1
 450 254 l 1
 211 -34 l 1
 576 -34 l 1
 576 -162 l 1
 41 -162 l 1
EndSplineSet
EndChar

StartChar: minus
Encoding: 301 8722 159
Width: 594
GlyphClass: 1
Flags: W
HStem: 184 128<41 553>
LayerCount: 2
Fore
SplineSet
41 184 m 1
 41 312 l 1
 553 312 l 1
 553 184 l 1
 41 184 l 1
EndSplineSet
EndChar

StartChar: uni2215
Encoding: 302 8725 160
Width: 651
GlyphClass: 1
Flags: W
HStem: 0 21G<15 182.012> 648 20G<468.988 636>
LayerCount: 2
Fore
SplineSet
15 0 m 1
 483 668 l 1
 636 668 l 1
 168 0 l 1
 15 0 l 1
EndSplineSet
EndChar

StartChar: uni2219
Encoding: 303 8729 161
Width: 277
GlyphClass: 1
Flags: W
HStem: 157 194<78.5485 199.068>
VStem: 41 195<194.548 314.684>
LayerCount: 2
Fore
SplineSet
236 255 m 0
 236 201 193 157 139 157 c 0
 85 157 41 201 41 255 c 0
 41 309 84 351 139 351 c 0
 194 351 236 309 236 255 c 0
EndSplineSet
EndChar

StartChar: radical
Encoding: 304 8730 162
Width: 709
GlyphClass: 1
Flags: W
HStem: -162 21G<284.373 454.277> 93 132<41 183> 648 20G<518.679 668>
VStem: 524 144<524 668>
LayerCount: 2
Fore
SplineSet
293 -162 m 1
 183 93 l 1
 41 93 l 1
 41 225 l 1
 274 225 l 1
 354 29 l 1
 524 668 l 1
 668 668 l 1
 449 -162 l 1
 293 -162 l 1
EndSplineSet
EndChar

StartChar: infinity
Encoding: 305 8734 163
Width: 749
GlyphClass: 1
Flags: W
HStem: 97 107<172.199 276.987 471.855 576.801> 306 106<171.445 278.806 471.193 578.108>
VStem: 41 120<216.424 295.016> 588 120<216.424 295.344>
LayerCount: 2
Fore
SplineSet
441 256 m 1
 470 221 498 204 529 204 c 0
 563 204 588 226 588 256 c 0
 588 286 563 306 527 306 c 0
 498 306 469 289 441 256 c 1
161 256 m 0
 161 226 186 204 220 204 c 0
 251 204 279 221 308 256 c 1
 279 290 251 306 222 306 c 0
 186 306 161 285 161 256 c 0
374 176 m 1
 322 121 274 97 213 97 c 0
 114 97 41 164 41 255 c 0
 41 344 117 412 217 412 c 0
 275 412 325 388 374 336 c 1
 424 388 474 412 532 412 c 0
 633 412 708 345 708 255 c 0
 708 164 635 97 536 97 c 0
 475 97 426 121 374 176 c 1
EndSplineSet
EndChar

StartChar: uni03A9
Encoding: 217 937 164
Width: 656
GlyphClass: 1
Flags: W
HStem: 0 115<35 172 484 621> 564 116<246.646 409.016>
VStem: 35 121<312.27 474.046> 353 268<0 115> 499 122<309.628 474.046>
LayerCount: 2
Fore
SplineSet
156 392 m 0xe8
 156 308 219 235 303 223 c 1
 303 0 l 1
 35 0 l 1
 35 115 l 1
 172 115 l 1
 172 139 l 1
 87 193 35 287 35 386 c 0
 35 549 166 680 328 680 c 0
 490 680 621 549 621 386 c 0xe8
 621 286 569 193 484 139 c 1
 484 115 l 1
 621 115 l 1
 621 0 l 1
 353 0 l 1
 353 223 l 1xf0
 437 235 499 307 499 392 c 0
 499 488 423 564 328 564 c 0
 232 564 156 488 156 392 c 0xe8
EndSplineSet
EndChar

StartChar: estimated
Encoding: 306 8494 165
Width: 604
GlyphClass: 1
Flags: W
HStem: -12 70<213.623 388.8> 249 66<178 426> 440 70<213.623 388.988>
VStem: 41 137<147.047 249 315 350.531>
LayerCount: 2
Fore
SplineSet
303 440 m 0
 256 440 212 424 178 394 c 1
 178 315 l 1
 426 315 l 1
 426 394 l 1
 391 425 350 440 303 440 c 0
518 103 m 1
 469 31 389 -12 303 -12 c 0
 158 -12 41 104 41 249 c 0
 41 393 158 510 303 510 c 0
 447 510 563 393 563 249 c 1
 178 249 l 1
 178 104 l 1
 212 74 256 58 303 58 c 0
 360 58 414 84 450 128 c 1
 518 103 l 1
EndSplineSet
EndChar

StartChar: partialdiff
Encoding: 307 8706 166
Width: 597
GlyphClass: 1
Flags: W
HStem: -16 123<234.21 358.165> 315 120<233.672 359.05> 561 119<172 328.034>
VStem: 41 151<148.867 274.608> 399 157<165.465 397.938>
LayerCount: 2
Fore
SplineSet
192 211 m 0
 192 153 238 107 296 107 c 0
 354 107 399 153 399 211 c 0
 399 270 354 315 296 315 c 0
 237 315 192 270 192 211 c 0
172 680 m 1
 444 680 556 573 556 315 c 0
 556 106 459 -16 292 -16 c 0
 152 -16 41 85 41 212 c 0
 41 336 140 435 265 435 c 0
 339 435 403 406 442 356 c 1
 433 495 358 561 207 561 c 0
 189 561 181 561 172 560 c 1
 172 680 l 1
EndSplineSet
EndChar

StartChar: uni0394
Encoding: 196 916 167
Width: 643
GlyphClass: 1
Flags: W
HStem: 0 115<193 449> 660 20G<311.706 330.324>
LayerCount: 2
Fore
SplineSet
193 115 m 1
 449 115 l 1
 321 418 l 1
 193 115 l 1
5 0 m 1
 321 680 l 1
 638 0 l 1
 5 0 l 1
EndSplineSet
EndChar

StartChar: product
Encoding: 308 8719 168
Width: 614
GlyphClass: 1
Flags: W
HStem: -161 21G<41 169 445 573> 552 116<169 445>
VStem: 41 128<-161 552> 445 128<-161 552>
LayerCount: 2
Fore
SplineSet
41 -161 m 1
 41 668 l 1
 573 668 l 1
 573 -161 l 1
 445 -161 l 1
 445 552 l 1
 169 552 l 1
 169 -161 l 1
 41 -161 l 1
EndSplineSet
EndChar

StartChar: pi
Encoding: 240 960 169
Width: 626
GlyphClass: 1
Flags: W
HStem: 0 105<518.994 602> 380 116<13 104 232 386 514 602>
VStem: 104 128<0 380> 386 128<109.479 380>
LayerCount: 2
Fore
SplineSet
524 0 m 2
 416 0 386 25 386 118 c 2
 386 380 l 1
 232 380 l 1
 232 0 l 1
 104 0 l 1
 104 380 l 1
 13 380 l 1
 13 496 l 1
 602 496 l 1
 602 380 l 1
 514 380 l 1
 514 151 l 2
 514 115 526 105 569 105 c 2
 602 105 l 1
 602 0 l 1
 524 0 l 2
EndSplineSet
EndChar

StartChar: hungarumlaut
Encoding: 309 733 170
Width: 490
GlyphClass: 1
Flags: W
HStem: 574 153<146.003 151 349.003 354>
LayerCount: 2
Fore
SplineSet
392 727 m 0
 424 727 448 703 448 671 c 0
 448 653 442 638 429 629 c 2
 354 574 l 1
 240 574 l 1
 349 707 l 2
 360 720 375 727 392 727 c 0
189 727 m 0
 221 727 245 703 245 671 c 0
 245 653 239 638 226 629 c 2
 151 574 l 1
 37 574 l 1
 146 707 l 2
 157 720 172 727 189 727 c 0
EndSplineSet
EndChar

StartChar: tilde
Encoding: 310 732 171
Width: 444
GlyphClass: 1
Flags: W
HStem: 569 79<226.99 326.122> 607 82<130.697 225.378>
LayerCount: 2
Fore
SplineSet
407 649 m 0x40
 407 610 350 569 295 569 c 0x80
 241 569 223 607 169 607 c 0
 146 607 130 594 126 574 c 1
 37 574 l 1
 49 649 93 689 162 689 c 0x40
 221 689 227 648 286 648 c 0x80
 323 648 328 689 365 689 c 0
 390 689 407 673 407 649 c 0x40
EndSplineSet
EndChar

StartChar: endash
Encoding: 311 8211 172
Width: 508
GlyphClass: 1
Flags: W
HStem: 185 128<41 467>
LayerCount: 2
Fore
SplineSet
41 185 m 1
 41 313 l 1
 467 313 l 1
 467 185 l 1
 41 185 l 1
EndSplineSet
EndChar

StartChar: emdash
Encoding: 312 8212 173
Width: 842
GlyphClass: 1
Flags: W
HStem: 185 128<41 801>
LayerCount: 2
Fore
SplineSet
41 185 m 1
 41 313 l 1
 801 313 l 1
 801 185 l 1
 41 185 l 1
EndSplineSet
EndChar

StartChar: trademark
Encoding: 313 8482 174
Width: 935
GlyphClass: 1
Flags: W
HStem: 301 367<162 271 415 522 787 894> 575 93<41 162 271 391>
VStem: 162 109<301 575> 415 107<301 558> 787 107<301 558>
LayerCount: 2
Fore
SplineSet
162 301 m 1xb8
 162 575 l 1
 41 575 l 1
 41 668 l 1
 391 668 l 1
 391 575 l 1
 271 575 l 1x78
 271 301 l 1
 162 301 l 1xb8
415 301 m 1xb8
 415 668 l 1xb8
 588 668 l 1
 654 432 l 1
 721 668 l 1x78
 894 668 l 1
 894 301 l 1
 787 301 l 1
 787 558 l 1
 703 301 l 1
 606 301 l 1
 522 558 l 1
 522 301 l 1
 415 301 l 1xb8
EndSplineSet
EndChar

StartChar: uni2113
Encoding: 314 8467 175
Width: 504
GlyphClass: 1
Flags: W
HStem: -12 122<272.841 385.026> 573 107<266.552 331.884>
VStem: 106 151<125.274 157 265 279.454 373 566.84> 339 124<443.896 569.158>
LayerCount: 2
Fore
SplineSet
299 573 m 0
 270 573 257 551 257 501 c 2
 257 373 l 1
 311 414 339 463 339 521 c 0
 339 556 326 573 299 573 c 0
455 52 m 1
 410 11 349 -12 285 -12 c 0
 174 -12 113 41 106 144 c 1
 106 157 l 1
 41 112 l 1
 41 218 l 1
 106 265 l 1
 106 452 l 2
 106 603 170 680 297 680 c 0
 402 680 463 625 463 532 c 0
 463 442 412 376 257 264 c 1
 257 191 l 2
 257 135 276 110 319 110 c 0
 345 110 373 121 398 141 c 1
 455 52 l 1
EndSplineSet
EndChar

StartChar: Lslash
Encoding: 315 321 176
Width: 586
GlyphClass: 1
Flags: W
HStem: 0 139<251 571> 648 20G<93 251>
VStem: 93 158<139 226 441 668>
LayerCount: 2
Fore
SplineSet
93 0 m 1
 93 226 l 1
 13 178 l 1
 13 300 l 1
 93 347 l 1
 93 668 l 1
 251 668 l 1
 251 441 l 1
 411 538 l 1
 411 416 l 1
 251 321 l 1
 251 139 l 1
 571 139 l 1
 571 0 l 1
 93 0 l 1
EndSplineSet
EndChar

StartChar: lslash
Encoding: 316 322 177
Width: 322
GlyphClass: 1
Flags: W
HStem: 0 124<218.021 319> 485 20G<286.077 319> 648 20G<59 212>
VStem: 59 153<133.948 228 440 668>
LayerCount: 2
Fore
SplineSet
212 179 m 2
 212 136 226 124 277 124 c 2
 319 124 l 1
 319 0 l 1
 224 0 l 2
 95 0 59 30 59 139 c 2
 59 228 l 1
 5 195 l 1
 5 317 l 1
 59 349 l 1
 59 668 l 1
 212 668 l 1
 212 440 l 1
 319 505 l 1
 319 383 l 1
 212 319 l 1
 212 179 l 2
EndSplineSet
EndChar

StartChar: oslash
Encoding: 317 248 178
Width: 573
GlyphClass: 1
Flags: W
HStem: -12 118<224.287 351.121> 392 118<222.516 340.597>
VStem: 24 155<194.39 347.309> 394 155<153.29 315.26>
AnchorPoint: "Anchor-0" 287 496 basechar 0
LayerCount: 2
Fore
SplineSet
287 106 m 0
 357 106 394 156 394 250 c 0
 394 274 391 295 386 316 c 1
 223 126 l 1
 240 113 262 106 287 106 c 0
185 194 m 1
 342 377 l 1
 326 387 308 392 287 392 c 0
 257 392 231 381 210 360 c 0
 189 339 179 303 179 250 c 0
 179 229 181 210 185 194 c 1
549 250 m 0
 549 91 446 -12 287 -12 c 0
 233 -12 180 2 138 27 c 1
 92 -26 l 1
 36 22 l 1
 82 75 l 1
 44 121 24 181 24 250 c 0
 24 409 126 510 287 510 c 0
 337 510 385 498 427 476 c 1
 469 524 l 1
 525 476 l 1
 486 431 l 1
 528 385 549 324 549 250 c 0
EndSplineSet
EndChar

StartChar: Oslash
Encoding: 318 216 179
Width: 763
GlyphClass: 1
Flags: W
HStem: -12 130<296.636 464.841> 549 130<296.203 465.241>
VStem: 35 167<223.537 443.955> 560 168<223.465 446.053>
AnchorPoint: "Anchor-0" 382 668 basechar 0
LayerCount: 2
Fore
SplineSet
272 157 m 1
 303 131 339 118 380 118 c 0
 489 118 560 204 560 334 c 0
 560 384 551 426 532 459 c 1
 272 157 l 1
380 549 m 0
 273 549 202 463 202 334 c 0
 202 290 210 251 226 217 c 1
 483 516 l 1
 454 538 420 549 380 549 c 0
728 334 m 0
 728 127 588 -12 380 -12 c 0
 304 -12 233 8 176 46 c 1
 126 -12 l 1
 70 36 l 1
 120 95 l 1
 65 156 35 240 35 334 c 0
 35 540 174 679 380 679 c 0
 455 679 523 661 578 626 c 1
 623 679 l 1
 679 631 l 1
 635 579 l 1
 695 517 728 431 728 334 c 0
EndSplineSet
EndChar

StartChar: Thorn
Encoding: 319 222 180
Width: 615
GlyphClass: 1
Flags: W
HStem: 0 21G<44 203> 128 141<203 396.851> 425 137<203 396.48> 647 20G<44 203>
VStem: 44 159<0 128 269 425 562 667> 426 167<294.914 402.176>
LayerCount: 2
Fore
SplineSet
426 346 m 0
 426 404 392 425 296 425 c 2
 203 425 l 1
 203 269 l 1
 296 269 l 2
 391 269 426 290 426 346 c 0
593 343 m 0
 593 194 501 128 291 128 c 2
 203 128 l 1
 203 0 l 1
 44 0 l 1
 44 667 l 1
 203 667 l 1
 203 562 l 1
 291 562 l 2
 500 562 593 495 593 343 c 0
EndSplineSet
EndChar

StartChar: ae
Encoding: 320 230 181
Width: 883
GlyphClass: 1
Flags: W
HStem: -12 118<536.562 690.233> -12 103<195.199 322.806> 209 90<208.781 353 493 719> 396 114<535.19 681.38> 407 103<206.995 335.345>
VStem: 24 157<104.108 186.741> 353 139<150.467 209 300 354.216> 719 143<299 353.02>
AnchorPoint: "Anchor-0" 447 496 basechar 0
LayerCount: 2
Fore
SplineSet
181 148 m 0x67
 181 112 207 91 251 91 c 0
 320 91 356 128 356 201 c 2
 356 209 l 1
 341 209 l 2
 226 209 181 192 181 148 c 0x67
719 299 m 1
 718 358 675 396 609 396 c 0x37
 544 396 500 360 492 299 c 1
 719 299 l 1
405 67 m 1
 359 12 299 -12 207 -12 c 0
 100 -12 24 49 24 135 c 0
 24 245 133 300 353 300 c 1
 353 329 l 2
 353 383 327 407 270 407 c 0
 225 407 194 386 184 348 c 1
 56 394 l 1
 92 467 177 510 283 510 c 0x6f
 358 510 412 494 447 462 c 1
 492 494 545 510 605 510 c 0
 760 510 862 400 862 233 c 0
 862 225 861 217 861 209 c 1
 493 209 l 1
 497 148 543 106 607 106 c 0
 651 106 687 119 709 143 c 1
 829 99 l 1
 781 28 703 -12 612 -12 c 0xb7
 525 -12 456 14 405 67 c 1
EndSplineSet
EndChar

StartChar: eth
Encoding: 321 240 182
Width: 589
GlyphClass: 1
Flags: W
HStem: -12 113<221.557 349.98> 338 114<221.882 352.319> 604 122<163 273.392>
VStem: 24 156<142.612 295.032> 394 160<167.97 383.09 403 470.862>
LayerCount: 2
Fore
SplineSet
180 220 m 0
 180 147 221 101 286 101 c 0
 352 101 394 148 394 220 c 0
 394 291 351 338 286 338 c 0
 222 338 180 291 180 220 c 0
554 318 m 0
 554 108 457 -12 286 -12 c 0
 130 -12 24 82 24 220 c 0
 24 349 125 452 253 452 c 0
 315 452 361 436 396 403 c 1
 395 465 374 512 334 547 c 1
 271 483 l 1
 223 530 l 1
 276 583 l 1
 244 597 206 604 163 604 c 1
 163 726 l 1
 246 726 314 710 370 678 c 1
 426 734 l 1
 474 686 l 1
 426 639 l 1
 506 579 554 458 554 318 c 0
EndSplineSet
EndChar

StartChar: thorn
Encoding: 322 254 183
Width: 596
GlyphClass: 1
Flags: W
HStem: -161 21G<50 202> -12 118<268.425 365.602> 392 118<268.232 365.337> 648 20G<50 202>
VStem: 50 152<-161 70 428 668> 50 145<156.437 343.182> 414 158<157.732 336.077>
LayerCount: 2
Fore
SplineSet
305 392 m 0xf6
 235 392 195 341 195 251 c 0
 195 159 235 106 305 106 c 0
 370 106 414 162 414 247 c 0
 414 332 369 392 305 392 c 0xf6
353 -12 m 0
 292 -12 231 21 202 70 c 1
 202 -161 l 1
 50 -161 l 1
 50 668 l 1
 202 668 l 1
 202 428 l 1xfa
 231 477 291 510 353 510 c 0
 485 510 572 405 572 247 c 0
 572 90 486 -12 353 -12 c 0
EndSplineSet
EndChar

StartChar: multiply
Encoding: 323 215 184
Width: 539
GlyphClass: 1
Flags: W
LayerCount: 2
Fore
SplineSet
135 22 m 1
 44 112 l 1
 180 248 l 1
 41 385 l 1
 132 476 l 1
 270 337 l 1
 407 476 l 1
 498 385 l 1
 359 248 l 1
 495 112 l 1
 404 22 l 1
 270 158 l 1
 135 22 l 1
EndSplineSet
EndChar

StartChar: divide
Encoding: 324 247 185
Width: 594
GlyphClass: 1
Flags: W
HStem: -12 159<244.132 349.868> 186 128<41 553> 351 159<243.736 350.264>
VStem: 218 158<12.8754 120.868 375.875 485.648>
LayerCount: 2
Fore
SplineSet
376 68 m 0
 376 24 341 -12 297 -12 c 0
 253 -12 218 24 218 68 c 0
 218 111 254 147 297 147 c 0
 340 147 376 111 376 68 c 0
376 431 m 0
 376 387 341 351 297 351 c 0
 253 351 218 387 218 431 c 0
 218 475 253 510 297 510 c 0
 341 510 376 475 376 431 c 0
EndSplineSet
Refer: 159 8722 S 1 0 0 1 0 2 2
EndChar

StartChar: OE
Encoding: 325 338 186
Width: 1061
GlyphClass: 1
Flags: W
HStem: -12 130<296.694 466.781> 0 139<683 1039> 275 138<683 901> 528 140<683 1039> 549 131<296.694 466.781>
VStem: 35 167<223.465 444.409> 561 122<221.727 275 413 446.465>
LayerCount: 2
Fore
SplineSet
202 334 m 0xae
 202 204 273 118 381 118 c 0
 490 118 561 204 561 334 c 0
 561 465 490 549 381 549 c 0
 273 549 202 464 202 334 c 0xae
35 334 m 0
 35 541 174 680 381 680 c 0xae
 450 680 510 666 561 637 c 1
 561 668 l 1
 1039 668 l 1
 1039 528 l 1
 683 528 l 1
 683 413 l 1
 901 413 l 1
 901 275 l 1
 683 275 l 1
 683 139 l 1
 1039 139 l 1
 1039 0 l 1
 561 0 l 1x76
 561 31 l 1
 510 2 450 -12 381 -12 c 0
 174 -12 35 127 35 334 c 0
EndSplineSet
EndChar

StartChar: oe
Encoding: 326 339 187
Width: 937
GlyphClass: 1
Flags: W
HStem: -12 118<222.538 352.319 590.695 744.685> 209 90<547 773> 392 118<222.382 351.167 584.996 740.761>
VStem: 24 155<153.298 345.765> 394 153<152.393 209 299 345.963> 773 143<299 352.59>
LayerCount: 2
Fore
SplineSet
287 106 m 0
 357 106 394 156 394 250 c 0
 394 342 356 392 287 392 c 0
 217 392 179 342 179 250 c 0
 179 157 217 106 287 106 c 0
773 299 m 1
 772 359 730 396 664 396 c 0
 598 396 555 360 547 299 c 1
 773 299 l 1
473 55 m 1
 426 12 360 -12 287 -12 c 0
 127 -12 24 90 24 250 c 0
 24 409 126 510 287 510 c 0
 362 510 428 486 475 441 c 1
 524 486 589 510 660 510 c 0
 813 510 916 399 916 233 c 0
 916 225 915 217 915 209 c 1
 547 209 l 1
 552 147 597 106 661 106 c 0
 707 106 741 118 763 143 c 1
 884 99 l 1
 836 28 758 -12 666 -12 c 0
 585 -12 521 10 473 55 c 1
EndSplineSet
EndChar

StartChar: Aring
Encoding: 330 197 191
Width: 690
GlyphClass: 2
Flags: W
HStem: 0 21G<5 183.723 506.277 685> 119 128<260 430> 776 85<304.552 383.804>
VStem: 212 85<689.321 768.448> 391 86<689.355 768.572>
AnchorPoint: "Anchor-2" 654 0 basechar 0
AnchorPoint: "Anchor-1" 345 0 basechar 0
AnchorPoint: "Anchor-0" 345 796 basechar 0
LayerCount: 2
Fore
SplineSet
477 729 m 0
 477 695 465 664 443 640 c 1
 685 0 l 1
 513 0 l 1
 473 119 l 1
 217 119 l 1
 177 0 l 1
 5 0 l 1
 247 639 l 1
 224 664 212 695 212 729 c 0
 212 802 271 861 344 861 c 0
 418 861 477 802 477 729 c 0
260 247 m 1
 430 247 l 1
 344 501 l 1
 260 247 l 1
297 729 m 0
 297 703 318 682 344 682 c 0
 370 682 391 703 391 729 c 0
 391 756 371 776 344 776 c 0
 318 776 297 755 297 729 c 0
EndSplineSet
EndChar

StartChar: Ccedilla
Encoding: 341 199 202
Width: 673
GlyphClass: 2
Flags: W
HStem: -187 50<260.021 368.797> -12 130<367 457.641> 550 130<289.769 454.136>
VStem: 35 167<218.971 445.241> 370 94<-134.571 -85.93>
AnchorPoint: "Anchor-1" 357 -187 basechar 0
AnchorPoint: "Anchor-0" 357 668 basechar 0
LayerCount: 2
Fore
SplineSet
299 -90 m 0
 288 -90 279 -80 279 -68 c 0
 279 -63 279 -61 281 -59 c 2
 312 -9 l 1
 138 13 35 141 35 334 c 0
 35 546 166 680 373 680 c 0
 495 680 594 624 647 525 c 1
 507 474 l 1
 481 523 431 550 368 550 c 0
 269 550 202 463 202 334 c 0
 202 202 268 118 370 118 c 0
 435 118 486 145 512 193 c 1
 651 142 l 1
 596 44 493 -12 369 -12 c 2
 367 -12 l 1
 344 -48 l 1
 353 -46 365 -45 378 -45 c 0
 430 -45 464 -70 464 -107 c 0
 464 -156 415 -187 337 -187 c 0
 308 -187 277 -182 249 -174 c 1
 265 -124 l 1
 281 -131 307 -137 326 -137 c 0
 355 -137 370 -128 370 -110 c 0
 370 -94 356 -84 333 -84 c 0
 320 -84 312 -90 299 -90 c 0
EndSplineSet
EndChar

StartChar: ccedilla
Encoding: 342 231 203
Width: 520
GlyphClass: 2
Flags: W
HStem: -187 50<178.021 286.797> -12 118<285 353.188> 392 118<223.052 349.445>
VStem: 24 155<155.498 342.108> 288 94<-134.571 -85.93>
AnchorPoint: "Anchor-1" 275 -187 basechar 0
AnchorPoint: "Anchor-0" 280 496 basechar 0
LayerCount: 2
Fore
SplineSet
217 -90 m 0
 206 -90 197 -80 197 -68 c 0
 197 -63 197 -61 199 -59 c 2
 230 -9 l 1
 101 9 24 106 24 251 c 0
 24 407 125 510 278 510 c 0
 383 510 463 464 502 380 c 1
 375 334 l 1
 361 372 331 392 287 392 c 0
 219 392 179 340 179 250 c 0
 179 159 219 106 287 106 c 0
 328 106 358 122 376 153 c 1
 500 108 l 1
 458 33 381 -10 285 -12 c 1
 262 -48 l 1
 271 -46 283 -45 296 -45 c 0
 348 -45 382 -70 382 -107 c 0
 382 -156 333 -187 255 -187 c 0
 226 -187 195 -182 167 -174 c 1
 183 -124 l 1
 199 -131 225 -137 244 -137 c 0
 273 -137 288 -128 288 -110 c 0
 288 -94 274 -84 251 -84 c 0
 238 -84 230 -90 217 -90 c 0
EndSplineSet
EndChar

StartChar: Eth
Encoding: 387 208 248
AltUni2: 000189.ffffffff.0 000110.ffffffff.0
Width: 773
GlyphClass: 2
Flags: W
HStem: 0 133<289 482.891> 275 137<13 131 289 426> 537 131<289 479.088>
VStem: 131 158<133 275 412 537> 575 163<220.052 448.2>
AnchorPoint: "Anchor-1" 430 0 basechar 0
AnchorPoint: "Anchor-0" 420 668 basechar 0
LayerCount: 2
Fore
SplineSet
575 334 m 0
 575 477 510 537 354 537 c 2
 289 537 l 1
 289 412 l 1
 426 412 l 1
 426 275 l 1
 289 275 l 1
 289 133 l 1
 354 133 l 2
 511 133 575 191 575 334 c 0
738 334 m 0
 738 111 610 0 351 0 c 2
 131 0 l 1
 131 275 l 1
 13 275 l 1
 13 412 l 1
 131 412 l 1
 131 668 l 1
 351 668 l 2
 609 668 738 557 738 334 c 0
EndSplineSet
EndChar

StartChar: one.tf
Encoding: 389 -1 250
Width: 632
GlyphClass: 1
Flags: W
HStem: 0 124<101 253 404 532> 448 123<101 233.824> 648 20G<273 404>
VStem: 253 151<124 448>
LayerCount: 2
Fore
SplineSet
101 571 m 1
 223 571 257 589 289 668 c 1
 404 668 l 1
 404 124 l 1
 532 124 l 1
 532 0 l 1
 101 0 l 1
 101 124 l 1
 253 124 l 1
 253 448 l 1
 101 448 l 1
 101 571 l 1
EndSplineSet
Substitution2: "'pnum' Proportional Numbers lookup 13 subtable" one
Substitution2: "'aalt' Access All Alternates lookup 0 subtable" one
EndChar

StartChar: Aogonek
Encoding: 400 260 261
Width: 690
GlyphClass: 2
Flags: W
HStem: -174 76<592.635 684.313> 0 21G<5 183.723> 119 128<260 430> 648 20G<250.425 439.575>
VStem: 464 126<-93.5099 -39.5503>
AnchorPoint: "Anchor-2" 654 0 basechar 0
AnchorPoint: "Anchor-1" 345 0 basechar 0
AnchorPoint: "Anchor-0" 345 668 basechar 0
LayerCount: 2
Fore
SplineSet
260 247 m 1
 430 247 l 1
 344 501 l 1
 260 247 l 1
685 -164 m 1
 671 -169 632 -174 606 -174 c 0
 520 -174 464 -139 464 -85 c 0
 464 -46 492 -16 544 0 c 1
 513 0 l 1
 473 119 l 1
 217 119 l 1
 177 0 l 1
 5 0 l 1
 258 668 l 1
 432 668 l 1
 685 0 l 1
 601 -43 590 -50 590 -68 c 0
 590 -87 606 -98 636 -98 c 0
 659 -98 670 -91 685 -89 c 1
 685 -164 l 1
EndSplineSet
EndChar

StartChar: aogonek
Encoding: 401 261 262
Width: 553
GlyphClass: 2
Flags: W
HStem: -174 76<427.635 519.313> -12 104<144.131 301.2> 220 90<230.834 353> 407 103<206.995 332.186>
VStem: 24 157<106.513 184.474> 299 126<-93.5099 -39.5503> 356 147<124.595 220 309.177 385.259>
AnchorPoint: "Anchor-2" 518 0 basechar 0
AnchorPoint: "Anchor-1" 277 0 basechar 0
AnchorPoint: "Anchor-0" 285 496 basechar 0
LayerCount: 2
Fore
SplineSet
181 145 m 0xfa
 181 114 210 92 251 92 c 0
 281 92 306 100 326 116 c 0
 346 132 356 163 356 208 c 2
 356 220 l 1
 226 208 181 189 181 145 c 0xfa
520 -164 m 1
 506 -169 467 -174 441 -174 c 0
 355 -174 299 -139 299 -85 c 0xfc
 299 -46 327 -16 379 0 c 1
 361 60 l 1
 326 12 271 -12 195 -12 c 0
 95 -12 24 49 24 134 c 0
 24 240 123 293 353 310 c 1
 353 383 332 407 270 407 c 0
 225 407 194 386 184 348 c 1
 56 394 l 1
 92 467 177 510 283 510 c 0
 434 510 503 445 503 303 c 2
 503 194 l 2xfa
 503 124 510 46 520 0 c 1
 436 -43 425 -50 425 -68 c 0xfc
 425 -87 441 -98 471 -98 c 0
 494 -98 505 -91 520 -89 c 1
 520 -164 l 1
EndSplineSet
EndChar

StartChar: Eogonek
Encoding: 406 280 267
Width: 580
GlyphClass: 2
Flags: W
HStem: -174 76<429.635 521.313> 0 139<202 381 482.041 558> 274 139<202 419> 529 139<202 558>
VStem: 44 158<139 274 413 529> 301 126<-93.5099 -39.5503>
AnchorPoint: "Anchor-2" 522 0 basechar 0
AnchorPoint: "Anchor-1" 290 0 basechar 0
AnchorPoint: "Anchor-0" 303 668 basechar 0
LayerCount: 2
Fore
SplineSet
522 -164 m 1
 508 -169 469 -174 443 -174 c 0
 357 -174 301 -139 301 -85 c 0
 301 -46 329 -16 381 0 c 1
 44 0 l 1
 44 668 l 1
 558 668 l 1
 558 529 l 1
 202 529 l 1
 202 413 l 1
 419 413 l 1
 419 274 l 1
 202 274 l 1
 202 139 l 1
 558 139 l 1
 558 0 l 1
 522 0 l 1
 438 -43 427 -50 427 -68 c 0
 427 -87 443 -98 473 -98 c 0
 496 -98 507 -91 522 -89 c 1
 522 -164 l 1
EndSplineSet
EndChar

StartChar: eogonek
Encoding: 407 281 268
Width: 566
GlyphClass: 2
Flags: W
HStem: -164 76<311.635 403.313> 210 90<177 403> 397 113<220.36 365.53>
VStem: 24 153<151.673 210 300 354.328> 183 126<-83.5099 -29.7665> 403 142<300 353.416>
AnchorPoint: "Anchor-2" 509 10 basechar 0
AnchorPoint: "Anchor-1" 283 0 basechar 0
AnchorPoint: "Anchor-0" 283 496 basechar 0
LayerCount: 2
Fore
SplineSet
403 300 m 1
 402 359 359 397 294 397 c 0
 228 397 185 361 177 300 c 1
 403 300 l 1
404 -154 m 1
 390 -159 351 -164 325 -164 c 0
 239 -164 183 -129 183 -75 c 0
 183 -45 195 -26 228 -6 c 1
 100 19 24 115 24 251 c 0
 24 400 136 510 290 510 c 0
 443 510 545 400 545 234 c 0
 545 226 544 218 544 210 c 1
 177 210 l 1
 182 147 228 106 292 106 c 0
 335 106 371 119 392 143 c 1
 513 99 l 1
 484 57 450 29 404 10 c 0
 322 -31 309 -40 309 -58 c 0
 309 -77 325 -88 355 -88 c 0
 378 -88 389 -81 404 -79 c 1
 404 -154 l 1
EndSplineSet
EndChar

StartChar: Iogonek
Encoding: 414 302 275
Width: 460
GlyphClass: 2
Flags: W
HStem: -174 76<238.635 330.313> 0 124<57 151 309.249 403> 544 124<57 151 309 403>
VStem: 57 346<0 124 544 668> 110 126<-93.5099 -39.5503>
AnchorPoint: "Anchor-2" 331 0 basechar 0
AnchorPoint: "Anchor-1" 229 0 basechar 0
AnchorPoint: "Anchor-0" 231 668 basechar 0
LayerCount: 2
Fore
SplineSet
331 -164 m 1xe8
 317 -169 278 -174 252 -174 c 0
 166 -174 110 -139 110 -85 c 0xe8
 110 -46 138 -16 190 0 c 1
 57 0 l 1
 57 124 l 1
 151 124 l 1
 151 544 l 1
 57 544 l 1
 57 668 l 1
 403 668 l 1
 403 544 l 1
 309 544 l 1
 309 124 l 1
 403 124 l 1
 403 0 l 1xf0
 331 0 l 1
 247 -43 236 -50 236 -68 c 0
 236 -87 252 -98 282 -98 c 0
 305 -98 316 -91 331 -89 c 1
 331 -164 l 1xe8
EndSplineSet
EndChar

StartChar: iogonek
Encoding: 415 303 276
Width: 315
GlyphClass: 1
Flags: W
HStem: -174 76<178.635 270.313> 380 116<24 118> 578 180<135.982 252.786>
VStem: 50 126<-93.5099 -39.5503> 105 180<608.982 725.786> 118 153<0 380>
LayerCount: 2
Fore
SplineSet
271 -164 m 1xe4
 257 -169 218 -174 192 -174 c 0
 106 -174 50 -139 50 -85 c 0xf0
 50 -46 78 -16 130 0 c 1
 118 0 l 1
 118 380 l 1
 24 380 l 1
 24 496 l 1
 271 496 l 1
 271 0 l 1xe4
 187 -43 176 -50 176 -68 c 0xf0
 176 -87 192 -98 222 -98 c 0
 245 -98 256 -91 271 -89 c 1
 271 -164 l 1xe4
EndSplineSet
Refer: 544 803 S 1 0 0 1 105 826 2
EndChar

StartChar: Uogonek
Encoding: 428 370 289
Width: 663
GlyphClass: 2
Flags: W
HStem: -174 76<347.635 439.313> 648 20G<44 202 461 619>
VStem: 44 158<166.492 668> 219 126<-93.5099 -39.6438> 461 158<166.523 668>
AnchorPoint: "Anchor-2" 440 0 basechar 0
AnchorPoint: "Anchor-1" 332 0 basechar 0
AnchorPoint: "Anchor-0" 332 668 basechar 0
LayerCount: 2
Fore
SplineSet
440 -164 m 1
 426 -169 387 -174 361 -174 c 0
 275 -174 219 -139 219 -85 c 0
 219 -52 236 -29 276 -9 c 1
 115 7 44 100 44 292 c 2
 44 668 l 1
 202 668 l 1
 202 279 l 2
 202 160 237 117 332 117 c 0
 426 117 461 160 461 279 c 2
 461 668 l 1
 619 668 l 1
 619 292 l 2
 619 122 561 29 438 -1 c 1
 356 -42 345 -50 345 -68 c 0
 345 -87 361 -98 391 -98 c 0
 414 -98 425 -91 440 -89 c 1
 440 -164 l 1
EndSplineSet
EndChar

StartChar: uogonek
Encoding: 429 371 290
Width: 570
GlyphClass: 1
Flags: W
HStem: -174 76<426.635 518.313> -12 118<161.5 310.463> 476 20G<50 202 366 519>
VStem: 50 152<129.187 496> 298 126<-93.5099 -39.6603> 366 153<134.451 496>
LayerCount: 2
Fore
SplineSet
519 -164 m 1xf4
 505 -169 466 -174 440 -174 c 0
 354 -174 298 -139 298 -85 c 0xf8
 298 -43 317 -25 386 2 c 1
 366 70 l 1
 332 12 289 -12 222 -12 c 0
 101 -12 50 50 50 198 c 2
 50 496 l 1
 202 496 l 1
 202 219 l 2
 202 138 224 106 280 106 c 0
 340 106 366 144 366 235 c 2
 366 496 l 1
 519 496 l 1
 519 0 l 1xf4
 435 -43 424 -50 424 -68 c 0xf8
 424 -87 440 -98 470 -98 c 0
 493 -98 504 -91 519 -89 c 1
 519 -164 l 1xf4
EndSplineSet
EndChar

StartChar: Hbar
Encoding: 438 294 299
Width: 740
GlyphClass: 2
Flags: W
HStem: 0 21G<75 233 508 666> 274 139<233 508> 496 98<15 75 233 508 666 725> 648 20G<75 233 508 666>
VStem: 75 158<0 274 413 496 594 668> 508 158<0 274 413 496 594 668>
AnchorPoint: "Anchor-1" 371 0 basechar 0
AnchorPoint: "Anchor-0" 371 668 basechar 0
LayerCount: 2
Fore
SplineSet
233 413 m 1
 508 413 l 1
 508 496 l 1
 233 496 l 1
 233 413 l 1
75 0 m 1
 75 496 l 1
 15 496 l 1
 15 594 l 1
 75 594 l 1
 75 668 l 1
 233 668 l 1
 233 594 l 1
 508 594 l 1
 508 668 l 1
 666 668 l 1
 666 594 l 1
 725 594 l 1
 725 496 l 1
 666 496 l 1
 666 0 l 1
 508 0 l 1
 508 274 l 1
 233 274 l 1
 233 0 l 1
 75 0 l 1
EndSplineSet
EndChar

StartChar: hbar
Encoding: 439 295 300
Width: 629
GlyphClass: 1
Flags: W
HStem: 0 21G<107 259 427 579> 392 118<323.512 471> 555 78<13 107 259 382>
VStem: 107 152<0 356.22 430 555 633 698> 427 152<0 370.302>
LayerCount: 2
Fore
SplineSet
351 392 m 0
 289 392 259 348 259 255 c 2
 259 0 l 1
 107 0 l 1
 107 555 l 1
 13 555 l 1
 13 633 l 1
 107 633 l 1
 107 698 l 1
 259 698 l 1
 259 633 l 1
 382 633 l 1
 382 555 l 1
 259 555 l 1
 259 430 l 1
 289 479 348 510 412 510 c 0
 530 510 579 449 579 302 c 2
 579 0 l 1
 427 0 l 1
 427 264 l 2
 427 362 409 392 351 392 c 0
EndSplineSet
EndChar

StartChar: dcroat
Encoding: 458 273 319
Width: 632
GlyphClass: 1
Flags: W
HStem: -12 118<230.795 332.852> 0 21G<412.03 563> 392 118<230.529 329.571> 555 78<243 394 546 612>
VStem: 24 158<162.066 340.812> 394 152<428 555 633 698> 401 145<155.628 341.949>
LayerCount: 2
Fore
SplineSet
182 252 m 0xba
 182 165 227 106 292 106 c 0
 361 106 401 158 401 249 c 0
 401 339 361 392 292 392 c 0
 226 392 182 336 182 252 c 0xba
398 67 m 1
 361 16 306 -12 243 -12 c 0
 111 -12 24 93 24 252 c 0
 24 409 110 510 243 510 c 0
 306 510 365 478 394 428 c 1
 394 555 l 1
 243 555 l 1
 243 633 l 1
 394 633 l 1
 394 698 l 1
 546 698 l 1
 546 633 l 1
 612 633 l 1
 612 555 l 1
 546 555 l 1xbc
 546 194 l 2
 546 129 552 61 563 0 c 1
 418 0 l 1x7a
 398 67 l 1
EndSplineSet
EndChar

StartChar: Scedilla
Encoding: 466 350 327
Width: 619
GlyphClass: 2
Flags: W
HStem: -187 50<232.021 340.797> 553 127<214.341 383.39>
VStem: 28 162<446.124 528.51> 342 94<-134.571 -85.93> 434 162<140.609 229.246>
AnchorPoint: "Anchor-1" 329 -187 basechar 0
AnchorPoint: "Anchor-0" 304 668 basechar 0
LayerCount: 2
Fore
SplineSet
271 -90 m 0xf0
 260 -90 251 -80 251 -68 c 0
 251 -63 251 -61 253 -59 c 2
 283 -11 l 1
 156 -3 64 57 25 157 c 1
 169 209 l 1
 187 148 238 115 315 115 c 0
 389 115 434 141 434 185 c 0
 434 227 395 254 312 269 c 1
 231 285 l 2
 97 312 28 376 28 473 c 0
 28 594 145 680 311 680 c 0
 435 680 530 626 567 535 c 1
 424 483 l 1
 407 528 361 553 297 553 c 0
 231 553 190 528 190 489 c 0
 190 457 219 431 266 421 c 2
 356 403 l 1
 527 370 596 314 596 209 c 0xe8
 596 90 489 -1 339 -11 c 1
 316 -48 l 1
 325 -46 337 -45 350 -45 c 0
 402 -45 436 -70 436 -107 c 0
 436 -156 387 -187 309 -187 c 0
 280 -187 249 -182 221 -174 c 1
 237 -124 l 1
 253 -131 279 -137 298 -137 c 0
 327 -137 342 -128 342 -110 c 0
 342 -94 328 -84 305 -84 c 0
 292 -84 284 -90 271 -90 c 0xf0
EndSplineSet
Substitution2: "'locl' Localized Forms in Latin lookup 8 subtable" uni0218
Substitution2: "'aalt' Access All Alternates lookup 0 subtable" uni0218
EndChar

StartChar: scedilla
Encoding: 467 351 328
Width: 534
GlyphClass: 2
Flags: W
HStem: -187 50<170.021 278.797> -12 111<277 345.614> 399 111<186.224 337.56>
VStem: 33 145<331.088 388.379> 280 94<-134.571 -85.93> 361 146<114.983 173.732>
AnchorPoint: "Anchor-1" 267 -187 basechar 0
AnchorPoint: "Anchor-0" 268 496 basechar 0
LayerCount: 2
Fore
SplineSet
209 -90 m 0xf8
 198 -90 189 -80 189 -68 c 0
 189 -63 189 -61 191 -59 c 2
 221 -10 l 1
 124 0 54 43 21 114 c 1
 150 161 l 1
 164 121 206 99 267 99 c 0
 324 99 361 117 361 145 c 0
 361 168 339 181 284 190 c 2
 195 205 l 2
 91 222 33 275 33 353 c 0
 33 448 123 510 261 510 c 0
 369 510 447 471 481 400 c 1
 353 353 l 1
 345 384 315 399 260 399 c 0
 205 399 178 386 178 359 c 0
 178 339 196 327 239 319 c 2
 331 302 l 1
 457 280 507 240 507 162 c 0xf4
 507 58 420 -8 277 -12 c 1
 254 -48 l 1
 263 -46 275 -45 288 -45 c 0
 340 -45 374 -70 374 -107 c 0
 374 -156 325 -187 247 -187 c 0
 218 -187 187 -182 159 -174 c 1
 175 -124 l 1
 191 -131 217 -137 236 -137 c 0
 265 -137 280 -128 280 -110 c 0
 280 -94 266 -84 243 -84 c 0
 230 -84 222 -90 209 -90 c 0xf8
EndSplineSet
Substitution2: "'locl' Localized Forms in Latin lookup 8 subtable" uni0219
Substitution2: "'aalt' Access All Alternates lookup 0 subtable" uni0219
EndChar

StartChar: uni0162
Encoding: 469 354 330
Width: 617
GlyphClass: 2
Flags: W
HStem: -187 50<212.021 320.797> 529 139<15 230 387 602>
VStem: 230 157<0 529> 322 94<-134.571 -85.93>
AnchorPoint: "Anchor-1" 286 -251 basechar 0
AnchorPoint: "Anchor-0" 309 668 basechar 0
LayerCount: 2
Fore
SplineSet
251 -90 m 0xd0
 240 -90 231 -80 231 -68 c 0
 231 -63 231 -61 233 -59 c 2
 270 -0 l 1
 230 0 l 1
 230 529 l 1
 15 529 l 1
 15 668 l 1
 602 668 l 1
 602 529 l 1
 387 529 l 1
 387 0 l 1xe0
 326 0 l 1
 296 -48 l 1
 305 -46 317 -45 330 -45 c 0
 382 -45 416 -70 416 -107 c 0
 416 -156 367 -187 289 -187 c 0
 260 -187 229 -182 201 -174 c 1
 217 -124 l 1
 233 -131 259 -137 278 -137 c 0
 307 -137 322 -128 322 -110 c 0
 322 -94 308 -84 285 -84 c 0
 272 -84 264 -90 251 -90 c 0xd0
EndSplineSet
Substitution2: "'locl' Localized Forms in Latin lookup 8 subtable" uni021A
Substitution2: "'aalt' Access All Alternates lookup 0 subtable" uni021A
EndChar

StartChar: acutecomb.case
Encoding: 472 -1 333
Width: 0
GlyphClass: 4
Flags: W
HStem: 731 154<117.51 153.913>
VStem: 0 218
AnchorPoint: "Anchor-4" 109 885 basemark 0
AnchorPoint: "Anchor-4" 70 668 mark 0
AnchorPoint: "Anchor-0" 70 668 mark 0
LayerCount: 2
Fore
SplineSet
162 885 m 0
 193 885 218 860 218 829 c 0
 218 813 212 799 199 786 c 1
 176 770 143 744 125 731 c 1
 0 731 l 1
 1 732 118 864 119 865 c 0
 132 878 147 885 162 885 c 0
EndSplineSet
EndChar

StartChar: uni0306
Encoding: 473 774 334
Width: 0
GlyphClass: 4
Flags: W
HStem: 569 85<89.6997 197.153>
AnchorPoint: "Anchor-4" 144 689 basemark 0
AnchorPoint: "Anchor-4" 144 496 mark 0
AnchorPoint: "Anchor-0" 144 496 mark 0
LayerCount: 2
Fore
SplineSet
317 709 m 1
 303 623 236 569 143 569 c 0
 51 569 -16 623 -30 709 c 1
 75 709 l 1
 81 673 105 654 143 654 c 0
 183 654 206 673 212 709 c 1
 317 709 l 1
EndSplineSet
Substitution2: "'case' Case-Sensitive Forms lookup 15 subtable" uni0306.case
Substitution2: "Single Substitution lookup 7 subtable" uni0306.case
Substitution2: "Single Substitution lookup 6 subtable" uni0306.case
Substitution2: "Single Substitution lookup 4 subtable" uni0306.case
Substitution2: "Single Substitution lookup 3 subtable" uni0306.case
Substitution2: "'aalt' Access All Alternates lookup 0 subtable" uni0306.case
EndChar

StartChar: uni030C.alt
Encoding: 476 -1 337
Width: 0
GlyphClass: 1
Flags: W
HStem: 496 192<56.0096 100>
VStem: 44 111<571.874 676.003>
LayerCount: 2
Fore
SplineSet
100 688 m 0
 131 688 155 663 155 631 c 0
 155 625 154 619 152 614 c 2
 100 496 l 1
 20 496 l 1
 20 497 44 640 44 641 c 0
 49 668 73 688 100 688 c 0
EndSplineSet
EndChar

StartChar: uni0302.case
Encoding: 480 -1 341
Width: 0
GlyphClass: 4
Flags: W
HStem: 731 152
AnchorPoint: "Anchor-4" 197 883 basemark 0
AnchorPoint: "Anchor-4" 197 668 mark 0
AnchorPoint: "Anchor-0" 197 668 mark 0
LayerCount: 2
Fore
SplineSet
0 731 m 1
 147 864 l 1
 164 877 180 883 196 883 c 0
 215 883 231 877 245 864 c 2
 393 731 l 1
 264 731 l 1
 196 792 l 1
 129 731 l 1
 0 731 l 1
EndSplineSet
EndChar

StartChar: uni0326
Encoding: 481 806 342
Width: 0
GlyphClass: 4
Flags: W
HStem: -251 45<52 79.7136>
VStem: 102 118<-186.022 -106.314>
AnchorPoint: "Anchor-3" 110 -251 basemark 0
AnchorPoint: "Anchor-3" 133 0 mark 0
AnchorPoint: "Anchor-1" 133 0 mark 0
LayerCount: 2
Fore
SplineSet
136 -45 m 1
 192 -68 220 -100 220 -141 c 0
 220 -208 154 -251 52 -251 c 1
 0 -206 l 1
 64 -206 102 -183 102 -145 c 0
 102 -118 76 -95 34 -85 c 1
 136 -45 l 1
EndSplineSet
EndChar

StartChar: Euro
Encoding: 164 8364 347
Width: 673
GlyphClass: 1
Flags: W
HStem: -12 130<326.137 477.052> 231 74<46 95 260 333> 366 74<45 95 262 407> 550 130<325.829 473.795>
VStem: 95 150<305 366>
LayerCount: 2
Fore
SplineSet
651 142 m 1
 602 45 509 -12 396 -12 c 0
 243 -12 137 77 104 231 c 1
 6 231 l 1
 46 305 l 1
 95 305 l 1
 95 366 l 1
 5 366 l 1
 45 440 l 1
 105 440 l 1
 140 592 248 680 400 680 c 0
 511 680 601 624 648 525 c 1
 519 478 l 1
 496 524 451 550 395 550 c 0
 335 550 286 509 262 440 c 1
 448 440 l 1
 407 366 l 1
 247 366 l 1
 246 356 245 338 245 325 c 0
 245 318 246 312 246 305 c 1
 373 305 l 1
 333 231 l 1
 260 231 l 1
 283 160 333 118 397 118 c 0
 455 118 501 144 523 189 c 1
 651 142 l 1
EndSplineSet
EndChar

StartChar: uni2074
Encoding: 486 8308 348
Width: 448
GlyphClass: 1
Flags: W
HStem: 477 87<158 236 337 395>
VStem: 236 101<403 477 564 659>
LayerCount: 2
Fore
SplineSet
158 564 m 1
 236 564 l 1
 236 659 l 1
 158 564 l 1
236 403 m 1
 236 477 l 1
 55 477 l 1
 55 555 l 1
 236 778 l 1
 337 778 l 1
 337 564 l 1
 395 564 l 1
 395 477 l 1
 337 477 l 1
 337 403 l 1
 236 403 l 1
EndSplineSet
EndChar

StartChar: gravecomb.case
Encoding: 488 -1 350
Width: 0
GlyphClass: 4
Flags: W
HStem: 731 154<65.752 99.8594>
VStem: 0 219
AnchorPoint: "Anchor-4" 110 885 basemark 0
AnchorPoint: "Anchor-4" 147 668 mark 0
AnchorPoint: "Anchor-0" 147 668 mark 0
LayerCount: 2
Fore
SplineSet
0 829 m 0
 0 859 26 885 56 885 c 0
 71 885 84 880 94 870 c 2
 219 731 l 1
 94 731 l 1
 68 750 45 769 20 786 c 1
 5 801 0 812 0 829 c 0
EndSplineSet
EndChar

StartChar: dotlessi
Encoding: 491 305 353
Width: 301
GlyphClass: 2
Flags: W
HStem: 0 21G<118 271> 381 115<24 118>
VStem: 118 153<0 381>
AnchorPoint: "Anchor-2" 271 10 basechar 0
AnchorPoint: "Anchor-1" 151 0 basechar 0
AnchorPoint: "Anchor-0" 161 496 basechar 0
LayerCount: 2
Fore
SplineSet
118 0 m 1
 118 381 l 1
 24 381 l 1
 24 496 l 1
 271 496 l 1
 271 0 l 1
 118 0 l 1
EndSplineSet
EndChar

StartChar: uni00B5
Encoding: 494 181 356
Width: 591
GlyphClass: 1
Flags: W
HStem: -161 21G<50 207> -12 118<224.781 320.295> 0 124<520.059 588> 476 20G<50 202 365 517>
VStem: 50 152<-161 -8.00177 128.753 496> 365 152<141.605 496>
LayerCount: 2
Fore
SplineSet
195 -6 m 1xdc
 204 -49 207 -73 207 -95 c 2
 207 -161 l 1
 50 -161 l 1
 50 496 l 1
 202 496 l 1
 202 235 l 2
 202 143 223 106 275 106 c 0xdc
 333 106 365 152 365 234 c 2
 365 496 l 1
 517 496 l 1
 517 163 l 2
 517 137 532 124 561 124 c 0
 572 124 579 126 588 130 c 1
 588 6 l 1
 570 1 556 0 528 0 c 0xbc
 445 0 397 23 375 72 c 1
 365 52 349 34 326 14 c 0
 305 -4 278 -12 240 -12 c 0
 224 -12 209 -10 195 -6 c 1xdc
EndSplineSet
EndChar

StartChar: uni0328.case
Encoding: 496 -1 358
Width: 0
GlyphClass: 4
Flags: W
HStem: -174 76<128.635 220.313>
VStem: 0 126<-93.5099 -32.498>
AnchorPoint: "Anchor-2" 221 0 mark 0
LayerCount: 2
Fore
SplineSet
221 -164 m 1
 207 -169 168 -174 142 -174 c 0
 56 -174 0 -139 0 -85 c 0
 0 -46 28 -16 80 0 c 1
 221 0 l 1
 174 -5 126 -39 126 -68 c 0
 126 -87 142 -98 172 -98 c 0
 195 -98 206 -91 221 -89 c 1
 221 -164 l 1
EndSplineSet
EndChar

StartChar: uni00AD
Encoding: 173 173 362
Width: 350
GlyphClass: 1
Flags: W
HStem: 184 129<24 326>
VStem: 24 302<184 313>
LayerCount: 2
Fore
SplineSet
24 184 m 1
 24 313 l 1
 326 313 l 1
 326 184 l 1
 24 184 l 1
EndSplineSet
EndChar

StartChar: uni0163
Encoding: 500 355 363
Width: 379
GlyphClass: 2
Flags: W
HStem: -187 50<142.021 250.797> 0 124<256 355> 380 116<13 95 247 355>
VStem: 95 152<131.274 380 496 620> 252 94<-134.571 -85.93>
AnchorPoint: "Anchor-1" 216 -251 basechar 0
AnchorPoint: "Anchor-0" 190 496 basechar 0
LayerCount: 2
Fore
SplineSet
181 -90 m 0
 170 -90 161 -80 161 -68 c 0
 161 -63 161 -61 163 -59 c 2
 201 3 l 1
 120 12 95 45 95 140 c 2
 95 380 l 1
 13 380 l 1
 13 496 l 1
 95 496 l 1
 95 620 l 1
 247 620 l 1
 247 496 l 1
 355 496 l 1
 355 380 l 1
 247 380 l 1
 247 180 l 2
 247 136 260 124 311 124 c 2
 355 124 l 1
 355 0 l 1
 256 0 l 1
 226 -48 l 1
 235 -46 247 -45 260 -45 c 0
 312 -45 346 -70 346 -107 c 0
 346 -156 297 -187 219 -187 c 0
 190 -187 159 -182 131 -174 c 1
 147 -124 l 1
 163 -131 189 -137 208 -137 c 0
 237 -137 252 -128 252 -110 c 0
 252 -94 238 -84 215 -84 c 0
 202 -84 194 -90 181 -90 c 0
EndSplineSet
Substitution2: "'locl' Localized Forms in Latin lookup 8 subtable" uni021B
Substitution2: "'aalt' Access All Alternates lookup 0 subtable" uni021B
EndChar

StartChar: zero.alt1
Encoding: 504 -1 367
Width: 652
Flags: W
HStem: -12 113<267.645 396.406> 567 113<266.922 396.748>
VStem: 45 157<247.51 482.783> 462 156<189.019 425.999>
LayerCount: 2
Fore
SplineSet
454 431 m 1
 251 139 l 1
 272 114 299 101 332 101 c 0
 416 101 462 184 462 335 c 0
 462 370 459 401 454 431 c 1
208 246 m 1
 409 534 l 1
 388 556 362 567 332 567 c 0
 247 567 202 486 202 334 c 0
 202 301 204 272 208 246 c 1
45 335 m 0
 45 556 148 680 332 680 c 0
 515 680 618 556 618 335 c 0
 618 115 513 -12 332 -12 c 0
 150 -12 45 115 45 335 c 0
EndSplineSet
Substitution2: "'tnum' Tabular Numbers lookup 14 subtable" zero
Substitution2: "'aalt' Access All Alternates lookup 0 subtable" zero.tf
Substitution2: "'zero' Slashed Zero lookup 0-1" zero
EndChar

StartChar: copyleft
Encoding: 505 127279 368
Width: 798
Flags: W
HStem: -12 69<294.426 504.743> 145 85<334.002 442.305> 437 85<339.352 441.526> 610 69<294.426 504.532>
VStem: 53 70<228.658 439.032> 468 112<257.529 410.883> 675 70<228.658 438.821>
LayerCount: 2
Fore
SplineSet
580 334 m 0
 580 216 511 145 397 145 c 0
 325 145 267 176 235 231 c 1
 325 264 l 1
 338 241 360 230 391 230 c 0
 439 230 468 269 468 334 c 0
 468 398 439 437 391 437 c 0
 359 437 337 422 326 394 c 1
 234 428 l 1
 263 489 320 522 397 522 c 0
 506 522 580 446 580 334 c 0
123 334 m 0
 123 181 247 57 400 57 c 0
 552 57 675 181 675 334 c 0
 675 486 551 610 400 610 c 0
 247 610 123 487 123 334 c 0
745 334 m 0
 745 143 590 -12 400 -12 c 0
 208 -12 53 143 53 334 c 0
 53 524 208 679 400 679 c 0
 590 679 745 524 745 334 c 0
EndSplineSet
EndChar

StartChar: f_i
Encoding: 506 64257 369
Width: 616
Flags: W
HStem: 0 21G<87 239 419 572> 380 116<5 87 239 419> 578 180<436.982 553.786> 608 120<246.6 347>
VStem: 87 152<0 380 496 601.93> 406 180<608.982 725.786> 419 153<0 380>
LayerCount: 2
Fore
SplineSet
305 608 m 2xda
 251 608 239 600 239 563 c 2
 239 496 l 1
 572 496 l 1
 572 0 l 1
 419 0 l 1
 419 380 l 1
 239 380 l 1
 239 0 l 1
 87 0 l 1
 87 380 l 1
 5 380 l 1
 5 496 l 1
 87 496 l 1
 87 577 l 2
 87 689 137 728 278 728 c 2
 347 728 l 1
 347 608 l 1
 305 608 l 2xda
EndSplineSet
Refer: 544 803 S 1 0 0 1 406 826 2
LCarets2: 1 350
Ligature2: "'liga' Standard Ligatures lookup 0-1" f i
EndChar

StartChar: f_f
Encoding: 507 64256 370
Width: 699
Flags: W
HStem: 0 21G<87 239 419 571> 380 116<5 87 239 419 571 679> 608 120<246.6 347 578.6 679>
VStem: 87 152<0 380 496 601.93> 419 152<0 380 496 601.93>
LayerCount: 2
Fore
SplineSet
637 608 m 2
 583 608 571 600 571 563 c 2
 571 496 l 1
 679 496 l 1
 679 380 l 1
 571 380 l 1
 571 0 l 1
 419 0 l 1
 419 380 l 1
 239 380 l 1
 239 0 l 1
 87 0 l 1
 87 380 l 1
 5 380 l 1
 5 496 l 1
 87 496 l 1
 87 577 l 2
 87 689 137 728 278 728 c 2
 347 728 l 1
 347 608 l 1
 305 608 l 2
 251 608 239 600 239 563 c 2
 239 496 l 1
 419 496 l 1
 419 577 l 2
 419 689 469 728 610 728 c 2
 679 728 l 1
 679 608 l 1
 637 608 l 2
EndSplineSet
LCarets2: 1 348
Ligature2: "'liga' Standard Ligatures lookup 0-1" f f
EndChar

StartChar: f_f_i
Encoding: 508 64259 371
Width: 933
Flags: W
HStem: 0 21G<87 239 419 571 751 904> 380 116<5 87 239 419 571 751> 578 180<768.982 885.786> 608 120<246.6 347 578.6 679>
VStem: 87 152<0 380 496 601.93> 419 152<0 380 496 601.93> 738 180<608.982 725.786> 751 153<0 380>
LayerCount: 2
Fore
SplineSet
637 608 m 2xdd
 583 608 571 600 571 563 c 2
 571 496 l 1
 904 496 l 1
 904 0 l 1
 751 0 l 1
 751 380 l 1
 571 380 l 1
 571 0 l 1
 419 0 l 1
 419 380 l 1
 239 380 l 1
 239 0 l 1
 87 0 l 1
 87 380 l 1
 5 380 l 1
 5 496 l 1
 87 496 l 1
 87 577 l 2
 87 689 137 728 278 728 c 2
 347 728 l 1
 347 608 l 1
 305 608 l 2
 251 608 239 600 239 563 c 2
 239 496 l 1
 419 496 l 1
 419 577 l 2
 419 689 469 728 610 728 c 2
 679 728 l 1
 679 608 l 1
 637 608 l 2xdd
EndSplineSet
Refer: 544 803 S 1 0 0 1 738 826 2
LCarets2: 2 346 678
Ligature2: "'liga' Standard Ligatures lookup 0-1" f f i
EndChar

StartChar: f_f_l
Encoding: 510 64260 373
Width: 1013
Flags: W
HStem: 0 21G<87 239 419 571> 0 124<907.022 1010> 380 116<5 87 239 419 571 679> 608 120<246.6 347 578.6 679> 648 20G<749 901>
VStem: 87 152<0 380 496 601.93> 419 152<0 380 496 601.93> 749 152<134.902 668>
LayerCount: 2
Fore
SplineSet
901 180 m 2x6f
 901 136 915 124 967 124 c 2
 1010 124 l 1
 1010 0 l 1
 913 0 l 2
 784 0 749 30 749 140 c 2
 749 668 l 1
 901 668 l 1
 901 180 l 2x6f
EndSplineSet
Refer: 370 64256 S 1 0 0 1 0 0 2
LCarets2: 2 348 716
Ligature2: "'liga' Standard Ligatures lookup 0-1" f f l
EndChar

StartChar: dong
Encoding: 511 8363 374
Width: 632
InSpiro: 1
Flags: W
HStem: -120 78<58 588> -12 118<230.795 332.852> 0 21G<412.03 563> 392 118<230.529 329.571> 555 78<243 394 546 612>
VStem: 24 158<162.066 340.812> 394 152<428 555 633 698> 401 145<155.628 341.949>
LayerCount: 2
Fore
SplineSet
58 -120 m 0x9c
 58 -42 l 0
 588 -42 l 0
 588 -120 l 0
 58 -120 l 0x9c
  Spiro
    58 -120 v
    58 -42 v
    588 -42 v
    588 -120 v
    0 0 z
  EndSpiro
EndSplineSet
Refer: 319 273 N 1 0 0 1 0 0 2
EndChar

StartChar: uni0237
Encoding: 547 567 410
Width: 259
HStem: -161 120<-70 52.649> 476 20G<55 207>
VStem: 55 152<-37.0977 496>
AnchorPoint: "Anchor-0" 133 496 basechar 0
LayerCount: 2
Fore
SplineSet
207 -24 m 2
 207 -121 151 -161 17 -161 c 2
 -70 -161 l 1
 -70 -41 l 1
 -11 -41 l 2
 43 -41 55 -34 55 -2 c 2
 55 496 l 1
 207 496 l 1
 207 -24 l 2
EndSplineSet
EndChar

StartChar: uni2010
Encoding: 562 8208 425
Width: 334
Flags: W
HStem: 184 129<24 310>
VStem: 24 286<184 313>
LayerCount: 2
Fore
SplineSet
24 184 m 1
 24 313 l 1
 310 313 l 1
 310 184 l 1
 24 184 l 1
EndSplineSet
EndChar

StartChar: Ldot
Encoding: 569 319 432
Width: 537
HStem: 0 139<202 522> 250 194<326.702 447.684> 648 20G<44 202>
VStem: 44 158<139 668> 290 194<285.859 409.294>
LayerCount: 2
Fore
SplineSet
484 347 m 0
 484 294 442 251 388 250 c 0
 332 251 290 293 290 347 c 0
 290 402 332 444 388 444 c 0
 442 444 484 402 484 347 c 0
EndSplineSet
Refer: 26 76 N 1 0 0 1 0 0 3
EndChar

StartChar: ldot
Encoding: 570 320 433
Width: 485
Flags: W
HStem: -18 124<204.433 307> 250 194<307.548 428.068> 648 20G<50 202>
VStem: 50 148<113.555 668> 270 195<286.932 407.068>
LayerCount: 2
Fore
SplineSet
465 347 m 0
 465 293 422 250 368 250 c 0
 314 250 270 293 270 347 c 0
 270 401 313 444 368 444 c 0
 423 444 465 402 465 347 c 0
EndSplineSet
Refer: 52 108 N 1 0 0 1 0 0 2
EndChar

StartChar: uni031B
Encoding: 592 795 455
Width: 372
Flags: W
HStem: 387 114<0 188.627>
VStem: 205 129<520.951 616>
LayerCount: 2
Fore
SplineSet
134 501 m 2
 181 501 205 527 205 578 c 2
 205 616 l 1
 334 616 l 1
 334 575 l 2
 334 450 271 387 144 387 c 2
 0 387 l 1
 0 501 l 1
 134 501 l 2
EndSplineSet
EndChar

StartChar: Ohorn
Encoding: 593 416 456
Width: 764
Flags: W
HStem: -12 130<296.694 465.841> 540 130<297.903 467.167>
VStem: 35 167<220.55 437.45> 561 168<222.361 425.903> 615 149<690.449 765>
AnchorPoint: "Anchor-0" 382 658 basechar 0
AnchorPoint: "Anchor-1" 382 0 basechar 0
AnchorPoint: "Anchor-2" 688 10 basechar 0
LayerCount: 2
Fore
SplineSet
202 329 m 0xf0
 202 202 273 118 381 118 c 0
 490 118 561 202 561 329 c 0
 561 456 490 540 381 540 c 0
 273 540 202 456 202 329 c 0xf0
729 311 m 0
 729 118 589 -12 381 -12 c 0
 174 -12 35 125 35 329 c 0
 35 533 174 670 381 670 c 2
 534 670 l 2
 587 670 615 696 615 747 c 2
 615 765 l 1
 764 765 l 1
 764 744 l 2xe8
 764 650 714 586 614 554 c 1
 688 494 729 408 729 311 c 0
EndSplineSet
EndChar

StartChar: ohorn
Encoding: 594 417 457
Width: 593
Flags: W
HStem: -12 118<222.538 351.121> 382 118<222.698 353.687>
VStem: 24 155<153.498 337.681> 394 155<153.29 339.521> 474 129<516.499 595>
AnchorPoint: "Anchor-0" 287 486 basechar 0
AnchorPoint: "Anchor-1" 287 0 basechar 0
AnchorPoint: "Anchor-2" 516 10 basechar 0
LayerCount: 2
Fore
SplineSet
549 250 m 0xf0
 549 91 446 -12 287 -12 c 0
 127 -12 24 91 24 250 c 0
 24 403 126 500 287 500 c 2
 403 500 l 2
 450 500 474 526 474 577 c 2
 474 595 l 1
 603 595 l 1
 603 574 l 2xe8
 603 484 568 429 498 410 c 1
 531 367 549 312 549 250 c 0xf0
287 106 m 0
 357 106 394 156 394 250 c 0xf0
 394 336 357 382 287 382 c 0
 216 382 179 336 179 250 c 0
 179 157 217 106 287 106 c 0
EndSplineSet
EndChar

StartChar: Uhorn
Encoding: 595 431 458
Width: 690
Flags: W
HStem: -12 129<250.269 413.161> 648 20G<44 202>
VStem: 44 158<169.408 668> 461 158<169.808 580.817> 619 129<685.327 765>
AnchorPoint: "Anchor-0" 332 668 basechar 0
AnchorPoint: "Anchor-1" 332 0 basechar 0
AnchorPoint: "Anchor-2" 440 0 basechar 0
LayerCount: 2
Fore
SplineSet
619 292 m 2xf0
 619 80 532 -12 332 -12 c 0
 131 -12 44 79 44 292 c 2
 44 668 l 1
 202 668 l 1
 202 279 l 2
 202 160 237 117 332 117 c 0
 426 117 461 160 461 279 c 2
 461 668 l 1xf0
 548 668 l 2
 595 668 619 694 619 747 c 2
 619 765 l 1
 748 765 l 1
 748 744 l 2xe8
 748 645 705 590 619 577 c 1
 619 292 l 2xf0
EndSplineSet
EndChar

StartChar: uhorn
Encoding: 596 432 459
Width: 590
Flags: W
HStem: -12 118<161.5 310.463> 0 21G<381 519> 476 20G<50 202>
VStem: 50 152<129.187 496> 366 153<134.451 415.112> 514 129<516.499 595>
AnchorPoint: "Anchor-0" 285 496 basechar 0
AnchorPoint: "Anchor-1" 285 0 basechar 0
AnchorPoint: "Anchor-2" 519 0 basechar 0
LayerCount: 2
Fore
SplineSet
366 70 m 1x78
 332 12 289 -12 222 -12 c 0
 101 -12 50 50 50 198 c 2
 50 496 l 1
 202 496 l 1
 202 219 l 2
 202 138 224 106 280 106 c 0
 340 106 366 144 366 235 c 2
 366 496 l 1xb8
 433 496 l 2
 487 496 514 523 514 577 c 2
 514 595 l 1
 643 595 l 1
 643 574 l 2xb4
 643 484 602 429 519 410 c 1
 519 0 l 1
 387 0 l 1
 366 70 l 1x78
EndSplineSet
EndChar

StartChar: dotbelowcomb
Encoding: 681 803 544
Width: 205
Flags: W
HStem: -248 180<30.982 147.786>
VStem: 0 180<-217.018 -100.214>
AnchorPoint: "Anchor-3" 90 -248 basemark 0
AnchorPoint: "Anchor-3" 90 0 mark 0
AnchorPoint: "Anchor-1" 90 0 mark 0
LayerCount: 2
Fore
SplineSet
180 -158 m 0
 180 -208 140 -248 90 -248 c 0
 40 -248 0 -208 0 -158 c 0
 0 -108 40 -68 90 -68 c 0
 141 -68 180 -107 180 -158 c 0
EndSplineSet
EndChar

StartChar: hookabovecomb
Encoding: 682 777 545
Width: 157
Flags: W
HStem: 669 76<-13.3127 79.2003>
VStem: 81 106<597.599 664.51>
AnchorPoint: "Anchor-4" 81 744 basemark 0
AnchorPoint: "Anchor-4" 67 496 mark 0
AnchorPoint: "Anchor-0" 67 496 mark 0
LayerCount: 2
Fore
SplineSet
-14 735 m 1
 0 740 39 745 65 745 c 0
 139 745 187 710 187 656 c 0
 187 618 166 587 127 571 c 1
 36 571 l 1
 69 600 81 619 81 639 c 0
 81 658 65 669 35 669 c 0
 12 669 1 662 -14 660 c 1
 -14 735 l 1
EndSplineSet
EndChar

StartChar: longs
Encoding: 683 383 546
Width: 367
Flags: W
HStem: 0 21G<87 239> 380 116<5 87> 608 120<246.6 347>
VStem: 87 152<0 380 496 601.93>
AnchorPoint: "Anchor-0" 80 668 basechar 0
LayerCount: 2
Fore
SplineSet
305 608 m 2
 251 608 239 600 239 563 c 2
 239 0 l 1
 87 0 l 1
 87 380 l 1
 5 380 l 1
 5 496 l 1
 87 496 l 1
 87 577 l 2
 87 689 137 728 278 728 c 2
 347 728 l 1
 347 608 l 1
 305 608 l 2
EndSplineSet
EndChar

StartChar: uniFFFD
Encoding: 684 65533 547
Width: 527
Flags: W
HStem: 0 21<79 449> 680 20<78 449>
VStem: 50 21<49 650> 457 20<47 652>
LayerCount: 2
Fore
SplineSet
79 21 m 1
 449 21 l 1
 264 329 l 1
 79 21 l 1
71 49 m 1
 251 350 l 1
 71 650 l 1
 71 49 l 1
457 47 m 1
 457 652 l 1
 276 350 l 1
 457 47 l 1
263 371 m 1
 449 680 l 1
 78 680 l 1
 263 371 l 1
50 0 m 1
 50 700 l 1
 477 700 l 1
 477 0 l 1
 50 0 l 1
EndSplineSet
EndChar

StartChar: uni0256
Encoding: 713 598 576
Width: 610
Flags: W
HStem: -161 124<552.433 675> -12 118<230.795 332.852> 392 118<230.529 329.571> 648 20G<394 546>
VStem: 24 158<162.066 340.812> 394 152
AnchorPoint: "Anchor-1" 243 0 basechar 0
AnchorPoint: "Anchor-0" 240 496 basechar 0
LayerCount: 2
Fore
SplineSet
546 19 m 2
 546 -25 560 -37 612 -37 c 2
 675 -37 l 1
 675 -161 l 1
 558 -161 l 2
 438 -161 398 -122 398 -3 c 2
 398 67 l 1
 361 16 306 -12 243 -12 c 0
 111 -12 24 93 24 252 c 0
 24 409 110 510 243 510 c 0
 306 510 365 478 394 428 c 1
 394 668 l 1
 546 668 l 1
 546 19 l 2
182 252 m 0
 182 165 227 106 292 106 c 0
 361 106 401 158 401 249 c 0
 401 339 361 392 292 392 c 0
 226 392 182 336 182 252 c 0
EndSplineSet
EndChar

StartChar: Eng
Encoding: 715 330 578
Width: 700
Flags: W
HStem: -161 124<395 497.474> 0 21G<44 196> 648 20G<44 255.84 503 656>
VStem: 44 152<0 476> 503 153<-29.4453 0 192 668>
AnchorPoint: "Anchor-1" 322 0 basechar 0
AnchorPoint: "Anchor-0" 365 668 basechar 0
LayerCount: 2
Fore
SplineSet
44 0 m 1
 44 668 l 1
 245 668 l 1
 503 192 l 1
 503 668 l 1
 656 668 l 1
 656 -3 l 2
 656 -122 616 -161 496 -161 c 2
 395 -161 l 1
 395 -37 l 1
 437 -37 l 2
 482 -37 498 -28 502 0 c 1
 454 0 l 1
 196 476 l 1
 196 0 l 1
 44 0 l 1
EndSplineSet
EndChar

StartChar: eng
Encoding: 716 331 579
Width: 572
Flags: W
HStem: -161 124<261 364.062> 0 21G<50 202> 392 118<266.512 414> 476 20G<50 188.758>
VStem: 50 152<0 356.22> 370 152<-29.4453 370.302>
AnchorPoint: "Anchor-1" 286 0 basechar 0
AnchorPoint: "Anchor-0" 305 496 basechar 0
LayerCount: 2
Fore
SplineSet
522 302 m 10xec
 522 -3 l 2
 522 -122 482 -161 362 -161 c 2
 261 -161 l 1
 261 -37 l 1
 304 -37 l 2
 356 -37 370 -25 370 19 c 2
 370 264 l 2
 370 362 352 392 294 392 c 0xec
 232 392 202 348 202 255 c 2
 202 0 l 1
 50 0 l 1
 50 496 l 1
 183 496 l 1xdc
 202 430 l 1
 232 479 291 510 355 510 c 0
 473 510 522 449 522 302 c 10xec
EndSplineSet
EndChar

StartChar: uni0272
Encoding: 717 626 580
Width: 572
Flags: W
HStem: -161 124<-59 44.0623> 0 21G<370 522> 392 118<266.512 414> 476 20G<50 188.758>
VStem: 50 152<-29.4453 356.22> 370 152<0 370.302>
AnchorPoint: "Anchor-1" 286 0 basechar 0
AnchorPoint: "Anchor-0" 305 496 basechar 0
LayerCount: 2
Fore
SplineSet
294 392 m 0xec
 232 392 202 348 202 255 c 2
 202 -3 l 2
 202 -122 162 -161 42 -161 c 2
 -59 -161 l 1
 -59 -37 l 1
 -16 -37 l 2
 36 -37 50 -25 50 19 c 2
 50 496 l 1
 183 496 l 1xdc
 202 430 l 1
 232 479 291 510 355 510 c 0
 473 510 522 449 522 302 c 2
 522 0 l 1
 370 0 l 1
 370 264 l 2
 370 362 352 392 294 392 c 0xec
EndSplineSet
EndChar

StartChar: uni019D
Encoding: 718 413 581
Width: 700
Flags: W
HStem: -161 124<-65 38.0623> 0 21G<443.16 656> 648 20G<44 255.84 503 656>
VStem: 44 152<-29.4453 476> 503 153<192 668>
AnchorPoint: "Anchor-1" 322 0 basechar 0
AnchorPoint: "Anchor-0" 365 668 basechar 0
LayerCount: 2
Fore
SplineSet
44 19 m 2
 44 668 l 1
 245 668 l 1
 503 192 l 1
 503 668 l 1
 656 668 l 1
 656 0 l 1
 454 0 l 1
 196 476 l 1
 196 -3 l 2
 196 -122 156 -161 36 -161 c 2
 -65 -161 l 1
 -65 -37 l 1
 -22 -37 l 2
 30 -37 44 -25 44 19 c 2
EndSplineSet
EndChar

StartChar: uni019E
Encoding: 727 414 582
Width: 572
Flags: W
HStem: -161 21G<370 522> 0 21G<50 202> 392 118<266.512 414> 476 20G<50 188.758>
VStem: 50 152<0 356.22> 370 152<-161 370.302>
AnchorPoint: "Anchor-1" 286 0 basechar 0
AnchorPoint: "Anchor-0" 305 496 basechar 0
LayerCount: 2
Fore
SplineSet
294 392 m 0xec
 232 392 202 348 202 255 c 2
 202 0 l 1
 50 0 l 1
 50 496 l 1
 183 496 l 1xdc
 202 430 l 1
 232 479 291 510 355 510 c 0
 473 510 522 449 522 302 c 2
 522 -161 l 1
 370 -161 l 1
 370 264 l 2
 370 362 352 392 294 392 c 0xec
EndSplineSet
EndChar

StartChar: uni01EA
Encoding: 720 490 583
Width: 764
HStem: -174 76<388.635 480.313> 550 130<296.694 465.841>
VStem: 35 167<221.447 444.535> 260 126<-93.5099 -39.5625> 561 168<222.213 444.535>
LayerCount: 2
Fore
SplineSet
481 -164 m 1
 467 -169 428 -174 402 -174 c 0
 316 -174 260 -139 260 -85 c 0
 260 -52 281 -25 319 -8 c 1
 145 17 35 150 35 334 c 0
 35 541 174 680 381 680 c 0
 589 680 729 541 729 334 c 0
 729 165 634 38 480 -0 c 1
 399 -41 386 -50 386 -68 c 0
 386 -87 402 -98 432 -98 c 0
 455 -98 466 -91 481 -89 c 1
 481 -164 l 1
202 334 m 0
 202 204 273 118 381 118 c 0
 490 118 561 204 561 334 c 0
 561 464 490 550 381 550 c 0
 273 550 202 464 202 334 c 0
EndSplineSet
EndChar

StartChar: uni01EB
Encoding: 721 491 584
Width: 573
HStem: -174 76<282.635 374.313> 392 118<222.162 351.277>
VStem: 24 155<152.345 345.973> 154 126<-93.5099 -38.6723> 394 155<152.364 345.765>
LayerCount: 2
Fore
SplineSet
375 -164 m 1xd8
 361 -169 322 -174 296 -174 c 0
 210 -174 154 -139 154 -85 c 0xd8
 154 -50 177 -22 219 -5 c 1
 97 20 24 116 24 250 c 0xe8
 24 409 126 510 287 510 c 0
 447 510 549 409 549 250 c 0
 549 124 484 32 374 -0 c 1
 293 -40 280 -49 280 -68 c 0
 280 -87 296 -98 326 -98 c 0
 349 -98 360 -91 375 -89 c 1
 375 -164 l 1xd8
287 106 m 0
 357 106 394 156 394 250 c 0
 394 342 357 392 287 392 c 0
 216 392 179 343 179 250 c 0xe8
 179 157 217 106 287 106 c 0
EndSplineSet
EndChar

StartChar: uni0197
Encoding: 722 407 585
Width: 460
Flags: W
HStem: 0 124<57 151 309 403> 272 124<57 151 309 403> 544 124<57 151 309 403>
VStem: 57 346<0 124 272 396 544 668> 151 158<124 272 396 544>
CounterMasks: 1 e0
AnchorPoint: "Anchor-2" 331 0 basechar 0
AnchorPoint: "Anchor-1" 229 0 basechar 0
AnchorPoint: "Anchor-0" 231 668 basechar 0
LayerCount: 2
Fore
SplineSet
57 0 m 1xf0
 57 124 l 1xf0
 151 124 l 1
 151 272 l 1xe8
 57 272 l 1
 57 396 l 1xf0
 151 396 l 1
 151 544 l 1xe8
 57 544 l 1
 57 668 l 1
 403 668 l 1
 403 544 l 1xf0
 309 544 l 1
 309 396 l 1xe8
 403 396 l 1
 403 272 l 1xf0
 309 272 l 1
 309 124 l 1xe8
 403 124 l 1
 403 0 l 1
 57 0 l 1xf0
EndSplineSet
EndChar

StartChar: uni0268
Encoding: 723 616 586
Width: 315
Flags: W
HStem: 0 21G<118 271> 205 116<24 118 271 365> 380 116<24 118> 578 180<135.982 252.786>
VStem: 105 180<608.982 725.786> 118 153<0 205 321 380>
AnchorPoint: "Anchor-2" 271 0 basechar 0
LayerCount: 2
Fore
SplineSet
24 205 m 1xf4
 24 321 l 1
 118 321 l 1
 118 380 l 1
 24 380 l 1
 24 496 l 1
 271 496 l 1
 271 321 l 1
 365 321 l 1
 365 205 l 1
 271 205 l 1
 271 0 l 1
 118 0 l 1
 118 205 l 1
 24 205 l 1xf4
EndSplineSet
Refer: 544 803 S 1 0 0 1 105 826 2
EndChar

StartChar: Tbar
Encoding: 724 358 587
Width: 617
Flags: W
HStem: 0 21G<230 387> 272 124<136 230 387 481> 529 139<15 230 387 602>
VStem: 230 157<0 272 396 529>
AnchorPoint: "Anchor-1" 309 0 basechar 0
AnchorPoint: "Anchor-0" 309 668 basechar 0
LayerCount: 2
Fore
SplineSet
136 272 m 1
 136 396 l 1
 230 396 l 1
 230 529 l 1
 15 529 l 1
 15 668 l 1
 602 668 l 1
 602 529 l 1
 387 529 l 1
 387 396 l 1
 481 396 l 1
 481 272 l 1
 387 272 l 1
 387 0 l 1
 230 0 l 1
 230 272 l 1
 136 272 l 1
EndSplineSet
EndChar

StartChar: tbar
Encoding: 725 359 588
Width: 379
Flags: W
HStem: 0 124<253.022 355> 205 116<13 95 247 355> 380 116<13 95 247 355>
VStem: 13 342<205 321 380 496> 95 152<130.117 205 321 380 496 620>
AnchorPoint: "Anchor-1" 239 0 basechar 0
AnchorPoint: "Anchor-0" 170 620 basechar 0
LayerCount: 2
Fore
SplineSet
247 180 m 2xe8
 247 136 260 124 311 124 c 2
 355 124 l 1
 355 0 l 1xf0
 259 0 l 2
 130 0 95 30 95 140 c 2
 95 205 l 1xe8
 13 205 l 1
 13 321 l 1xf0
 95 321 l 1
 95 380 l 1xe8
 13 380 l 1
 13 496 l 1xf0
 95 496 l 1
 95 620 l 1
 247 620 l 1
 247 496 l 1xe8
 355 496 l 1
 355 380 l 1xf0
 247 380 l 1
 247 321 l 1xe8
 355 321 l 1
 355 205 l 1xf0
 247 205 l 1
 247 180 l 2xe8
EndSplineSet
EndChar

StartChar: kgreenlandic
Encoding: 726 312 589
AltUni2: 0003ba.ffffffff.0
Width: 567
Flags: W
HStem: 0 21G<50 202 368.667 563> 476 20G<50 202 350.34 548>
VStem: 50 152<0 125 308 496>
AnchorPoint: "Anchor-1" 284 0 basechar 0
AnchorPoint: "Anchor-0" 271 496 basechar 0
LayerCount: 2
Fore
SplineSet
50 0 m 1
 50 496 l 1
 202 496 l 1
 202 308 l 1
 368 496 l 1
 548 496 l 1
 354 289 l 1
 563 0 l 1
 383 0 l 1
 254 180 l 1
 202 125 l 1
 202 0 l 1
 50 0 l 1
EndSplineSet
EndChar

StartChar: Pi
Encoding: 208 928 592
Width: 620
Flags: W
HStem: 0 21G<44 172 448 576> 552 116<172 448>
VStem: 44 128<0 552> 448 128<0 552>
LayerCount: 2
Fore
SplineSet
44 0 m 1
 44 668 l 1
 576 668 l 1
 576 0 l 1
 448 0 l 1
 448 552 l 1
 172 552 l 1
 172 0 l 1
 44 0 l 1
EndSplineSet
EndChar

StartChar: eta
Encoding: 231 951 593
Width: 572
Flags: W
HStem: -161 21G<370 522> 0 21G<50 202> 392 118<266.512 414> 476 20G<50 188.758>
VStem: 50 152<0 356.22> 370 152<-161 370.302>
AnchorPoint: "Anchor-1" 286 0 basechar 0
AnchorPoint: "Anchor-0" 305 496 basechar 0
LayerCount: 2
Fore
SplineSet
294 392 m 0xec
 232 392 202 348 202 255 c 2
 202 0 l 1
 50 0 l 1
 50 496 l 1
 183 496 l 1xdc
 202 430 l 1
 232 479 291 510 355 510 c 0
 473 510 522 449 522 302 c 2
 522 -161 l 1
 370 -161 l 1
 370 264 l 2
 370 362 352 392 294 392 c 0xec
EndSplineSet
EndChar

StartChar: Lambda
Encoding: 203 923 594
Width: 690
Flags: W
HStem: 0 21G<5 183.667 506.253 685> 648 20G<250.425 439.575>
AnchorPoint: "Anchor-2" 685 0 basechar 0
AnchorPoint: "Anchor-1" 345 0 basechar 0
AnchorPoint: "Anchor-0" 345 668 basechar 0
LayerCount: 2
Fore
SplineSet
344 501 m 1
 177 0 l 1
 5 0 l 1
 258 668 l 1
 432 668 l 1
 685 0 l 1
 513 0 l 1
 344 501 l 1
EndSplineSet
EndChar

StartChar: Gamma
Encoding: 195 915 595
Width: 591
Flags: W
HStem: 0 21G<44 172> 552 116<172 576>
VStem: 44 128<0 552>
LayerCount: 2
Fore
SplineSet
576 552 m 1
 172 552 l 1
 172 0 l 1
 44 0 l 1
 44 668 l 1
 576 668 l 9
 576 552 l 1
EndSplineSet
EndChar

StartChar: Xi
Encoding: 206 926 596
Width: 558
Flags: W
HStem: 0 139<22 536> 275 136<100 458> 529 139<22 536>
AnchorPoint: "Anchor-2" 500 0 basechar 0
AnchorPoint: "Anchor-1" 268 0 basechar 0
AnchorPoint: "Anchor-0" 281 668 basechar 0
LayerCount: 2
Fore
SplineSet
100 411 m 1
 458 411 l 1
 458 275 l 1
 100 275 l 9
 100 411 l 1
22 139 m 17
 536 139 l 1
 536 0 l 1
 22 0 l 1
 22 139 l 17
22 668 m 17
 536 668 l 1
 536 529 l 1
 22 529 l 1
 22 668 l 17
EndSplineSet
EndChar
